<svg xmlns="http://www.w3.org/2000/svg" width="175" height="23" viewBox="0 0 175 23">
  <metadata><?xpacket begin="﻿" id="W5M0MpCehiHzreSzNTczkc9d"?>
<x:xmpmeta xmlns:x="adobe:ns:meta/" x:xmptk="Adobe XMP Core 5.6-c138 79.159824, 2016/09/14-01:09:01        ">
   <rdf:RDF xmlns:rdf="http://www.w3.org/1999/02/22-rdf-syntax-ns#">
      <rdf:Description rdf:about=""/>
   </rdf:RDF>
</x:xmpmeta>
                                                                                                    
                                                                                                    
                                                                                                    
                                                                                                    
                                                                                                    
                                                                                                    
                                                                                                    
                                                                                                    
                                                                                                    
                                                                                                    
                                                                                                    
                                                                                                    
                                                                                                    
                                                                                                    
                                                                                                    
                                                                                                    
                                                                                                    
                                                                                                    
                                                                                                    
                                                                                                    
                           
<?xpacket end="w"?></metadata>
<defs>
    <style>
      .cls-1 {
        fill: #fff;
        fill-rule: evenodd;
      }
    </style>
  </defs>
  <path id="Cines_Unidos" data-name="Cines Unidos" class="cls-1" d="M11.252-.012A11.4,11.4,0,0,0-.006,11.5,11.4,11.4,0,0,0,11.252,23,11.4,11.4,0,0,0,22.509,11.5,11.4,11.4,0,0,0,11.252-.012Zm9.564,11.08H12.966V4.321h-1.3V1.72A9.69,9.69,0,0,1,20.815,11.068ZM10.834,1.72v2.6H10.457L7.042,5.888v1.5l3.067-.748-0.027,4.432H1.688A9.69,9.69,0,0,1,10.834,1.72Zm-9.145,10.2h8.389l-0.038,6.29h0.795v3.059A9.69,9.69,0,0,1,1.688,11.923Zm9.982,9.349V18.213h1.3v-6.29h7.849A9.69,9.69,0,0,1,11.67,21.272Zm32.592-7.7,1.628,2.492-0.223.158a0.664,0.664,0,0,0-.394-0.228,3.009,3.009,0,0,0-.865.422,11.93,11.93,0,0,1-2.48,1.172,8.38,8.38,0,0,1-2.395.3,7.325,7.325,0,0,1-4.541-1.34,5.6,5.6,0,0,1-1.645-1.935,6.181,6.181,0,0,1-.694-2.917,5.981,5.981,0,0,1,1.242-3.775,6.7,6.7,0,0,1,5.646-2.409,8.38,8.38,0,0,1,2.382.3,12.016,12.016,0,0,1,2.484,1.174,3.044,3.044,0,0,0,.865.411,0.663,0.663,0,0,0,.394-0.228L45.89,7.326l-1.628,2.5L44.03,9.664a1.986,1.986,0,0,0,.017-0.235,0.678,0.678,0,0,0-.214-0.475,3.625,3.625,0,0,0-.762-0.537,6.344,6.344,0,0,0-3.213-.872,4.737,4.737,0,0,0-3.2,1.023A3.921,3.921,0,0,0,35.257,11.7a3.92,3.92,0,0,0,1.405,3.132,4.736,4.736,0,0,0,3.2,1.024,6.32,6.32,0,0,0,3.213-.876,3.613,3.613,0,0,0,.762-0.538,0.683,0.683,0,0,0,.214-0.478,1.8,1.8,0,0,0-.017-0.228Zm3.933,3.188V6.633a0.6,0.6,0,0,0-.12-0.4A0.871,0.871,0,0,0,47.646,6V5.723H51.3V6a0.8,0.8,0,0,0-.429.223,0.62,0.62,0,0,0-.12.407V16.758a0.619,0.619,0,0,0,.124.416,0.823,0.823,0,0,0,.424.223v0.28h-3.65V17.4a0.869,0.869,0,0,0,.428-0.228A0.616,0.616,0,0,0,48.194,16.758Zm8.088-7.27v7.27a0.616,0.616,0,0,0,.12.411,0.871,0.871,0,0,0,.429.228v0.28H53.4V17.4a0.869,0.869,0,0,0,.428-0.228,0.615,0.615,0,0,0,.12-0.411V6.633a0.6,0.6,0,0,0-.12-0.4A0.872,0.872,0,0,0,53.4,6V5.723h3.975V6a0.409,0.409,0,0,0-.369.4,0.718,0.718,0,0,0,.24.464l6.452,6.858V6.633a0.6,0.6,0,0,0-.12-0.4A0.873,0.873,0,0,0,63.145,6V5.723h3.436V6a0.873,0.873,0,0,0-.429.228,0.6,0.6,0,0,0-.12.4V16.758a0.616,0.616,0,0,0,.12.411,0.871,0.871,0,0,0,.429.228v0.28H62.9V17.4a0.379,0.379,0,0,0,.36-0.376,1.3,1.3,0,0,0-.42-0.613ZM71.79,12.431v3.276h7.523a0.572,0.572,0,0,0,.394-0.123,0.9,0.9,0,0,0,.223-0.438H80.2v3.092H79.93a0.9,0.9,0,0,0-.223-0.438,0.572,0.572,0,0,0-.394-0.123H68.689V17.4a0.868,0.868,0,0,0,.428-0.228,0.615,0.615,0,0,0,.12-0.411V6.642a0.616,0.616,0,0,0-.12-0.411A0.871,0.871,0,0,0,68.689,6V5.723H79.107A0.566,0.566,0,0,0,79.5,5.6a0.917,0.917,0,0,0,.223-0.436H80V8.254H79.724A0.916,0.916,0,0,0,79.5,7.817a0.567,0.567,0,0,0-.394-0.125H71.79v2.838h4.747a0.572,0.572,0,0,0,.394-0.122,0.908,0.908,0,0,0,.223-0.438h0.274v3.021H77.154a0.93,0.93,0,0,0-.223-0.433,0.56,0.56,0,0,0-.394-0.127H71.79ZM92.9,6.735L91.5,9.55l-0.24-.14c0.006-.059.009-0.105,0.009-0.14a0.907,0.907,0,0,0-.5-0.639A6.015,6.015,0,0,0,87.2,7.544a5.138,5.138,0,0,0-1.6.228,1.907,1.907,0,0,0-.818.525,1.12,1.12,0,0,0-.313.761,0.944,0.944,0,0,0,.8.919,12.193,12.193,0,0,0,1.765.262l1.345,0.14a10.8,10.8,0,0,1,1.941.359,4.5,4.5,0,0,1,1.315.639,2.981,2.981,0,0,1,.921,1.129,3.392,3.392,0,0,1,.338,1.5,3.452,3.452,0,0,1-.8,2.241,4.263,4.263,0,0,1-2.236,1.321,8.766,8.766,0,0,1-2.425.324,10.1,10.1,0,0,1-4.584-1.139,2.4,2.4,0,0,0-.574-0.228,0.712,0.712,0,0,0-.352.193l-0.248-.132,1.268-2.934,0.249,0.123v0.114a0.973,0.973,0,0,0,.368.727,4.637,4.637,0,0,0,1.722.875,7.338,7.338,0,0,0,2.21.368,4.4,4.4,0,0,0,1.945-.393,1.892,1.892,0,0,0,.711-0.581,1.264,1.264,0,0,0,.266-0.756,0.874,0.874,0,0,0-.625-0.848,8.179,8.179,0,0,0-1.765-.323l-1.32-.14a17.628,17.628,0,0,1-1.876-.268,4.772,4.772,0,0,1-1.1-.407A2.875,2.875,0,0,1,82.5,10.956a3.247,3.247,0,0,1-.4-1.63,3.347,3.347,0,0,1,1.019-2.507,5.526,5.526,0,0,1,4.01-1.306,8.92,8.92,0,0,1,2.091.233,15.634,15.634,0,0,1,2.416.858,2.634,2.634,0,0,0,.608.2,0.7,0.7,0,0,0,.42-0.2Zm18.044-.093v6.7a4.848,4.848,0,0,1-.685,2.846q-1.235,1.7-5.1,1.7a8.16,8.16,0,0,1-4.275-.92,2.791,2.791,0,0,1-1.2-1.454,6.468,6.468,0,0,1-.325-2.172v-6.7a0.618,0.618,0,0,0-.12-0.411A0.871,0.871,0,0,0,98.813,6V5.723h3.65V6a0.814,0.814,0,0,0-.426.223,0.624,0.624,0,0,0-.122.416v5.965a7.628,7.628,0,0,0,.111,1.528,1.753,1.753,0,0,0,.42.828,4.88,4.88,0,0,0,5.629,0,1.8,1.8,0,0,0,.411-0.828,7.612,7.612,0,0,0,.112-1.528V6.642a0.616,0.616,0,0,0-.12-0.411A0.872,0.872,0,0,0,108.049,6V5.723h3.444V6a0.873,0.873,0,0,0-.428.228A0.616,0.616,0,0,0,110.945,6.642Zm5.3,2.846v7.27a0.616,0.616,0,0,0,.119.411,0.874,0.874,0,0,0,.429.228v0.28h-3.436V17.4a0.874,0.874,0,0,0,.429-0.228,0.616,0.616,0,0,0,.12-0.411V6.633a0.6,0.6,0,0,0-.12-0.4A0.877,0.877,0,0,0,113.361,6V5.723h3.976V6a0.41,0.41,0,0,0-.369.4,0.718,0.718,0,0,0,.24.464l6.452,6.858V6.633a0.6,0.6,0,0,0-.12-0.4A0.872,0.872,0,0,0,123.111,6V5.723h3.436V6a0.873,0.873,0,0,0-.428.228,0.6,0.6,0,0,0-.12.4V16.758a0.616,0.616,0,0,0,.12.411,0.87,0.87,0,0,0,.428.228v0.28h-3.684V17.4a0.379,0.379,0,0,0,.36-0.376,1.294,1.294,0,0,0-.42-0.613Zm12.954,7.27V6.633a0.6,0.6,0,0,0-.12-0.4A0.868,0.868,0,0,0,128.655,6V5.723h3.65V6a0.8,0.8,0,0,0-.428.223,0.614,0.614,0,0,0-.121.407V16.758a0.619,0.619,0,0,0,.125.416,0.824,0.824,0,0,0,.424.223v0.28h-3.65V17.4a0.865,0.865,0,0,0,.428-0.228A0.616,0.616,0,0,0,129.2,16.758Zm5.749,0V6.642a0.616,0.616,0,0,0-.12-0.411A0.873,0.873,0,0,0,134.4,6V5.723h6.524a8.554,8.554,0,0,1,3.293.5,4.744,4.744,0,0,1,2.435,2.4,7.083,7.083,0,0,1,.625,3.075,5.911,5.911,0,0,1-1.86,4.712,4.625,4.625,0,0,1-1.826.977,10.106,10.106,0,0,1-2.667.293H134.4V17.4a0.87,0.87,0,0,0,.428-0.228A0.616,0.616,0,0,0,134.952,16.758Zm2.553-1.051h3.209a4.866,4.866,0,0,0,2.307-.43q1.656-.919,1.656-3.582a4.368,4.368,0,0,0-.892-2.952,2.76,2.76,0,0,0-1.2-.81,5.937,5.937,0,0,0-1.87-.241h-3.209v8.014Zm18.04-10.195A6.787,6.787,0,0,1,160.4,7.2a5.971,5.971,0,0,1,1.894,4.572,6.051,6.051,0,0,1-.908,3.205q-1.774,2.908-5.822,2.908a6.751,6.751,0,0,1-4.827-1.69,5.887,5.887,0,0,1-1.457-2.164,6.343,6.343,0,0,1-.437-2.338,6.227,6.227,0,0,1,.9-3.284Q151.465,5.565,155.545,5.512Zm0.009,2.032a3.989,3.989,0,0,0-2.788,1.015,4.043,4.043,0,0,0-1.321,3.141,3.984,3.984,0,0,0,4.126,4.156,3.9,3.9,0,0,0,3.808-2.493,4.328,4.328,0,0,0,.309-1.61,4.039,4.039,0,0,0-1.321-3.194A4.151,4.151,0,0,0,155.554,7.544Zm19.453-.809-1.4,2.815-0.24-.14c0.006-.059.009-0.105,0.009-0.14a0.908,0.908,0,0,0-.5-0.639A6.015,6.015,0,0,0,169.3,7.544a5.143,5.143,0,0,0-1.6.228,1.908,1.908,0,0,0-.818.525,1.121,1.121,0,0,0-.312.761,0.943,0.943,0,0,0,.8.919,12.226,12.226,0,0,0,1.765.262l1.345,0.14a10.8,10.8,0,0,1,1.941.359,4.49,4.49,0,0,1,1.315.639,2.969,2.969,0,0,1,.921,1.129,3.389,3.389,0,0,1,.339,1.5,3.455,3.455,0,0,1-.8,2.241,4.264,4.264,0,0,1-2.236,1.321,8.768,8.768,0,0,1-2.425.324,10.1,10.1,0,0,1-4.584-1.139,2.4,2.4,0,0,0-.574-0.228,0.713,0.713,0,0,0-.351.193l-0.248-.132,1.267-2.934,0.249,0.123v0.114a0.975,0.975,0,0,0,.368.727,4.651,4.651,0,0,0,1.722.875,7.343,7.343,0,0,0,2.211.368,4.4,4.4,0,0,0,1.945-.393,1.89,1.89,0,0,0,.711-0.581,1.264,1.264,0,0,0,.266-0.756,0.874,0.874,0,0,0-.626-0.848,8.167,8.167,0,0,0-1.765-.323l-1.319-.14a17.652,17.652,0,0,1-1.877-.268,4.773,4.773,0,0,1-1.1-.407,2.882,2.882,0,0,1-1.226-1.183,3.251,3.251,0,0,1-.4-1.63,3.349,3.349,0,0,1,1.019-2.507,5.527,5.527,0,0,1,4.01-1.306,8.926,8.926,0,0,1,2.091.233,15.638,15.638,0,0,1,2.416.858,2.632,2.632,0,0,0,.608.2,0.7,0.7,0,0,0,.42-0.2Z"/>
</svg>
