<svg xmlns="http://www.w3.org/2000/svg" width="30" height="30" viewBox="0 0 30 30">
  <metadata><?xpacket begin="﻿" id="W5M0MpCehiHzreSzNTczkc9d"?>
<x:xmpmeta xmlns:x="adobe:ns:meta/" x:xmptk="Adobe XMP Core 5.6-c138 79.159824, 2016/09/14-01:09:01        ">
   <rdf:RDF xmlns:rdf="http://www.w3.org/1999/02/22-rdf-syntax-ns#">
      <rdf:Description rdf:about=""/>
   </rdf:RDF>
</x:xmpmeta>
                                                                                                    
                                                                                                    
                                                                                                    
                                                                                                    
                                                                                                    
                                                                                                    
                                                                                                    
                                                                                                    
                                                                                                    
                                                                                                    
                                                                                                    
                                                                                                    
                                                                                                    
                                                                                                    
                                                                                                    
                                                                                                    
                                                                                                    
                                                                                                    
                                                                                                    
                                                                                                    
                           
<?xpacket end="w"?></metadata>
<defs>
    <style>
      .cls-1 {
        fill: #0af78b;
        fill-rule: evenodd;
      }
    </style>
  </defs>
  <path id="Billetes" class="cls-1" d="M25.761,30.014H4.235A4.243,4.243,0,0,1,0,25.773V4.246A4.243,4.243,0,0,1,4.235.005H25.761A4.243,4.243,0,0,1,30,4.246V25.773A4.243,4.243,0,0,1,25.761,30.014ZM4.235,1.311A2.941,2.941,0,0,0,1.3,4.246V25.773a2.941,2.941,0,0,0,2.94,2.935H25.761A2.941,2.941,0,0,0,28.7,25.773V4.246a2.94,2.94,0,0,0-2.939-2.935H4.235Zm1.887,18.6a0.658,0.658,0,0,0,.419.261l1.42,0.253L20,25.439a0.665,0.665,0,0,0,.86-0.323L21.872,22.9l0.359,0.064a0.679,0.679,0,0,0,.489-0.1,0.624,0.624,0,0,0,.273-0.4l0.449-2.3H24.1a0.639,0.639,0,0,0,.653-0.624v-8.48a0.639,0.639,0,0,0-.653-0.624H7.246a0.639,0.639,0,0,0-.653.624V16.5L6.019,19.441A0.6,0.6,0,0,0,6.122,19.908ZM21.09,21.495l-7.418-1.323h8.022Zm-1.164,2.55-6.249-2.6,6.877,1.227Zm3.519-12.354v7.232H7.9V16.549h0V11.692H23.445Zm-8.014,5.8a2.155,2.155,0,1,0-2.253-2.153A2.207,2.207,0,0,0,15.431,17.489Zm0-3.057a0.905,0.905,0,1,1-.947.9A0.927,0.927,0,0,1,15.431,14.432ZM11.1,16.311a0.976,0.976,0,1,0-1.02-.975A1,1,0,0,0,11.1,16.311Zm8.639,0a0.976,0.976,0,1,0-1.02-.975A1,1,0,0,0,19.742,16.311ZM13.271,6.438a0.674,0.674,0,0,0,.924,0L14.657,6h0.114l0,2.589a0.639,0.639,0,0,0,.653.625h0a0.639,0.639,0,0,0,.653-0.624l0-2.59h0.128l0.462,0.441a0.675,0.675,0,0,0,.924,0,0.6,0.6,0,0,0,0-.882l-1.7-1.622a0.674,0.674,0,0,0-.923,0l-1.7,1.622A0.6,0.6,0,0,0,13.271,6.438Z"/>
</svg>
