<svg xmlns="http://www.w3.org/2000/svg" width="36" height="35" viewBox="0 0 36 35">
  <metadata><?xpacket begin="﻿" id="W5M0MpCehiHzreSzNTczkc9d"?>
<x:xmpmeta xmlns:x="adobe:ns:meta/" x:xmptk="Adobe XMP Core 5.6-c138 79.159824, 2016/09/14-01:09:01        ">
   <rdf:RDF xmlns:rdf="http://www.w3.org/1999/02/22-rdf-syntax-ns#">
      <rdf:Description rdf:about=""/>
   </rdf:RDF>
</x:xmpmeta>
                                                                                                    
                                                                                                    
                                                                                                    
                                                                                                    
                                                                                                    
                                                                                                    
                                                                                                    
                                                                                                    
                                                                                                    
                                                                                                    
                                                                                                    
                                                                                                    
                                                                                                    
                                                                                                    
                                                                                                    
                                                                                                    
                                                                                                    
                                                                                                    
                                                                                                    
                                                                                                    
                           
<?xpacket end="w"?></metadata>
<defs>
    <style>
      .cls-1 {
        fill: #fff;
        fill-rule: evenodd;
      }
    </style>
  </defs>
  <path class="cls-1" d="M0.655,25.319A1.2,1.2,0,0,0,.146,26.96l3.99,7.388a1.242,1.242,0,0,0,1.667.5,1.2,1.2,0,0,0,.509-1.642L2.322,25.82A1.241,1.241,0,0,0,.655,25.319ZM8.484,32.95a1.244,1.244,0,0,0,.523-0.115l1.563-.724a10.3,10.3,0,0,0,8.284-4.92c2.658-4.137,5.053-7.773,5.462-8.394l9.53-3.422A3.211,3.211,0,0,0,35.8,11.245l-3.38-9.129A3.216,3.216,0,0,0,30.726.3a3.3,3.3,0,0,0-2.5-.106L12.719,5.761A3.214,3.214,0,0,0,10.77,9.9l0.439,1.155C9.9,11.617,7.424,13.01,6.9,15.667c-0.443,2.252-.966,5.412-1.177,6.706l-1.756.956a1.2,1.2,0,0,0-.495,1.627L7.392,32.3A1.236,1.236,0,0,0,8.484,32.95ZM33,13.094l-7.859,2.822a2.936,2.936,0,0,0-1.01-2.024,3.126,3.126,0,0,0-2.379-.819A3.852,3.852,0,0,0,19.181,14.5c-0.377.474-1.579,2.4-2.527,3.945L14.377,12.46l16.989-6.1,2.117,5.718A0.791,0.791,0,0,1,33,13.094ZM13.563,8.042L29.07,2.473a0.811,0.811,0,0,1,.616.026,0.791,0.791,0,0,1,.416.448l0.419,1.132-17.01,6.108L13.082,9.059A0.792,0.792,0,0,1,13.563,8.042ZM7.444,24.212a1.215,1.215,0,0,0,.622-0.874c0.007-.043.7-4.368,1.257-7.209a4.127,4.127,0,0,1,2.318-2.586c0.336,0.967.859,2.464,1.534,4.37,1,2.835,2.136,4.272,3.367,4.272H16.58a1.235,1.235,0,0,0,1.028-.592c1.157-1.912,3.135-5.122,3.514-5.6a1.4,1.4,0,0,1,.846-0.5,0.648,0.648,0,0,1,.515.2c0.541,0.481-.174,1.688-0.173,1.688-0.026.039-2.629,3.98-5.538,8.509a7.752,7.752,0,0,1-6.419,3.794,1.231,1.231,0,0,0-.584.114l-0.742.344L6.217,24.879ZM31.153,10.773l-1.383.5a1.209,1.209,0,0,0-.736,1.556,1.239,1.239,0,0,0,1.58.725l1.383-.5a1.208,1.208,0,0,0,.736-1.556A1.238,1.238,0,0,0,31.153,10.773Z"/>
</svg>
