<svg id="Postpago" xmlns="http://www.w3.org/2000/svg" width="55" height="55" viewBox="0 0 55 55">
  <metadata><?xpacket begin="﻿" id="W5M0MpCehiHzreSzNTczkc9d"?>
<x:xmpmeta xmlns:x="adobe:ns:meta/" x:xmptk="Adobe XMP Core 5.6-c138 79.159824, 2016/09/14-01:09:01        ">
   <rdf:RDF xmlns:rdf="http://www.w3.org/1999/02/22-rdf-syntax-ns#">
      <rdf:Description rdf:about=""/>
   </rdf:RDF>
</x:xmpmeta>
                                                                                                    
                                                                                                    
                                                                                                    
                                                                                                    
                                                                                                    
                                                                                                   
                                                                                                    
                                                                                                    
                                                                                                    
                                                                                                    
                                                                                                    
                                                                                                    
                                                                                                    
                                                                                                    
                                                                                                    
                                                                                                    
                                                                                                    
                                                                                                    
                                                                                                    
                           
<?xpacket end="w"?></metadata>
<defs>
    <style>

      .cls-1 {
        fill: #fff;
        fill-rule: evenodd;
      }
	  
    </style>
  </defs>
  <path id="Shape_519_copy_10" data-name="Shape 519 copy 10" class="cls-1" d="M47.228,55H7.764A7.779,7.779,0,0,1,0,47.23V7.763A7.779,7.779,0,0,1,7.764-.011H47.228a7.779,7.779,0,0,1,7.765,7.774V47.23A7.779,7.779,0,0,1,47.228,55ZM7.764,2.382a5.392,5.392,0,0,0-5.39,5.381V47.23a5.392,5.392,0,0,0,5.39,5.381H47.228a5.391,5.391,0,0,0,5.389-5.381V7.763a5.391,5.391,0,0,0-5.389-5.381H7.764Z"/>
  <path id="Shape_523_copy_2" data-name="Shape 523 copy 2" class="cls-1" d="M25.447,38.7a1.525,1.525,0,1,0,1.5,1.524A1.513,1.513,0,0,0,25.447,38.7Zm0,2.43a0.905,0.905,0,1,1,.89-0.905A0.9,0.9,0,0,1,25.447,41.133Zm3.5-21.655a0.964,0.964,0,0,0-.956.972V33.066a0.964,0.964,0,0,0,.956.972h10.11a0.964,0.964,0,0,0,.956-0.972V20.45a0.964,0.964,0,0,0-.956-0.972h-2.96V13.634A3.618,3.618,0,0,0,32.512,9.99H18.578A3.618,3.618,0,0,0,15,13.634V41.368a3.618,3.618,0,0,0,3.582,3.645H32.512a3.618,3.618,0,0,0,3.582-3.645V34.045H33.706v1.4H17.384V18.18H33.706v1.3H28.945ZM18.578,12.42H32.512a1.206,1.206,0,0,1,1.194,1.215V15.75H17.384V13.634A1.206,1.206,0,0,1,18.578,12.42ZM32.512,42.582H18.578a1.206,1.206,0,0,1-1.194-1.215V37.873H33.706v3.495A1.206,1.206,0,0,1,32.512,42.582ZM38.1,32.094H29.9V21.422h8.2V32.094ZM31.6,24.57h4.719a0.729,0.729,0,0,0,0-1.458H31.6A0.729,0.729,0,0,0,31.6,24.57Zm0,2.917h4.719a0.729,0.729,0,0,0,0-1.458H31.6A0.729,0.729,0,0,0,31.6,27.487Zm0,2.918h4.719a0.729,0.729,0,0,0,0-1.458H31.6A0.729,0.729,0,0,0,31.6,30.4Z"/>
</svg>
