<svg id="Historial" xmlns="http://www.w3.org/2000/svg" width="55" height="55" viewBox="0 0 55 55">
  <metadata><?xpacket begin="﻿" id="W5M0MpCehiHzreSzNTczkc9d"?>
<x:xmpmeta xmlns:x="adobe:ns:meta/" x:xmptk="Adobe XMP Core 5.6-c138 79.159824, 2016/09/14-01:09:01        ">
   <rdf:RDF xmlns:rdf="http://www.w3.org/1999/02/22-rdf-syntax-ns#">
      <rdf:Description rdf:about=""/>
   </rdf:RDF>
</x:xmpmeta>
                                                                                                    
                                                                                                    
                                                                                                    
                                                                                                    
                                                                                                    
                                                                                                    
                                                                                                    
                                                                                                    
                                                                                                    
                                                                                                    
                                                                                                    
                                                                                                    
                                                                                                    
                                                                                                    
                                                                                                    
                                                                                                    
                                                                                                    
                                                                                                    
                                                                                                    
                                                                                                    
                           
<?xpacket end="w"?></metadata>
<defs>
    <style>
      .cls-1 {
        fill: #fff;
        fill-rule: evenodd;
      }
    </style>
  </defs>
  <path id="Shape_519_copy_7" data-name="Shape 519 copy 7" class="cls-1" d="M47.228,55H7.764A7.779,7.779,0,0,1,0,47.23V7.763A7.779,7.779,0,0,1,7.764-.011H47.228a7.779,7.779,0,0,1,7.765,7.774V47.23A7.779,7.779,0,0,1,47.228,55ZM7.764,2.382a5.392,5.392,0,0,0-5.39,5.381V47.23a5.392,5.392,0,0,0,5.39,5.381H47.228a5.391,5.391,0,0,0,5.389-5.381V7.763a5.391,5.391,0,0,0-5.389-5.381H7.764Z"/>
  <path id="Shape_519_copy_2" data-name="Shape 519 copy 2" class="cls-1" d="M26.915,28.3h6.567a1.2,1.2,0,0,0,0-2.4H28.088l0-10.636a1.188,1.188,0,0,0-1.173-1.2h0a1.188,1.188,0,0,0-1.173,1.2L25.742,27.1A1.188,1.188,0,0,0,26.915,28.3ZM44,25.408A17.233,17.233,0,0,0,27,7.992a17.233,17.233,0,0,0-17,17.416,17.447,17.447,0,0,0,9.07,15.407,1.142,1.142,0,0,0,.547.14,1.169,1.169,0,0,0,1.038-.641,1.216,1.216,0,0,0-.489-1.624,15.042,15.042,0,0,1-7.819-13.282A14.855,14.855,0,0,1,27,10.4,14.855,14.855,0,0,1,41.657,25.408a14.862,14.862,0,0,1-14.335,15l1.337-2.533a1.216,1.216,0,0,0-.474-1.629,1.16,1.16,0,0,0-1.59.486l-2.347,4.448a1.225,1.225,0,0,0,.179,1.4l3.74,4.052a1.154,1.154,0,0,0,1.659.047,1.223,1.223,0,0,0,.047-1.7L27.86,42.8A17.26,17.26,0,0,0,44,25.408Z"/>
</svg>
