<svg xmlns="http://www.w3.org/2000/svg" xmlns:xlink="http://www.w3.org/1999/xlink" width="25" height="25" viewBox="0 0 25 25">
  <metadata><?xpacket begin="﻿" id="W5M0MpCehiHzreSzNTczkc9d"?>
<x:xmpmeta xmlns:x="adobe:ns:meta/" x:xmptk="Adobe XMP Core 5.6-c138 79.159824, 2016/09/14-01:09:01        ">
   <rdf:RDF xmlns:rdf="http://www.w3.org/1999/02/22-rdf-syntax-ns#">
      <rdf:Description rdf:about=""/>
   </rdf:RDF>
</x:xmpmeta>
                                                                                                    
                                                                                                    
                                                                                                    
                                                                                                    
                                                                                                    
                                                                                                    
                                                                                                    
                                                                                                    
                                                                                                    
                                                                                                    
                                                                                                    
                                                                                                    
                                                                                                    
                                                                                                    
                                                                                                    
                                                                                                    
                                                                                                    
                                                                                                    
                                                                                                    
                                                                                                    
                           
<?xpacket end="w"?></metadata>
<defs>
    <style>
      .cls-1 {
        filter: url(#filter);
      }

      .cls-2 {
        fill: #8486ac;
        fill-rule: evenodd;
      }
    </style>
    <filter id="filter" filterUnits="userSpaceOnUse">
      <feFlood result="flood" flood-color="#1d0068"/>
      <feComposite result="composite" operator="in" in2="SourceGraphic"/>
      <feBlend result="blend" in2="SourceGraphic"/>
    </filter>
  </defs>
  <g id="RRSS" class="cls-1">
    <path id="FB" class="cls-2" d="M14.241,8.125a0.166,0.166,0,0,1,.079-0.016h1.663a0.56,0.56,0,0,0,.555-0.564v-2.6a0.56,0.56,0,0,0-.553-0.565l-2.295-.01a3.489,3.489,0,0,0-3.679,3.742V9.281H9.095a0.56,0.56,0,0,0-.555.565v2.676a0.56,0.56,0,0,0,.555.564h0.917v7.049a0.56,0.56,0,0,0,.555.565h3.1a0.56,0.56,0,0,0,.555-0.565V13.087h1.488a0.559,0.559,0,0,0,.552-0.507L16.53,9.907a0.571,0.571,0,0,0-.14-0.436,0.551,0.551,0,0,0-.412-0.186h-1.76V8.274A0.344,0.344,0,0,1,14.241,8.125Zm-0.578,2.289h1.7l-0.157,1.544H13.663a0.56,0.56,0,0,0-.555.565v7.049H11.122V12.522a0.56,0.56,0,0,0-.555-0.565H9.65V10.41h0.917a0.56,0.56,0,0,0,.555-0.564V8.115A2.38,2.38,0,0,1,13.689,5.5l1.74,0.008V6.98H14.32a1.187,1.187,0,0,0-1.212,1.293V9.849A0.56,0.56,0,0,0,13.663,10.414ZM21.478,25H3.531A3.537,3.537,0,0,1,0,21.469V3.535A3.536,3.536,0,0,1,3.531,0H21.478a3.536,3.536,0,0,1,3.531,3.533V21.469A3.536,3.536,0,0,1,21.478,25ZM3.531,1.089A2.451,2.451,0,0,0,1.08,3.535V21.469a2.451,2.451,0,0,0,2.451,2.445H21.478a2.451,2.451,0,0,0,2.451-2.445V3.535a2.451,2.451,0,0,0-2.451-2.445H3.531Z"/>
  </g>
</svg>
