<?xml version="1.0" encoding="utf-8"?>
<!-- Generator: Adobe Illustrator 21.1.0, SVG Export Plug-In . SVG Version: 6.00 Build 0)  -->
<svg version="1.1" id="Layer_1" xmlns="http://www.w3.org/2000/svg" xmlns:xlink="http://www.w3.org/1999/xlink" x="0px" y="0px"
	 viewBox="0 0 30 30" style="enable-background:new 0 0 30 30;" xml:space="preserve">
<style type="text/css">
	.st0{fill:#0AF78B;}
</style>
<path class="st0" d="M25.8,30H4.2C1.9,30,0,28.1,0,25.8V4.3C0,1.9,1.9,0,4.2,0h21.5C28.1,0,30,1.9,30,4.3v21.5
	C30,28.1,28.1,30,25.8,30z M4.2,1.3c-1.6,0-2.9,1.3-2.9,2.9v21.5c0,1.6,1.3,2.9,2.9,2.9h21.5c1.6,0,2.9-1.3,2.9-2.9V4.3
	c0-1.6-1.3-2.9-2.9-2.9C25.8,1.3,4.2,1.3,4.2,1.3z M10.7,24L10.7,24c-0.2,0-0.4-0.1-0.5-0.3l-4.5-6.6l0,0c-0.2-0.4-0.4-0.8-0.4-1.2
	c0-0.9,0.6-1.7,1.5-2c0.9-0.3,1.8,0,2.3,0.8l1.8,2.6l9-11.7c0.5-0.7,1.4-1,2.3-0.7c0.8,0.3,1.4,1.1,1.4,2c0,0.5-0.2,0.9-0.4,1.3
	L11.2,23.8C11.1,23.9,10.9,24,10.7,24L10.7,24z M6.7,16.4l4,5.9L22.2,7.5c0.1-0.1,0.2-0.3,0.2-0.5c0-0.4-0.2-0.7-0.6-0.8
	c-0.3-0.1-0.7,0-0.9,0.3l-9.5,12.3c-0.2,0.3-0.6,0.3-0.9,0.1c-0.1,0-0.1-0.1-0.1-0.1l-2.3-3.3c-0.2-0.3-0.6-0.4-0.9-0.3
	c-0.4,0.1-0.6,0.4-0.6,0.8C6.6,16.1,6.6,16.3,6.7,16.4L6.7,16.4L6.7,16.4z"/>
</svg>
