<?xml version="1.0" encoding="utf-8"?>
<!-- Generator: Adobe Illustrator 21.1.0, SVG Export Plug-In . SVG Version: 6.00 Build 0)  -->
<svg version="1.1" id="BARRAS" xmlns="http://www.w3.org/2000/svg" xmlns:xlink="http://www.w3.org/1999/xlink" x="0px" y="0px"
	 viewBox="0 0 149.5 85" style="enable-background:new 0 0 149.5 85;" xml:space="preserve">
<style type="text/css">
	.st0{fill:#FFFFFF;}
	.st1{fill-rule:evenodd;clip-rule:evenodd;fill:url(#SVGID_1_);}
	.st2{fill:#2BC27D;}
	.st3{fill:none;enable-background:new    ;}
</style>
<path class="st0" d="M145.9,9.9c1-2.8,2.1-6.1,3.3-9.9H0v85h44.3C93.5,85,128.9,57.6,145.9,9.9z"/>
<g>
	<linearGradient id="SVGID_1_" gradientUnits="userSpaceOnUse" x1="38.818" y1="64.8052" x2="80.9319" y2="18.033">
		<stop  offset="8.202770e-02" style="stop-color:#00BAFF"/>
		<stop  offset="0.3389" style="stop-color:#1050A9"/>
		<stop  offset="0.5445" style="stop-color:#1D0068"/>
	</linearGradient>
	<path class="st1" d="M63,43.6L54.7,50l6.5-1.1c-1.8,5-3.4,9.7-4.7,13.1c-1.4,3.7-4.6,5.9-8.6,5.9c-2.2,0-4.1,0-4.1,0l15-42.4
		c1-2.9,4.2-5.3,7.7-5.3h4.7C71.3,20.2,67.2,31.8,63,43.6z"/>
	<path class="st2" d="M69.2,50.7c4.6,0,9.3-1.2,13.1-3.9c3.9-2.7,6.8-6.9,8.1-11.5c0.6-2.1,0.8-4.4,0.3-6.6
		c-0.2-0.8-0.5-1.5-0.7-2.2c-0.6-1.2-1.4-2.3-2.5-3.2c-1.2-1.2-2.7-1.9-4.2-2.4c-1.6-0.5-3.4-0.7-5.1-0.6c-4.4,0-3.7,0-3.7,0
		L65.4,46l-10.7,3.7l-0.4,1C54.4,50.7,66.8,50.7,69.2,50.7z"/>
</g>
</svg>
