<svg xmlns="http://www.w3.org/2000/svg" width="25" height="25" viewBox="0 0 25 25">
  <metadata><?xpacket begin="﻿" id="W5M0MpCehiHzreSzNTczkc9d"?>
<x:xmpmeta xmlns:x="adobe:ns:meta/" x:xmptk="Adobe XMP Core 5.6-c138 79.159824, 2016/09/14-01:09:01        ">
   <rdf:RDF xmlns:rdf="http://www.w3.org/1999/02/22-rdf-syntax-ns#">
      <rdf:Description rdf:about=""/>
   </rdf:RDF>
</x:xmpmeta>
                                                                                                    
                                                                                                    
                                                                                                    
                                                                                                    
                                                                                                    
                                                                                                    
                                                                                                    
                                                                                                    
                                                                                                    
                                                                                                    
                                                                                                    
                                                                                                    
                                                                                                    
                                                                                                    
                                                                                                    
                                                                                                    
                                                                                                    
                                                                                                    
                                                                                                    
                                                                                                    
                           
<?xpacket end="w"?></metadata>
<defs>
    <style>
      .cls-1 {
        fill: #1d0068;
        fill-rule: evenodd;
      }
    </style>
  </defs>
  <path id="Icono_cerrar_sesion" data-name="Icono cerrar sesion" class="cls-1" d="M16.065,7.4a0.562,0.562,0,0,0-.78.129,0.552,0.552,0,0,0,.13.773,5.884,5.884,0,1,1-6.83,0,0.552,0.552,0,0,0,.13-0.774A0.562,0.562,0,0,0,7.935,7.4,7,7,0,1,0,16.065,7.4ZM12,12.09a0.557,0.557,0,0,0,.559-0.554V5.554a0.559,0.559,0,0,0-1.118,0v5.981A0.557,0.557,0,0,0,12,12.09ZM21.467,25H3.529A3.536,3.536,0,0,1,0,21.468V3.529A3.536,3.536,0,0,1,3.529-.005H21.467A3.536,3.536,0,0,1,25,3.529V21.468A3.536,3.536,0,0,1,21.467,25ZM3.529,1.082a2.451,2.451,0,0,0-2.45,2.446V21.468a2.451,2.451,0,0,0,2.45,2.446H21.467a2.45,2.45,0,0,0,2.45-2.446V3.529a2.451,2.451,0,0,0-2.45-2.446H3.529Z"/>
</svg>
