<?xml version="1.0" encoding="utf-8"?>
<!-- Generator: Adobe Illustrator 21.1.0, SVG Export Plug-In . SVG Version: 6.00 Build 0)  -->
<svg version="1.1" id="Layer_1" xmlns="http://www.w3.org/2000/svg" xmlns:xlink="http://www.w3.org/1999/xlink" x="0px" y="0px"
	 viewBox="0 0 170 85" style="enable-background:new 0 0 170 85;" xml:space="preserve">
<style type="text/css">
	.st0{fill-rule:evenodd;clip-rule:evenodd;fill:#FFFFFF;}
	.st1{fill-rule:evenodd;clip-rule:evenodd;fill:url(#SVGID_1_);}
	.st2{fill:#2BC27D;}
</style>
<path class="st0" d="M165.5,14.5c1.3-3.6,2.8-8.2,4.5-13.6V0H0v85h70.2C116.3,85,149.6,59.2,165.5,14.5z"/>
<g>
	<linearGradient id="SVGID_1_" gradientUnits="userSpaceOnUse" x1="37.3585" y1="62.0366" x2="77.0231" y2="17.9846">
		<stop  offset="8.202770e-02" style="stop-color:#00BAFF"/>
		<stop  offset="0.3389" style="stop-color:#1050A9"/>
		<stop  offset="0.5445" style="stop-color:#1D0068"/>
	</linearGradient>
	<path class="st1" d="M60.1,42.1l-7.9,6l6.1-1.1c-1.7,4.7-3.2,9.1-4.4,12.4c-1.3,3.5-4.3,5.6-8.1,5.6c-2,0-3.8,0-3.8,0l14.1-40
		c1-2.8,3.9-5,7.2-5h4.5C67.9,20,64.1,31,60.1,42.1z"/>
	<path class="st2" d="M66,48.8c4.3,0,8.7-1.1,12.3-3.6c3.7-2.5,6.4-6.5,7.6-10.8c0.6-2,0.7-4.2,0.3-6.2c-0.2-0.7-0.4-1.4-0.7-2.1
		c-0.6-1.2-1.4-2.2-2.3-3.1c-1.1-1.1-2.5-1.8-4-2.3c-1.5-0.5-3.2-0.6-4.8-0.6c-4.2,0-3.4,0-3.4,0l-8.6,24.3l-10.1,3.5L52,48.8
		C52,48.8,63.7,48.8,66,48.8z"/>
</g>
</svg>
