<svg xmlns="http://www.w3.org/2000/svg" width="50" height="50" viewBox="0 0 50 50">
  <metadata><?xpacket begin="﻿" id="W5M0MpCehiHzreSzNTczkc9d"?>
<x:xmpmeta xmlns:x="adobe:ns:meta/" x:xmptk="Adobe XMP Core 5.6-c138 79.159824, 2016/09/14-01:09:01        ">
   <rdf:RDF xmlns:rdf="http://www.w3.org/1999/02/22-rdf-syntax-ns#">
      <rdf:Description rdf:about=""/>
   </rdf:RDF>
</x:xmpmeta>
                                                                                                    
                                                                                                    
                                                                                                    
                                                                                                    
                                                                                                    
                                                                                                    
                                                                                                    
                                                                                                    
                                                                                                    
                                                                                                    
                                                                                                    
                                                                                                    
                                                                                                    
                                                                                                    
                                                                                                    
                                                                                                    
                                                                                                    
                                                                                                    
                                                                                                    
                                                                                                    
                           
<?xpacket end="w"?></metadata>
<defs>
    <style>
      .cls-1 {
        fill: #fff;
        fill-rule: evenodd;
      }
    </style>
  </defs>
  <path class="cls-1" d="M45.789,0H4.21A4.215,4.215,0,0,0,0,4.21V45.789A4.215,4.215,0,0,0,4.21,50H45.789A4.215,4.215,0,0,0,50,45.789V4.21A4.215,4.215,0,0,0,45.789,0Zm1.4,45.789a1.4,1.4,0,0,1-1.4,1.4H4.21a1.4,1.4,0,0,1-1.4-1.4V4.21a1.405,1.405,0,0,1,1.4-1.4H45.789a1.405,1.405,0,0,1,1.4,1.4V45.789ZM41.328,20.074a3.976,3.976,0,0,0-4.5-3.37l-2.216.318-2.536-3.63h0l-1.518-2.172a3.981,3.981,0,0,0-5.537-.982L8.4,21.848a3.981,3.981,0,0,0-.982,5.537l1.518,2.173h0l5.449,7.8a3.95,3.95,0,0,0,2.565,1.638c0.05,0.009.1,0.013,0.151,0.02a3.9,3.9,0,0,0,2.519.485l20.066-2.883a3.976,3.976,0,0,0,3.371-4.5Zm-4.169-1.055a1.637,1.637,0,0,1,1.853,1.387l0.211,1.467-1.249.179a3.965,3.965,0,0,0-.452-0.864l-1.411-2.019ZM9.741,23.765L26.358,12.154a1.639,1.639,0,0,1,2.28.4l0.849,1.214L10.185,27.26,9.337,26.046A1.64,1.64,0,0,1,9.741,23.765Zm1.784,5.412,19.3-13.488L35.6,22.528a1.64,1.64,0,0,1-.4,2.281L18.584,36.42a1.637,1.637,0,0,1-2.28-.4Zm28.907,4.483a1.626,1.626,0,0,1-1.078.639L22.167,36.769l8.165-5.705a2.249,2.249,0,0,0,2.644,2.268,2.294,2.294,0,0,0,.985-0.4,2.777,2.777,0,0,1-.762-3.876l3.342-2.335h0a3.955,3.955,0,0,0,1.583-2.332l1.433-.206,1.186,8.258A1.627,1.627,0,0,1,40.432,33.661ZM35.18,28.318a2.325,2.325,0,1,0,2.631,1.97A2.325,2.325,0,0,0,35.18,28.318Zm-3.32-3.37a2.325,2.325,0,1,0-3.237-.574A2.325,2.325,0,0,0,31.86,24.948Zm-2.373,1.658a2.3,2.3,0,0,0,.7-0.8,2.779,2.779,0,0,1-2.375-3.4,2.3,2.3,0,0,0-.989.385A2.324,2.324,0,1,0,29.488,26.606Z"/>
</svg>
