<svg xmlns="http://www.w3.org/2000/svg" xmlns:xlink="http://www.w3.org/1999/xlink" width="25" height="25" viewBox="0 0 25 25">
  <metadata><?xpacket begin="﻿" id="W5M0MpCehiHzreSzNTczkc9d"?>
<x:xmpmeta xmlns:x="adobe:ns:meta/" x:xmptk="Adobe XMP Core 5.6-c138 79.159824, 2016/09/14-01:09:01        ">
   <rdf:RDF xmlns:rdf="http://www.w3.org/1999/02/22-rdf-syntax-ns#">
      <rdf:Description rdf:about=""/>
   </rdf:RDF>
</x:xmpmeta>
                                                                                                    
                                                                                                    
                                                                                                    
                                                                                                    
                                                                                                    
                                                                                                    
                                                                                                    
                                                                                                    
                                                                                                    
                                                                                                    
                                                                                                    
                                                                                                    
                                                                                                    
                                                                                                    
                                                                                                    
                                                                                                    
                                                                                                    
                                                                                                    
                                                                                                    
                                                                                                    
                           
<?xpacket end="w"?></metadata>
<defs>
    <style>
      .cls-1 {
        filter: url(#filter);
      }

      .cls-2 {
        fill: #8486ac;
        fill-rule: evenodd;
      }
    </style>
    <filter id="filter" filterUnits="userSpaceOnUse">
      <feFlood result="flood" flood-color="#1d0068"/>
      <feComposite result="composite" operator="in" in2="SourceGraphic"/>
      <feBlend result="blend" in2="SourceGraphic"/>
    </filter>
  </defs>
  <g id="RRSS" class="cls-1">
    <path id="TW" class="cls-2" d="M5.006,17.365a0.82,0.82,0,0,0-.79.62,0.845,0.845,0,0,0,.386.933,9.728,9.728,0,0,0,4.951,1.358,9.834,9.834,0,0,0,4.226-.914A9.388,9.388,0,0,0,16.884,17a10.5,10.5,0,0,0,2.535-6.755l0.011-.071a7.331,7.331,0,0,0,1.458-1.628,0.749,0.749,0,0,0-.049-0.894A0.727,0.727,0,0,0,20.423,7.4q0.068-.164.121-0.334A0.747,0.747,0,0,0,20.3,6.255a0.718,0.718,0,0,0-.83-0.058,5.644,5.644,0,0,1-1.446.618,3.965,3.965,0,0,0-3.8-.767,3.879,3.879,0,0,0-2.587,2.814,4.411,4.411,0,0,0-.117.915A8.3,8.3,0,0,1,6.289,6.725a0.726,0.726,0,0,0-1.2.1A4.09,4.09,0,0,0,4.9,10.5l-0.01.006a0.741,0.741,0,0,0-.365.635,4.051,4.051,0,0,0,1.216,2.948,0.749,0.749,0,0,0-.056.587A4.027,4.027,0,0,0,7.53,16.95a5.643,5.643,0,0,1-2.132.416H5.006Zm4.2-.048a0.569,0.569,0,0,0,.233-0.589,0.559,0.559,0,0,0-.453-0.437,2.86,2.86,0,0,1-2-1.4H7.072a0.558,0.558,0,0,0,.533-0.45,0.567,0.567,0,0,0-.313-0.629,2.874,2.874,0,0,1-1.6-2.052c0.1,0.033.2,0.061,0.3,0.085a0.551,0.551,0,0,0,.614-0.276,0.571,0.571,0,0,0-.1-0.675,2.885,2.885,0,0,1-.844-2.054A2.93,2.93,0,0,1,5.82,7.9,9.354,9.354,0,0,0,11.9,10.961c0.02,0,.052,0,0.072,0a0.674,0.674,0,0,0,.506-0.23,0.7,0.7,0,0,0,.169-0.538,3.167,3.167,0,0,1,.069-1.074,2.752,2.752,0,0,1,1.837-2A2.857,2.857,0,0,1,17.34,7.7a1,1,0,0,0,.9.223A6.791,6.791,0,0,0,18.955,7.7a2.837,2.837,0,0,1-.213.23,0.572,0.572,0,0,0-.106.678,0.547,0.547,0,0,0,.529.294q-0.208.208-.435,0.4a1.155,1.155,0,0,0-.421.895v0.053a9.357,9.357,0,0,1-2.258,6.009,8.275,8.275,0,0,1-2.738,2.088,8.75,8.75,0,0,1-3.759.809,8.621,8.621,0,0,1-3.389-.7A6.729,6.729,0,0,0,9.209,17.318ZM21.466,25H3.519A3.537,3.537,0,0,1-.013,21.469V3.535A3.536,3.536,0,0,1,3.519,0H21.466A3.536,3.536,0,0,1,25,3.535V21.469A3.536,3.536,0,0,1,21.466,25ZM3.519,1.089A2.451,2.451,0,0,0,1.068,3.535V21.469a2.451,2.451,0,0,0,2.451,2.445H21.466a2.451,2.451,0,0,0,2.451-2.445V3.535a2.451,2.451,0,0,0-2.451-2.445H3.519Z"/>
  </g>
</svg>
