<svg xmlns="http://www.w3.org/2000/svg" width="30" height="30" viewBox="0 0 30 30">
  <metadata><?xpacket begin="﻿" id="W5M0MpCehiHzreSzNTczkc9d"?>
<x:xmpmeta xmlns:x="adobe:ns:meta/" x:xmptk="Adobe XMP Core 5.6-c138 79.159824, 2016/09/14-01:09:01        ">
   <rdf:RDF xmlns:rdf="http://www.w3.org/1999/02/22-rdf-syntax-ns#">
      <rdf:Description rdf:about=""/>
   </rdf:RDF>
</x:xmpmeta>
                                                                                                    
                                                                                                    
                                                                                                    
                                                                                                    
                                                                                                    
                                                                                                    
                                                                                                    
                                                                                                    
                                                                                                    
                                                                                                    
                                                                                                    
                                                                                                    
                                                                                                    
                                                                                                    
                                                                                                    
                                                                                                    
                                                                                                    
                                                                                                    
                                                                                                    
                                                                                                    
                           
<?xpacket end="w"?></metadata>
<defs>
    <style>
      .cls-1 {
        fill: #fd001e;
        fill-rule: evenodd;
      }
    </style>
  </defs>
  <path class="cls-1" d="M20.589,24.576a2,2,0,0,1-1.594-.8l-4.253-5.537-4.253,5.537a1.994,1.994,0,0,1-2.267.685,2.049,2.049,0,0,1-1.38-1.955,2.109,2.109,0,0,1,.433-1.288l4.878-6.35L7.274,8.518A2.109,2.109,0,0,1,6.842,7.23a2.048,2.048,0,0,1,1.38-1.954,2,2,0,0,1,2.267.686L14.742,11.5l4.253-5.537a2,2,0,0,1,2.267-.686,2.048,2.048,0,0,1,1.38,1.954,2.109,2.109,0,0,1-.433,1.288l-4.878,6.351,4.878,6.35a2.109,2.109,0,0,1,.433,1.288A2.06,2.06,0,0,1,20.589,24.576Zm-5.847-7.922a0.59,0.59,0,0,1,.468.232l4.721,6.146a0.825,0.825,0,0,0,.947.287,0.848,0.848,0,0,0,.577-0.817,0.881,0.881,0,0,0-.181-0.538L16.11,15.24a0.613,0.613,0,0,1,0-.744l5.164-6.723a0.88,0.88,0,0,0,.181-0.538,0.846,0.846,0,0,0-.577-0.817,0.824,0.824,0,0,0-.948.286L15.21,12.851a0.588,0.588,0,0,1-.936,0L9.553,6.705a0.824,0.824,0,0,0-.948-0.286,0.846,0.846,0,0,0-.577.817,0.88,0.88,0,0,0,.181.538L13.374,14.5a0.613,0.613,0,0,1,0,.744L8.21,21.963a0.88,0.88,0,0,0-.181.538,0.848,0.848,0,0,0,.577.817,0.825,0.825,0,0,0,.947-0.287l4.721-6.146A0.59,0.59,0,0,1,14.742,16.654ZM25.773,30.015H4.237A4.244,4.244,0,0,1,0,25.776V4.252A4.244,4.244,0,0,1,4.237.012H25.773a4.244,4.244,0,0,1,4.238,4.24V25.776A4.244,4.244,0,0,1,25.773,30.015ZM4.237,1.317A2.941,2.941,0,0,0,1.3,4.252V25.776A2.941,2.941,0,0,0,4.237,28.71H25.773a2.941,2.941,0,0,0,2.941-2.934V4.252a2.941,2.941,0,0,0-2.941-2.935H4.237Z"/>
</svg>
