<svg xmlns="http://www.w3.org/2000/svg" width="25" height="25" viewBox="0 0 25 25">
  <metadata><?xpacket begin="﻿" id="W5M0MpCehiHzreSzNTczkc9d"?>
<x:xmpmeta xmlns:x="adobe:ns:meta/" x:xmptk="Adobe XMP Core 5.6-c138 79.159824, 2016/09/14-01:09:01        ">
   <rdf:RDF xmlns:rdf="http://www.w3.org/1999/02/22-rdf-syntax-ns#">
      <rdf:Description rdf:about=""/>
   </rdf:RDF>
</x:xmpmeta>
                                                                                                    
                                                                                                    
                                                                                                    
                                                                                                    
                                                                                                    
                                                                                                    
                                                                                                    
                                                                                                    
                                                                                                    
                                                                                                    
                                                                                                    
                                                                                                    
                                                                                                    
                                                                                                    
                                                                                                    
                                                                                                    
                                                                                                    
                                                                                                    
                                                                                                    
                                                                                                    
                           
<?xpacket end="w"?></metadata>
<defs>
    <style>
      .cls-1 {
        fill: #1d0068;
        fill-rule: evenodd;
      }
    </style>
  </defs>
  <path id="Icono_Cuenta" data-name="Icono Cuenta" class="cls-1" d="M21.467,25H3.529A3.536,3.536,0,0,1,0,21.468V3.529A3.536,3.536,0,0,1,3.529-.005H21.467A3.536,3.536,0,0,1,25,3.529V21.468A3.536,3.536,0,0,1,21.467,25ZM3.529,1.083a2.451,2.451,0,0,0-2.45,2.446V21.468a2.451,2.451,0,0,0,2.45,2.446H21.467a2.451,2.451,0,0,0,2.45-2.446V3.529a2.45,2.45,0,0,0-2.45-2.446H3.529ZM12,16.9a0.789,0.789,0,1,0,.795.789A0.792,0.792,0,0,0,12,16.9Zm1.708-3.453L13.4,12.9l0.436-1.214a0.544,0.544,0,0,0-.013-0.4L13.287,10.06l0.566-1.276a0.543,0.543,0,0,0-.037-0.51l-0.7-1.12L13.82,5.992a0.545,0.545,0,0,0-.159-0.734L11.97,4.1a0.554,0.554,0,0,0-.806.2L10.086,6.409a0.545,0.545,0,0,0-.06.248v6.925A4,4,0,1,0,13.707,13.448ZM12,19.9a2.868,2.868,0,0,1-1.193-5.488,0.547,0.547,0,0,0,.324-0.5V6.787l0.732-1.432,0.745,0.511L11.993,6.875a0.543,0.543,0,0,0,0,.573l0.729,1.159L12.181,9.837s0,0.006,0,.009a0.556,0.556,0,0,0-.02.061c0,0.014-.01.028-0.012,0.042s0,0.038-.007.057,0,0.033,0,.049a0.515,0.515,0,0,0,0,.052,0.526,0.526,0,0,0,.006.054c0,0.015.009,0.03,0.013,0.045a0.534,0.534,0,0,0,.018.058s0,0.006,0,.009l0.543,1.252-0.448,1.247a0.544,0.544,0,0,0,.039.453l0.521,0.914s0.006,0.008.009,0.012a0.547,0.547,0,0,0,.081.106l0.008,0.006a0.561,0.561,0,0,0,.1.072l0.036,0.019c0.014,0.007.026,0.016,0.04,0.021A2.869,2.869,0,0,1,12,19.9Z"/>
  <path id="Icono_ayuda" data-name="Icono ayuda" class="cls-1" d="M21.467,65H3.529A3.536,3.536,0,0,1,0,61.468V43.529a3.536,3.536,0,0,1,3.53-3.534H21.467A3.536,3.536,0,0,1,25,43.529V61.468A3.536,3.536,0,0,1,21.467,65ZM3.529,41.082a2.451,2.451,0,0,0-2.45,2.446V61.468a2.451,2.451,0,0,0,2.45,2.446H21.467a2.45,2.45,0,0,0,2.45-2.446V43.529a2.45,2.45,0,0,0-2.45-2.446H3.529Zm8.258,19.194a0.722,0.722,0,1,1,.722.721A0.721,0.721,0,0,1,11.788,60.276ZM12.5,58.512a0.6,0.6,0,0,1-.6-0.6V53.356a0.6,0.6,0,0,1,.6-0.6,3.279,3.279,0,1,0-3.293-3.278,0.6,0.6,0,0,1-1.205,0,4.5,4.5,0,1,1,5.1,4.438v4A0.6,0.6,0,0,1,12.5,58.512Z"/>
  <path id="Icono_cerrar_sesion" data-name="Icono cerrar sesion" class="cls-1" d="M16.065,86.4a0.562,0.562,0,0,0-.78.129,0.552,0.552,0,0,0,.13.773,5.884,5.884,0,1,1-6.83,0,0.552,0.552,0,0,0,.13-0.774,0.562,0.562,0,0,0-.78-0.129A7,7,0,1,0,16.065,86.4ZM12,91.09a0.557,0.557,0,0,0,.559-0.554V84.554a0.559,0.559,0,0,0-1.118,0v5.981A0.557,0.557,0,0,0,12,91.09ZM21.467,104H3.529A3.537,3.537,0,0,1,0,100.468V82.529a3.536,3.536,0,0,1,3.53-3.534H21.467A3.536,3.536,0,0,1,25,82.529v17.94A3.536,3.536,0,0,1,21.467,104ZM3.529,80.082a2.451,2.451,0,0,0-2.45,2.446v17.94a2.451,2.451,0,0,0,2.45,2.446H21.467a2.451,2.451,0,0,0,2.45-2.446V82.529a2.45,2.45,0,0,0-2.45-2.446H3.529Z"/>
</svg>
