<svg id="Directorio" xmlns="http://www.w3.org/2000/svg" width="55" height="55" viewBox="0 0 55 55">
  <metadata><?xpacket begin="﻿" id="W5M0MpCehiHzreSzNTczkc9d"?>
<x:xmpmeta xmlns:x="adobe:ns:meta/" x:xmptk="Adobe XMP Core 5.6-c138 79.159824, 2016/09/14-01:09:01        ">
   <rdf:RDF xmlns:rdf="http://www.w3.org/1999/02/22-rdf-syntax-ns#">
      <rdf:Description rdf:about=""/>
   </rdf:RDF>
</x:xmpmeta>
                                                                                                    
                                                                                                    
                                                                                                    
                                                                                                    
                                                                                                    
                                                                                                    
                                                                                                    
                                                                                                    
                                                                                                    
                                                                                                    
                                                                                                    
                                                                                                    
                                                                                                    
                                                                                                    
                                                                                                    
                                                                                                    
                                                                                                    
                                                                                                    
                                                                                                    
                                                                                                    
                           
<?xpacket end="w"?></metadata>
<defs>
    <style>
      .cls-1 {
        fill: #1d0068;
        fill-rule: evenodd;
      }
    </style>
  </defs>
  <path id="Shape_519_copy_9" data-name="Shape 519 copy 9" class="cls-1" d="M47.228,55H7.764A7.779,7.779,0,0,1,0,47.23V7.763A7.779,7.779,0,0,1,7.764-.011H47.228a7.779,7.779,0,0,1,7.765,7.774V47.23A7.779,7.779,0,0,1,47.228,55ZM7.764,2.382a5.392,5.392,0,0,0-5.39,5.381V47.23a5.392,5.392,0,0,0,5.39,5.381H47.228a5.391,5.391,0,0,0,5.389-5.381V7.763a5.391,5.391,0,0,0-5.389-5.381H7.764Z"/>
  <path id="Shape_517_copy_2" data-name="Shape 517 copy 2" class="cls-1" d="M39.99,41.5V11.181A1.185,1.185,0,0,0,38.8,10H16.205a1.185,1.185,0,0,0-1.192,1.178V42.818A1.185,1.185,0,0,0,16.205,44H38.8a1.185,1.185,0,0,0,1.192-1.178V40.734M31.4,12.359v0.989H23.414V12.359H31.4Zm6.209,23.932V41.64H17.4V12.359h3.632v2.166A1.185,1.185,0,0,0,22.222,15.7H32.588a1.185,1.185,0,0,0,1.192-1.178V12.359h3.825V27.033M20.643,21.007H34.272a1.178,1.178,0,1,0,0-2.355H20.643A1.178,1.178,0,1,0,20.643,21.007Zm0,4.161h7.311a1.178,1.178,0,1,0,0-2.355H20.643A1.178,1.178,0,1,0,20.643,25.168Zm13.629-2.355H30.9a1.178,1.178,0,1,0,0,2.355h3.368A1.178,1.178,0,1,0,34.272,22.813ZM20.643,29.329H34.166a1.178,1.178,0,1,0,0-2.356H20.643A1.178,1.178,0,1,0,20.643,29.329Zm4.634,1.8a1.178,1.178,0,1,0,0,2.355H34.9a1.178,1.178,0,1,0,0-2.355h-9.62Zm-4.634,2.355h1.579a1.178,1.178,0,1,0,0-2.355H20.643A1.178,1.178,0,1,0,20.643,33.489Zm13.629,1.805H20.643a1.178,1.178,0,1,0,0,2.355H34.272A1.178,1.178,0,1,0,34.272,35.294Z"/>
</svg>
