<svg xmlns="http://www.w3.org/2000/svg" width="34" height="32" viewBox="0 0 34 32">
  <metadata><?xpacket begin="﻿" id="W5M0MpCehiHzreSzNTczkc9d"?>
<x:xmpmeta xmlns:x="adobe:ns:meta/" x:xmptk="Adobe XMP Core 5.6-c138 79.159824, 2016/09/14-01:09:01        ">
   <rdf:RDF xmlns:rdf="http://www.w3.org/1999/02/22-rdf-syntax-ns#">
      <rdf:Description rdf:about=""/>
   </rdf:RDF>
</x:xmpmeta>
                                                                                                    
                                                                                                    
                                                                                                    
                                                                                                    
                                                                                                    
                                                                                                    
                                                                                                    
                                                                                                    
                                                                                                    
                                                                                                    
                                                                                                    
                                                                                                    
                                                                                                    
                                                                                                    
                                                                                                    
                                                                                                    
                                                                                                    
                                                                                                    
                                                                                                    
                                                                                                    
                           
<?xpacket end="w"?></metadata>
<defs>
    <style>
      .cls-1 {
        fill: #fff;
        fill-rule: evenodd;
      }
    </style>
  </defs>
  <path class="cls-1" d="M9.615,26.235a1.393,1.393,0,1,0,1.38,1.393A1.388,1.388,0,0,0,9.615,26.235ZM29.379,14.926h-1.7V13.209a0.88,0.88,0,1,0-1.76,0v1.717h-1.7a0.888,0.888,0,0,0,0,1.776h1.7v1.717a0.88,0.88,0,1,0,1.76,0V16.7h1.7A0.888,0.888,0,0,0,29.379,14.926ZM26.8,8.549a7.232,7.232,0,0,0-6.486,4.127H19.42V3.33A3.318,3.318,0,0,0,16.121,0H3.289A3.318,3.318,0,0,0-.01,3.33V28.669A3.318,3.318,0,0,0,3.289,32H16.121a3.318,3.318,0,0,0,3.3-3.33V18.7H20.2A7.214,7.214,0,1,0,26.8,8.549ZM3.289,2.22H16.121a1.106,1.106,0,0,1,1.1,1.11V5.263H2.189V3.33A1.106,1.106,0,0,1,3.289,2.22ZM16.121,29.779H3.289a1.106,1.106,0,0,1-1.1-1.11V25.476H17.221v3.193A1.106,1.106,0,0,1,16.121,29.779Zm1.1-6.523H2.189V7.483H17.221v5.193h-2.29V11.281a0.888,0.888,0,0,0-.543-0.82,0.875,0.875,0,0,0-.959.192l-4.36,4.4a0.893,0.893,0,0,0,0,1.256l4.36,4.4a0.874,0.874,0,0,0,.959.192,0.888,0.888,0,0,0,.543-0.82V18.7h2.29v4.553ZM26.8,21.3a5.432,5.432,0,0,1-5.161-3.767,0.881,0.881,0,0,0-.836-0.609h-6.75a0.884,0.884,0,0,0-.88.888v0.123l-2.236-2.257,2.236-2.256v0.139a0.884,0.884,0,0,0,.88.888h6.84a0.88,0.88,0,0,0,.823-0.574A5.447,5.447,0,1,1,26.8,21.3Z"/>
</svg>
