<svg xmlns="http://www.w3.org/2000/svg" width="25" height="25" viewBox="0 0 25 25">
  <metadata><?xpacket begin="﻿" id="W5M0MpCehiHzreSzNTczkc9d"?>
<x:xmpmeta xmlns:x="adobe:ns:meta/" x:xmptk="Adobe XMP Core 5.6-c138 79.159824, 2016/09/14-01:09:01        ">
   <rdf:RDF xmlns:rdf="http://www.w3.org/1999/02/22-rdf-syntax-ns#">
      <rdf:Description rdf:about=""/>
   </rdf:RDF>
</x:xmpmeta>
                                                                                                    
                                                                                                    
                                                                                                    
                                                                                                    
                                                                                                    
                                                                                                    
                                                                                                    
                                                                                                    
                                                                                                    
                                                                                                    
                                                                                                    
                                                                                                    
                                                                                                    
                                                                                                    
                                                                                                    
                                                                                                    
                                                                                                    
                                                                                                    
                                                                                                    
                                                                                                    
                           
<?xpacket end="w"?></metadata>
<defs>
    <style>
      .cls-1 {
        fill: #1d0068;
        fill-rule: evenodd;
      }
    </style>
  </defs>
  <path id="Icono_ayuda" data-name="Icono ayuda" class="cls-1" d="M21.467,25H3.529A3.536,3.536,0,0,1,0,21.468V3.529A3.536,3.536,0,0,1,3.529-.005H21.467A3.536,3.536,0,0,1,25,3.529V21.468A3.536,3.536,0,0,1,21.467,25ZM3.529,1.082a2.451,2.451,0,0,0-2.45,2.446V21.468a2.451,2.451,0,0,0,2.45,2.446H21.467a2.45,2.45,0,0,0,2.45-2.446V3.529a2.451,2.451,0,0,0-2.45-2.446H3.529Zm8.258,19.194a0.722,0.722,0,1,1,.722.721A0.721,0.721,0,0,1,11.788,20.276ZM12.5,18.512a0.6,0.6,0,0,1-.6-0.6V13.356a0.6,0.6,0,0,1,.6-0.6A3.279,3.279,0,1,0,9.209,9.478,0.6,0.6,0,0,1,8,9.478a4.5,4.5,0,1,1,5.1,4.438v4A0.6,0.6,0,0,1,12.5,18.512Z"/>
</svg>
