<svg xmlns="http://www.w3.org/2000/svg" width="25" height="25" viewBox="0 0 25 25">
  <metadata><?xpacket begin="﻿" id="W5M0MpCehiHzreSzNTczkc9d"?>
<x:xmpmeta xmlns:x="adobe:ns:meta/" x:xmptk="Adobe XMP Core 5.6-c138 79.159824, 2016/09/14-01:09:01        ">
   <rdf:RDF xmlns:rdf="http://www.w3.org/1999/02/22-rdf-syntax-ns#">
      <rdf:Description rdf:about=""/>
   </rdf:RDF>
</x:xmpmeta>
                                                                                                    
                                                                                                    
                                                                                                    
                                                                                                    
                                                                                                    
                                                                                                    
                                                                                                    
                                                                                                    
                                                                                                    
                                                                                                    
                                                                                                    
                                                                                                    
                                                                                                    
                                                                                                    
                                                                                                    
                                                                                                    
                                                                                                    
                                                                                                    
                                                                                                    
                                                                                                    
                           
<?xpacket end="w"?></metadata>
<defs>
    <style>
      .cls-1 {
        fill: #1d0068;
        fill-rule: evenodd;
      }
    </style>
  </defs>
  <path id="Icono_Cuenta" data-name="Icono Cuenta" class="cls-1" d="M21.467,25H3.529A3.536,3.536,0,0,1,0,21.468V3.529A3.536,3.536,0,0,1,3.529-.005H21.467A3.536,3.536,0,0,1,25,3.529V21.468A3.536,3.536,0,0,1,21.467,25ZM3.529,1.083a2.451,2.451,0,0,0-2.45,2.446V21.468a2.451,2.451,0,0,0,2.45,2.446H21.467a2.451,2.451,0,0,0,2.45-2.446V3.529a2.45,2.45,0,0,0-2.45-2.446H3.529Z"/>
  <path id="Billetera" class="cls-1" d="M18.373,9.262h-0.82V6.335A1.054,1.054,0,0,0,16.5,5.283a0.585,0.585,0,0,0-.2.036L6.178,9.058a1.185,1.185,0,0,0-.865,1.18c0,0.013,0,.025,0,0.038s0,0.025,0,.038v7.953A1.054,1.054,0,0,0,6.365,19.32H18.373a1.054,1.054,0,0,0,1.053-1.053V10.314A1.054,1.054,0,0,0,18.373,9.262Zm-0.117,5.691H15.917a0.58,0.58,0,1,1,0-1.161h2.339v1.161ZM16.384,6.534V9.262H9ZM6.482,18.15V10.431H18.256v2.425H15.917a1.516,1.516,0,1,0,0,3.032h2.339V18.15H6.482ZM7.33,15.379v0.7a1.222,1.222,0,0,1,1.22,1.22h0.7A1.924,1.924,0,0,0,7.33,15.379Zm0-1.571v0.7A2.8,2.8,0,0,1,10.122,17.3h0.7A3.5,3.5,0,0,0,7.33,13.808Zm0-1.571v0.7A4.367,4.367,0,0,1,11.693,17.3h0.7A5.07,5.07,0,0,0,7.33,12.236Zm0.247,4.439a0.378,0.378,0,1,0,.378.378A0.378,0.378,0,0,0,7.578,16.675Zm8.056-2.506a0.288,0.288,0,1,0,.407,0A0.288,0.288,0,0,0,15.634,14.169Z"/>
</svg>
