<svg id="Prepago" xmlns="http://www.w3.org/2000/svg" width="55" height="55" viewBox="0 0 55 55">
  <metadata><?xpacket begin="﻿" id="W5M0MpCehiHzreSzNTczkc9d"?>
<x:xmpmeta xmlns:x="adobe:ns:meta/" x:xmptk="Adobe XMP Core 5.6-c138 79.159824, 2016/09/14-01:09:01        ">
   <rdf:RDF xmlns:rdf="http://www.w3.org/1999/02/22-rdf-syntax-ns#">
      <rdf:Description rdf:about=""/>
   </rdf:RDF>
</x:xmpmeta>
                                                                                                    
                                                                                                    
                                                                                                    
                                                                                                    
                                                                                                    
                                                                                                    
                                                                                                    
                                                                                                    
                                                                                                    
                                                                                                    
                                                                                                    
                                                                                                    
                                                                                                    
                                                                                                    
                                                                                                    
                                                                                                    
                                                                                                    
                                                                                                    
                                                                                                    
                                                                                                    
                           
<?xpacket end="w"?></metadata>
<defs>
    <style>
      .cls-1 {
        fill: #fff;
        fill-rule: evenodd;
      }
    </style>
  </defs>
  <path id="Shape_519_copy_11" data-name="Shape 519 copy 11" class="cls-1" d="M47.228,55H7.764A7.779,7.779,0,0,1,0,47.23V7.763A7.779,7.779,0,0,1,7.764-.011H47.228a7.779,7.779,0,0,1,7.765,7.774V47.23A7.779,7.779,0,0,1,47.228,55ZM7.764,2.382a5.392,5.392,0,0,0-5.39,5.381V47.23a5.392,5.392,0,0,0,5.39,5.381H47.228a5.391,5.391,0,0,0,5.389-5.381V7.763a5.391,5.391,0,0,0-5.389-5.381H7.764Z"/>
  <path id="Shape_515_copy_2" data-name="Shape 515 copy 2" class="cls-1" d="M25.7,37.921a1.48,1.48,0,1,0,1.484,1.48A1.483,1.483,0,0,0,25.7,37.921ZM34.1,24.53v0.9H33.195a0.943,0.943,0,1,0,0,1.887H34.1v0.9a0.946,0.946,0,0,0,1.892,0v-0.9H36.9a0.943,0.943,0,1,0,0-1.887H35.993v-0.9A0.946,0.946,0,0,0,34.1,24.53Zm2.143-10.944A3.546,3.546,0,0,0,32.7,10.049H18.9a3.546,3.546,0,0,0-3.547,3.537V40.507A3.546,3.546,0,0,0,18.9,44.045H32.7a3.546,3.546,0,0,0,3.546-3.538v-8.8a5.459,5.459,0,0,0,0-10.662v-7.46ZM29.567,26.378a5.477,5.477,0,0,0,4.313,5.339v3.04H17.721V18H33.88v3.04A5.477,5.477,0,0,0,29.567,26.378ZM18.9,12.407H32.7a1.182,1.182,0,0,1,1.182,1.179v2.054H17.721V13.587A1.182,1.182,0,0,1,18.9,12.407ZM32.7,41.686H18.9a1.182,1.182,0,0,1-1.182-1.179V37.115H33.88v3.392A1.182,1.182,0,0,1,32.7,41.686Zm5.938-15.308a3.589,3.589,0,1,1-3.589-3.58A3.589,3.589,0,0,1,38.636,26.378Z"/>
</svg>
