<svg xmlns="http://www.w3.org/2000/svg" width="40" height="40" viewBox="0 0 40 40">
  <metadata><?xpacket begin="﻿" id="W5M0MpCehiHzreSzNTczkc9d"?>
<x:xmpmeta xmlns:x="adobe:ns:meta/" x:xmptk="Adobe XMP Core 5.6-c138 79.159824, 2016/09/14-01:09:01        ">
   <rdf:RDF xmlns:rdf="http://www.w3.org/1999/02/22-rdf-syntax-ns#">
      <rdf:Description rdf:about=""/>
   </rdf:RDF>
</x:xmpmeta>
                                                                                                    
                                                                                                    
                                                                                                    
                                                                                                    
                                                                                                    
                                                                                                    
                                                                                                    
                                                                                                    
                                                                                                    
                                                                                                    
                                                                                                    
                                                                                                    
                                                                                                    
                                                                                                    
                                                                                                    
                                                                                                    
                                                                                                    
                                                                                                    
                                                                                                    
                                                                                                    
                           
<?xpacket end="w"?></metadata>
<defs>
    <style>
      .cls-1 {
        fill: #fff;
        fill-rule: evenodd;
      }
    </style>
  </defs>
  <path id="Icono_noti" data-name="Icono noti" class="cls-1" d="M34.348,40H5.647A5.658,5.658,0,0,1,0,34.349V5.646A5.658,5.658,0,0,1,5.647-.008h28.7A5.657,5.657,0,0,1,40,5.646v28.7A5.658,5.658,0,0,1,34.348,40ZM5.647,1.733a3.921,3.921,0,0,0-3.92,3.913v28.7a3.921,3.921,0,0,0,3.92,3.914h28.7a3.921,3.921,0,0,0,3.919-3.914V5.646a3.921,3.921,0,0,0-3.919-3.913H5.647ZM31.338,27.817l-2.8-6.029a0.939,0.939,0,0,0,.033-0.236V15.717a8.349,8.349,0,0,0-8.23-8.445,8.349,8.349,0,0,0-8.23,8.445v5.835a0.936,0.936,0,0,0,.034.237L9.371,27.82a0.942,0.942,0,0,0,.054.887,0.893,0.893,0,0,0,.758.428h5.858a4.387,4.387,0,0,0,8.628,0h5.858a0.894,0.894,0,0,0,.759-0.43A0.943,0.943,0,0,0,31.338,27.817Zm-11-18.7a6.527,6.527,0,0,1,6.434,6.6v5.429H13.908V15.717A6.527,6.527,0,0,1,20.342,9.115Zm0.014,21.769a2.619,2.619,0,0,1-2.447-1.749H22.8A2.619,2.619,0,0,1,20.356,30.884Zm3.609-3.592a0.471,0.471,0,0,0-.195,0H16.942a0.471,0.471,0,0,0-.195,0H11.6l1.979-4.3H27.107l2,4.3H23.964Z"/>
</svg>
