<svg id="Recientes" xmlns="http://www.w3.org/2000/svg" width="55" height="55" viewBox="0 0 55 55">
  <metadata><?xpacket begin="﻿" id="W5M0MpCehiHzreSzNTczkc9d"?>
<x:xmpmeta xmlns:x="adobe:ns:meta/" x:xmptk="Adobe XMP Core 5.6-c138 79.159824, 2016/09/14-01:09:01        ">
   <rdf:RDF xmlns:rdf="http://www.w3.org/1999/02/22-rdf-syntax-ns#">
      <rdf:Description rdf:about=""/>
   </rdf:RDF>
</x:xmpmeta>
                                                                                                    
                                                                                                    
                                                                                                    
                                                                                                    
                                                                                                    
                                                                                                    
                                                                                                    
                                                                                                    
                                                                                                    
                                                                                                    
                                                                                                    
                                                                                                    
                                                                                                    
                                                                                                    
                                                                                                    
                                                                                                    
                                                                                                    
                                                                                                    
                                                                                                    
                                                                                                    
                           
<?xpacket end="w"?></metadata>
<defs>
    <style>
      .cls-1 {
        fill: #fff;
        fill-rule: evenodd;
      }
    </style>
  </defs>
  <path id="Shape_519_copy_8" data-name="Shape 519 copy 8" class="cls-1" d="M47.228,55H7.764A7.779,7.779,0,0,1,0,47.23V7.763A7.779,7.779,0,0,1,7.764-.011H47.228a7.779,7.779,0,0,1,7.766,7.774V47.23A7.779,7.779,0,0,1,47.228,55ZM7.764,2.382a5.392,5.392,0,0,0-5.39,5.381V47.23a5.392,5.392,0,0,0,5.39,5.381H47.228a5.391,5.391,0,0,0,5.389-5.381V7.763a5.391,5.391,0,0,0-5.389-5.381H7.764Z"/>
  <path class="cls-1" d="M10,27.007A17,17,0,1,0,27,10,17.024,17.024,0,0,0,10,27.007Zm31.662,0A14.658,14.658,0,1,1,27,12.349,14.674,14.674,0,0,1,41.662,27.007ZM26.914,15.926A1.173,1.173,0,0,0,25.741,17.1l0.005,11.558a1.173,1.173,0,0,0,1.173,1.173h6.567a1.173,1.173,0,1,0,0-2.347H28.093l0-10.385a1.173,1.173,0,0,0-1.174-1.173h0Z"/>
</svg>
