<svg id="Frecuentes" xmlns="http://www.w3.org/2000/svg" width="55" height="55" viewBox="0 0 55 55">
  <metadata><?xpacket begin="﻿" id="W5M0MpCehiHzreSzNTczkc9d"?>
<x:xmpmeta xmlns:x="adobe:ns:meta/" x:xmptk="Adobe XMP Core 5.6-c138 79.159824, 2016/09/14-01:09:01        ">
   <rdf:RDF xmlns:rdf="http://www.w3.org/1999/02/22-rdf-syntax-ns#">
      <rdf:Description rdf:about=""/>
   </rdf:RDF>
</x:xmpmeta>
                                                                                                    
                                                                                                    
                                                                                                    
                                                                                                    
                                                                                                    
                                                                                                    
                                                                                                    
                                                                                                    
                                                                                                    
                                                                                                    
                                                                                                    
                                                                                                    
                                                                                                    
                                                                                                    
                                                                                                    
                                                                                                    
                                                                                                    
                                                                                                    
                                                                                                    
                                                                                                    
                           
<?xpacket end="w"?></metadata>
<defs>
    <style>
      .cls-1 {
        fill: #fff;
        fill-rule: evenodd;
      }
    </style>
  </defs>
  <path class="cls-1" d="M39.717,25.833a6.714,6.714,0,0,0-6.329-11.649,8.068,8.068,0,0,0-12.831-.019,6.723,6.723,0,0,0-6.276,11.668A10.465,10.465,0,0,0,8,35.419V38.63a1.212,1.212,0,0,0,1.211,1.215h4.913v1.938A1.213,1.213,0,0,0,15.339,43H38.594A1.213,1.213,0,0,0,39.8,41.782V39.844h4.98a1.212,1.212,0,0,0,1.211-1.215V35.419A10.465,10.465,0,0,0,39.717,25.833Zm-4.141-9.6a4.307,4.307,0,0,1,0,8.615,4.252,4.252,0,0,1-2.265-.652,8.083,8.083,0,0,0,1.269-7.842A4.3,4.3,0,0,1,35.576,16.233Zm-8.61-2.805a5.71,5.71,0,1,1-5.692,5.71A5.707,5.707,0,0,1,26.966,13.428Zm-8.543,2.805a4.292,4.292,0,0,1,.935.107,8.086,8.086,0,0,0,1.285,7.885,4.245,4.245,0,0,1-2.22.623A4.307,4.307,0,0,1,18.423,16.233Zm-8,19.185a7.974,7.974,0,0,1,8.825-7.977,12.879,12.879,0,0,0-5.114,9.974h-3.71v-2Zm26.957,5.149H16.55V37.727a10.445,10.445,0,0,1,10.417-10.45,10.321,10.321,0,0,1,4.054.821,10.437,10.437,0,0,1,6.363,9.629v2.841Zm6.19-3.152h-3.78a12.858,12.858,0,0,0-5.5-10.262,6.677,6.677,0,0,0,.719.1,1.2,1.2,0,0,0,.565.146,8.019,8.019,0,0,1,8,8.023v2Z"/>
  <path id="Shape_519_copy_8" data-name="Shape 519 copy 8" class="cls-1" d="M47.228,55H7.764A7.779,7.779,0,0,1,0,47.23V7.763A7.779,7.779,0,0,1,7.764-.011H47.228a7.779,7.779,0,0,1,7.766,7.774V47.23A7.779,7.779,0,0,1,47.228,55ZM7.764,2.382a5.392,5.392,0,0,0-5.39,5.381V47.23a5.392,5.392,0,0,0,5.39,5.381H47.228a5.391,5.391,0,0,0,5.389-5.381V7.763a5.391,5.391,0,0,0-5.389-5.381H7.764Z"/>
</svg>
