<svg xmlns="http://www.w3.org/2000/svg" width="125" height="39" viewBox="0 0 125 39">
  <metadata><?xpacket begin="﻿" id="W5M0MpCehiHzreSzNTczkc9d"?>
<x:xmpmeta xmlns:x="adobe:ns:meta/" x:xmptk="Adobe XMP Core 5.6-c138 79.159824, 2016/09/14-01:09:01        ">
   <rdf:RDF xmlns:rdf="http://www.w3.org/1999/02/22-rdf-syntax-ns#">
      <rdf:Description rdf:about=""/>
   </rdf:RDF>
</x:xmpmeta>
                                                                                                    
                                                                                                    
                                                                                                    
                                                                                                    
                                                                                                    
                                                                                                    
                                                                                                    
                                                                                                    
                                                                                                    
                                                                                                    
                                                                                                    
                                                                                                    
                                                                                                    
                                                                                                    
                                                                                                    
                                                                                                    
                                                                                                    
                                                                                                    
                                                                                                    
                                                                                                    
                           
<?xpacket end="w"?></metadata>
<defs>
    <style>
      .cls-1 {
        fill: #fff;
        fill-rule: evenodd;
      }
    </style>
  </defs>
  <path id="Logo_copy" data-name="Logo copy" class="cls-1" d="M124.966,9.79L117.029,31.5h-5.258L119.647,9.79a0.836,0.836,0,0,1,.729-0.618h4.151A0.424,0.424,0,0,1,124.966,9.79ZM109.236,31.5h-5.259L111.854,9.79a0.836,0.836,0,0,1,.729-0.618h4.15a0.425,0.425,0,0,1,.44.618Zm-7.877-.3a0.478,0.478,0,0,1-.28.3H96.431a0.22,0.22,0,0,1-.1-0.3l0.343-.985H96.637A6.485,6.485,0,0,1,94.446,31.5H89.988A3.088,3.088,0,0,1,88.43,27.91c0.726-3.971,3.86-6.1,8.631-6.1h2.451a0.31,0.31,0,0,0,.3-0.2l0.2-.558c0.451-1.214.122-1.739-2.362-1.739a7.545,7.545,0,0,0-3.664.919c-0.214.1-.339,0.066-0.368-0.131L93,17.211a0.478,0.478,0,0,1,.286-0.492,13.848,13.848,0,0,1,6.594-1.575c4.8,0,6.756,1.477,5.124,5.94ZM98.33,25.055H96.467c-1.666,0-2.571.656-2.793,1.871-0.132.722,0.307,1.181,1.385,1.181,1.6,0,2.624-.591,3.042-1.8l0.355-1.05C98.514,25.121,98.461,25.055,98.33,25.055Zm24.253,1.913a2.288,2.288,0,1,1-2.273,2.282A2.247,2.247,0,0,1,122.583,26.968Zm0,4.11a1.822,1.822,0,1,0-1.785-1.828A1.765,1.765,0,0,0,122.583,31.078Zm-0.857-3.106h0.987a0.783,0.783,0,0,1,.928.777,0.72,0.72,0,0,1-.476.717l0.5,0.956c0.024,0.048,0,.084-0.06.084h-0.428a0.111,0.111,0,0,1-.107-0.084l-0.464-.884h-0.345a0.044,0.044,0,0,0-.047.048v0.836a0.076,0.076,0,0,1-.084.084h-0.4a0.075,0.075,0,0,1-.083-0.084V28.056A0.075,0.075,0,0,1,121.726,27.972Zm0.488,1.015a0.039,0.039,0,0,0,.047.048h0.452c0.25,0,.381-0.084.381-0.287s-0.131-.287-0.381-0.287h-0.452a0.039,0.039,0,0,0-.047.048v0.478ZM42.2,31.159a0.225,0.225,0,0,0,.232.328h2.974a0.452,0.452,0,0,0,.421-0.328l2.957-8.041a0.248,0.248,0,0,1,.266-0.2h3.622a9.63,9.63,0,0,0,9.869-8.3C63.169,11.3,61.35,9.17,57.625,9.17H50.539a0.452,0.452,0,0,0-.422.328Zm8.032-11.552c-0.131,0-.184-0.066-0.126-0.2l2.486-6.761a0.272,0.272,0,0,1,.266-0.2h3.36c1.961,0,2.861,1.116,2.544,2.79a5.2,5.2,0,0,1-5.171,4.365h-3.36ZM70.21,31.487a0.452,0.452,0,0,0,.421-0.328l3.789-10.371c1.418-3.873.186-5.481-4.291-5.481a11.909,11.909,0,0,0-5.912,1.543,0.426,0.426,0,0,0-.211.427L64.4,19.344c0.034,0.164.191,0.2,0.412,0.066a7.114,7.114,0,0,1,3.9-1.116c2.582,0,3.053.787,2.335,2.691l-0.3.886a0.313,0.313,0,0,1-.3.2H67.382c-4.411,0-7.365,1.969-8.065,5.678-0.484,2.56,1.087,4.1,3.538,4.1a6.8,6.8,0,0,0,4.967-1.9h0.033l-0.426,1.214a0.219,0.219,0,0,0,.2.328H70.21ZM64.76,29.026c-1.536,0-2.163-.656-1.959-1.74,0.316-1.674,1.5-2.593,4.182-2.593H69.5c0.131,0,.184.066,0.126,0.2l-0.483,1.346A4.244,4.244,0,0,1,64.76,29.026Zm8.029,8.369c2.484,0,4.138-1.149,6.806-4.89L91.5,16c0.135-.2.029-0.328-0.167-0.328H88.331a0.556,0.556,0,0,0-.487.328L80.671,26.466H80.605L80.982,16c0.011-.23-0.069-0.328-0.265-0.328H77.744A0.309,0.309,0,0,0,77.42,16l0.087,14.933-0.94,1.346c-1.025,1.444-1.816,2-3.025,2H72.954a0.492,0.492,0,0,0-.454.328l-0.89,2.462a0.2,0.2,0,0,0,.2.328h0.98ZM15.673,19.152L8.835,24.345l5.322-.92c-1.444,4.064-2.811,7.89-3.84,10.727a7.159,7.159,0,0,1-7,4.845H-0.007L12.275,4.358A6.82,6.82,0,0,1,18.557,0h3.868S19.083,9.523,15.673,19.152Zm5.082,5.778a18.827,18.827,0,0,0,10.72-3.159,17.117,17.117,0,0,0,6.63-9.395,10.7,10.7,0,0,0,.238-5.367,17.226,17.226,0,0,0-.578-1.8,8.337,8.337,0,0,0-2.026-2.649A8.706,8.706,0,0,0,32.294.571,12.635,12.635,0,0,0,28.142.05c-3.635,0-2.993,0-2.993,0L17.643,21.106,8.9,24.155l-0.306.777Z"/>
</svg>
