<svg xmlns="http://www.w3.org/2000/svg" width="30" height="30" viewBox="0 0 30 30">
  <metadata><?xpacket begin="﻿" id="W5M0MpCehiHzreSzNTczkc9d"?>
<x:xmpmeta xmlns:x="adobe:ns:meta/" x:xmptk="Adobe XMP Core 5.6-c138 79.159824, 2016/09/14-01:09:01        ">
   <rdf:RDF xmlns:rdf="http://www.w3.org/1999/02/22-rdf-syntax-ns#">
      <rdf:Description rdf:about=""/>
   </rdf:RDF>
</x:xmpmeta>
                                                                                                    
                                                                                                    
                                                                                                    
                                                                                                    
                                                                                                    
                                                                                                    
                                                                                                    
                                                                                                    
                                                                                                    
                                                                                                    
                                                                                                    
                                                                                                    
                                                                                                    
                                                                                                    
                                                                                                    
                                                                                                    
                                                                                                    
                                                                                                    
                                                                                                    
                                                                                                    
                           
<?xpacket end="w"?></metadata>
<defs>
    <style>
      .cls-1 {
        fill: #fff;
        fill-rule: evenodd;
      }
    </style>
  </defs>
  <path id="Icono_saldo" data-name="Icono saldo" class="cls-1" d="M25.761,30H4.235A4.243,4.243,0,0,1,0,25.761V4.234A4.243,4.243,0,0,1,4.235-.006H25.761A4.243,4.243,0,0,1,30,4.234V25.761A4.243,4.243,0,0,1,25.761,30ZM4.235,1.3A2.941,2.941,0,0,0,1.3,4.234V25.761A2.941,2.941,0,0,0,4.235,28.7H25.761A2.941,2.941,0,0,0,28.7,25.761V4.234A2.94,2.94,0,0,0,25.761,1.3H4.235ZM25.378,11.648a0.706,0.706,0,0,0-.453-0.3l-1.534-.29L10.38,5.309a0.7,0.7,0,0,0-.929.37L8.36,8.214,7.972,8.14a0.7,0.7,0,0,0-.528.113,0.716,0.716,0,0,0-.295.459L6.663,11.346H5.955a0.71,0.71,0,0,0-.706.715v9.719a0.71,0.71,0,0,0,.706.715H24.163a0.71,0.71,0,0,0,.706-0.715V15.551l0.621-3.368A0.724,0.724,0,0,0,25.378,11.648ZM9.2,9.829l8.015,1.517H8.552Zm1.258-2.923L17.214,9.89,9.784,8.484ZM6.66,21.065V12.777h16.8V15.5h0v5.567H6.66Zm8.659-6.645a2.467,2.467,0,1,0,2.434,2.467A2.454,2.454,0,0,0,15.319,14.421Zm0,3.5a1.037,1.037,0,1,1,1.023-1.037A1.031,1.031,0,0,1,15.319,17.924ZM20,15.77a1.118,1.118,0,1,0,1.1,1.117A1.111,1.111,0,0,0,20,15.77Zm-9.334,0a1.118,1.118,0,1,0,1.1,1.117A1.111,1.111,0,0,0,10.661,15.77Z"/>
</svg>
