<svg xmlns="http://www.w3.org/2000/svg" width="30" height="30" viewBox="0 0 30 30">
  <metadata><?xpacket begin="﻿" id="W5M0MpCehiHzreSzNTczkc9d"?>
<x:xmpmeta xmlns:x="adobe:ns:meta/" x:xmptk="Adobe XMP Core 5.6-c138 79.159824, 2016/09/14-01:09:01        ">
   <rdf:RDF xmlns:rdf="http://www.w3.org/1999/02/22-rdf-syntax-ns#">
      <rdf:Description rdf:about=""/>
   </rdf:RDF>
</x:xmpmeta>
                                                                                                    
                                                                                                    
                                                                                                    
                                                                                                    
                                                                                                    
                                                                                                    
                                                                                                    
                                                                                                    
                                                                                                    
                                                                                                    
                                                                                                    
                                                                                                    
                                                                                                    
                                                                                                    
                                                                                                    
                                                                                                    
                                                                                                    
                                                                                                    
                                                                                                    
                                                                                                    
                           
<?xpacket end="w"?></metadata>
<defs>
    <style>
      .cls-1 {
        fill: #0af78b;
        fill-rule: evenodd;
      }
    </style>
  </defs>
  <path id="Billetes_copy" data-name="Billetes copy" class="cls-1" d="M25.761,30.008H4.235A4.243,4.243,0,0,1,0,25.767V4.24A4.243,4.243,0,0,1,4.235,0H25.761A4.243,4.243,0,0,1,30,4.24V25.767A4.243,4.243,0,0,1,25.761,30.008ZM4.235,1.305A2.941,2.941,0,0,0,1.3,4.24V25.767A2.941,2.941,0,0,0,4.235,28.7H25.761A2.941,2.941,0,0,0,28.7,25.767V4.24a2.94,2.94,0,0,0-2.939-2.935H4.235Zm20.393,8.8a0.657,0.657,0,0,0-.419-0.261l-1.42-.253L10.747,4.578a0.665,0.665,0,0,0-.86.323L8.878,7.113,8.519,7.049a0.68,0.68,0,0,0-.489.1,0.622,0.622,0,0,0-.273.4l-0.449,2.3H6.652A0.639,0.639,0,0,0,6,10.47v8.48a0.639,0.639,0,0,0,.653.624H23.5a0.639,0.639,0,0,0,.653-0.624V13.515l0.574-2.938A0.6,0.6,0,0,0,24.628,10.109ZM9.66,8.522l7.418,1.323H9.056Zm1.164-2.55,6.249,2.6L10.2,7.348ZM7.305,18.326V11.094H22.85v2.374h0v4.857H7.305Zm8.014-5.8a2.155,2.155,0,1,0,2.253,2.153A2.207,2.207,0,0,0,15.319,12.528Zm0,3.057a0.905,0.905,0,1,1,.947-0.9A0.927,0.927,0,0,1,15.319,15.585Zm4.328-1.879a0.976,0.976,0,1,0,1.02.975A1,1,0,0,0,19.646,13.706Zm-8.639,0a0.976,0.976,0,1,0,1.02.975A1,1,0,0,0,11.008,13.706Zm6.471,9.874a0.675,0.675,0,0,0-.924,0l-0.462.441H15.979l0-2.589a0.639,0.639,0,0,0-.653-0.624h0a0.639,0.639,0,0,0-.653.624l0,2.59H14.544l-0.462-.441a0.675,0.675,0,0,0-.924,0,0.6,0.6,0,0,0,0,.882l1.7,1.622a0.674,0.674,0,0,0,.924,0l1.7-1.622A0.6,0.6,0,0,0,17.479,23.579Z"/>
</svg>
