<svg xmlns="http://www.w3.org/2000/svg" width="50" height="50" viewBox="0 0 50 50">
  <metadata><?xpacket begin="﻿" id="W5M0MpCehiHzreSzNTczkc9d"?>
<x:xmpmeta xmlns:x="adobe:ns:meta/" x:xmptk="Adobe XMP Core 5.6-c138 79.159824, 2016/09/14-01:09:01        ">
   <rdf:RDF xmlns:rdf="http://www.w3.org/1999/02/22-rdf-syntax-ns#">
      <rdf:Description rdf:about=""/>
   </rdf:RDF>
</x:xmpmeta>
                                                                                                    
                                                                                                    
                                                                                                    
                                                                                                    
                                                                                                    
                                                                                                    
                                                                                                    
                                                                                                    
                                                                                                    
                                                                                                    
                                                                                                    
                                                                                                    
                                                                                                    
                                                                                                    
                                                                                                    
                                                                                                    
                                                                                                    
                                                                                                    
                                                                                                    
                                                                                                    
                           
<?xpacket end="w"?></metadata>
<defs>
    <style>
      .cls-1 {
        fill: #fff;
        fill-rule: evenodd;
      }
    </style>
  </defs>
  <path id="Billetera" class="cls-1" d="M45.784,0H4.2A4.215,4.215,0,0,0-.011,4.21V45.789A4.215,4.215,0,0,0,4.2,50H45.784a4.215,4.215,0,0,0,4.211-4.21V4.21A4.215,4.215,0,0,0,45.784,0Zm1.4,45.789a1.405,1.405,0,0,1-1.4,1.4H4.2a1.405,1.405,0,0,1-1.4-1.4V4.21a1.405,1.405,0,0,1,1.4-1.4H45.784a1.405,1.405,0,0,1,1.4,1.4V45.789ZM36.74,18.523H35.1V12.671a2.108,2.108,0,0,0-2.106-2.105,1.171,1.171,0,0,0-.405.073L12.347,18.117a2.37,2.37,0,0,0-1.731,2.359c0,0.026.006,0.051,0.008,0.077s-0.008.05-.008,0.076V36.534a2.108,2.108,0,0,0,2.105,2.105H36.74a2.108,2.108,0,0,0,2.106-2.105V20.629A2.108,2.108,0,0,0,36.74,18.523ZM36.506,29.905H31.827a1.161,1.161,0,1,1,0-2.321h4.679v2.321ZM32.761,13.068v5.455H17.995ZM12.956,36.3V20.863h23.55v4.85H31.827a3.032,3.032,0,1,0,0,6.064h4.679V36.3H12.956Zm1.7-5.543v1.4A2.443,2.443,0,0,1,17.093,34.6h1.4A3.849,3.849,0,0,0,14.652,30.757Zm0-3.142v1.4A5.589,5.589,0,0,1,20.236,34.6h1.4A6.994,6.994,0,0,0,14.652,27.615Zm0-3.142v1.4A8.735,8.735,0,0,1,23.378,34.6h1.4A10.14,10.14,0,0,0,14.652,24.473Zm0.495,8.878a0.756,0.756,0,1,0,.756.756A0.756,0.756,0,0,0,15.147,33.35Z"/>
</svg>
