<svg id="Directv" xmlns="http://www.w3.org/2000/svg" width="205" height="165" viewBox="0 0 205 165">
  <metadata><?xpacket begin="﻿" id="W5M0MpCehiHzreSzNTczkc9d"?>
<x:xmpmeta xmlns:x="adobe:ns:meta/" x:xmptk="Adobe XMP Core 5.6-c138 79.159824, 2016/09/14-01:09:01        ">
   <rdf:RDF xmlns:rdf="http://www.w3.org/1999/02/22-rdf-syntax-ns#">
      <rdf:Description rdf:about=""/>
   </rdf:RDF>
</x:xmpmeta>
                                                                                                    
                                                                                                    
                                                                                                    
                                                                                                    
                                                                                                    
                                                                                                    
                                                                                                    
                                                                                                    
                                                                                                    
                                                                                                    
                                                                                                    
                                                                                                    
                                                                                                    
                                                                                                    
                                                                                                    
                                                                                                    
                                                                                                    
                                                                                                    
                                                                                                    
                                                                                                    
                           
<?xpacket end="w"?></metadata>
<defs>
    <style>
      .cls-1 {
        fill: #00a1e3;
      }

      .cls-2 {
        fill: #0ebcf3;
      }

      .cls-2, .cls-3, .cls-5 {
        fill-rule: evenodd;
      }

      .cls-3 {
        fill: #fff;
      }

      .cls-4 {
        fill: #c02328;
      }

      .cls-5 {
        fill: #e92f35;
      }
    </style>
  </defs>
  <rect id="Rectangle_12_copy_2" data-name="Rectangle 12 copy 2" class="cls-1" width="205" height="165"/>
  <path id="Shape_19_copy" data-name="Shape 19 copy" class="cls-2" d="M149.988,84a56.192,56.192,0,0,0-54.8-55.975v0H95.148Q94.364,28,93.576,28v0.022L58.074,28a3.05,3.05,0,0,0-2.732,4.449l3.486,6.7A28.644,28.644,0,0,0,84.392,54.531l9.184-.043a29.513,29.513,0,1,1,0,59.025v0l-9.184-.043a28.643,28.643,0,0,0-25.564,15.376l-3.486,6.7A3.05,3.05,0,0,0,58.074,140l35.5-.019V140q0.752,0,1.5-.019H95.19v0A56.192,56.192,0,0,0,149.988,84Zm-37.124,0A18.354,18.354,0,1,1,94.511,65.78,18.287,18.287,0,0,1,112.864,84Z"/>
  <path class="cls-3" d="M55.234,96.362H47.851V67.717h7.383V96.362ZM78.113,85.039L78.12,84.9a9.04,9.04,0,0,0,5.439-8.147c0-5.009-4.348-9.07-9.713-9.073l-0.006-.011-6.027.045H60.43V96.362h7.383V72.86h4.352a4.194,4.194,0,0,1,4.216,4.173h0a4.194,4.194,0,0,1-4.216,4.173H68.724l8.295,15.157H84.4ZM106.05,73.461V67.717H88.071V96.362h17.98V90.618h-10.6V84.5h7.892V79.325H95.454V73.461h10.6Zm53.383-5.789H136.159v5.759h7.93V96.362h7.383V73.431h7.961V67.672Zm3.646,0,11.059,28.69H180l11-28.69h-7.382l-6.579,19.2-6.608-19.2h-7.352ZM44.068,82.5A16.579,16.579,0,0,0,27.876,66.007H27.863C27.709,66,27.554,66,27.4,66v0.006L16.908,66a0.9,0.9,0,0,0-.807,1.311l1.03,1.975a8.467,8.467,0,0,0,7.554,4.53L27.4,73.8a8.7,8.7,0,1,1,0,17.391h0l-2.714-.013a8.467,8.467,0,0,0-7.554,4.53L16.1,97.689A0.9,0.9,0,0,0,16.908,99L27.4,98.994V99q0.222,0,.443-0.006h0.034A16.579,16.579,0,0,0,44.068,82.5Zm64.33-.483a14.414,14.414,0,0,1,14.078-14.339h0.011c0.134,0,.269-0.006.4-0.006v0.006l9.12,0a0.782,0.782,0,0,1,.7,1.14l-0.895,1.717a7.363,7.363,0,0,1-6.568,3.939l-2.359-.011a7.56,7.56,0,1,0,0,15.12h0l2.359-.011a7.363,7.363,0,0,1,6.568,3.939l0.895,1.717a0.781,0.781,0,0,1-.7,1.14l-9.12,0v0c-0.129,0-.258,0-0.385-0.005h-0.03A14.414,14.414,0,0,1,108.4,82.017ZM33.1,82.5a5.424,5.424,0,1,1-5.423-5.368A5.4,5.4,0,0,1,33.1,82.5Z"/>
  <rect class="cls-4" width="205" height="165"/>
  <path id="Cines" class="cls-5" d="M102.493,27.007a55.5,55.5,0,1,0,55.5,55.5A55.565,55.565,0,0,0,102.493,27.007Zm47.151,53.439h-38.7V47.9h-6.39V35.358A47.24,47.24,0,0,1,149.644,80.447ZM100.431,35.358V47.9H98.575l-16.837,7.56v7.216L96.857,59.07,96.725,80.447H55.343A47.239,47.239,0,0,1,100.431,35.358ZM55.343,84.57H96.7l-0.187,30.337h3.918v14.751A47.239,47.239,0,0,1,55.343,84.57Zm49.212,45.088V114.907h6.39V84.57h38.7A47.24,47.24,0,0,1,104.555,129.658Z"/>
</svg>
