<svg id="Movistar" xmlns="http://www.w3.org/2000/svg" width="205" height="165" viewBox="0 0 205 165">
  <metadata><?xpacket begin="﻿" id="W5M0MpCehiHzreSzNTczkc9d"?>
<x:xmpmeta xmlns:x="adobe:ns:meta/" x:xmptk="Adobe XMP Core 5.6-c138 79.159824, 2016/09/14-01:09:01        ">
   <rdf:RDF xmlns:rdf="http://www.w3.org/1999/02/22-rdf-syntax-ns#">
      <rdf:Description rdf:about=""/>
   </rdf:RDF>
</x:xmpmeta>
                                                                                                    
                                                                                                    
                                                                                                    
                                                                                                    
                                                                                                    
                                                                                                    
                                                                                                    
                                                                                                    
                                                                                                    
                                                                                                    
                                                                                                    
                                                                                                    
                                                                                                    
                                                                                                    
                                                                                                    
                                                                                                    
                                                                                                    
                                                                                                    
                                                                                                    
                                                                                                    
                           
<?xpacket end="w"?></metadata>
<defs>
    <style>
      .cls-1 {
        fill: #00abe1;
      }

      .cls-2 {
        fill: #13c3fa;
      }

      .cls-2, .cls-4, .cls-6, .cls-7 {
        fill-rule: evenodd;
      }

      .cls-3 {
        fill: #e30101;
      }

      .cls-4 {
        fill: #fb2626;
      }

      .cls-5 {
        fill: #012493;
      }

      .cls-6 {
        fill: #0831b5;
      }

      .cls-7 {
        fill: #fff;
      }
    </style>
  </defs>
  <rect id="Rectangle_12_copy" data-name="Rectangle 12 copy" class="cls-1" width="205" height="165"/>
  <path id="Movistar_copy" data-name="Movistar copy" class="cls-2" d="M148.624,22.513c4.9-.764,10.34-0.873,14.7,1.9,6.291,3.741,9.884,10.519,12.365,17.168,6.976,19.172,7.641,40.14,4.713,60.177-0.655,5.13-2.62,10.925-7.651,13.257-2.977,1-6.788.735-8.852-1.905-3.334-4.029-2.282-9.586-2-14.379a122.711,122.711,0,0,0,1.151-22.884c-0.03-3.483-1.2-7.254-4.188-9.308-2.52-1.905-6.162-1.538-8.663.208-4.237,2.749-7.016,7.175-9.289,11.581-5.576,11.482-8.663,23.936-12.821,35.953-2.084,5.587-5.448,10.906-10.439,14.31-5.984,4.217-13.586,5.329-20.75,5.071-9.15-.437-17.386-6.183-22.189-13.784-5.984-9.675-11.313-19.748-17.158-29.5-1.856-2.838-4.357-6.47-8.227-6.053-4.069.377-5.607,4.932-5.478,8.445,0.288,12.037,6.113,23,8.187,34.722,0.724,3.613-.308,8.148-3.949,9.785a17.387,17.387,0,0,1-6.758.01c-3.235-1.231-4.912-4.575-6.361-7.482a145.119,145.119,0,0,1-9.814-37.948c0.228-6.659-.4-13.407,1.012-19.976,1.925-10.718,4.872-22.06,12.821-29.979,6.847-6.937,18.636-9,26.942-3.533,8.058,5.587,13.04,14.26,18.329,22.278,3.88,6.172,7.5,13.436,14.627,16.4a12.916,12.916,0,0,0,14.826-3.1c2.59-2.669,3.87-6.232,5.24-9.616,2.907-7.284,5.805-14.558,8.99-21.723C131.556,33.429,138.691,24.9,148.624,22.513Z"/>
  <rect id="Rectangle_12_copy_2" data-name="Rectangle 12 copy 2" class="cls-3" width="205" height="165"/>
  <path id="Claro_copy_2" data-name="Claro copy 2" class="cls-4" d="M99.626,85.153a31.235,31.235,0,0,0-22.741-9.387A30.343,30.343,0,0,0,54.44,85.153a30.9,30.9,0,0,0-9.451,22.733,30.347,30.347,0,0,0,9.451,22.587,30.481,30.481,0,0,0,22.445,9.534,31.376,31.376,0,0,0,22.741-9.534,30.775,30.775,0,0,0,9.3-22.587,31.341,31.341,0,0,0-9.3-22.733h0Zm-10.78,34.614a16.662,16.662,0,0,1-23.774,0,16.723,16.723,0,0,1-5.021-11.881A16.317,16.317,0,0,1,65.072,95.86a15.147,15.147,0,0,1,11.813-4.84,15.772,15.772,0,0,1,12.109,4.84,16.914,16.914,0,0,1-.148,23.907h0Zm22.741-41.654L148.651,41.3l-9.746-9.68L101.841,68.433l9.746,9.68h0ZM85.6,63.447V23.993H71.865V63.447H85.6Zm32.782,29.92v13.639h40.609V93.367H118.379Z"/>
  <rect id="Rectangle_12_copy_2-2" data-name="Rectangle 12 copy 2" class="cls-5" x="276" y="771" width="205" height="100" rx="6" ry="6"/>
  <path id="Telcel_copy" data-name="Telcel copy" class="cls-6" d="M290.6,869.41h74.53l-0.986-1.165h7.525l0.806,1.165h24.455l-4.032,6H377.316l0.268,0.358-2.6,3.673-3.941-4.031-84.382.09,3.941-6.092h0Zm69.961-4.837-2.419-2.508-62.7.089,4.031-6.18h52.761l-1.075-1.165h9.854l0.9,1.165H405.8l-4.121,6.091H366.746l1.97,2.508h-8.151Zm-12.989-13.437-2.6-2.687-40.4.089,4.031-6.18h28.754l0.9-1.254h19.886l-0.985,1.254h57.778l-4.121,6.091H356l2.06,2.687H347.576Zm-6.808-13.7,1.613-2.239H313.357l4.031-6.092h29.2l1.164-1.7h21.051l-1.343,1.7,56.255-.09-4.032,6.092-56.882.09-1.791,2.239H340.768Zm9.5-13.705,1.523-2.15H322.4l4.032-6.091H356l1.164-1.613h22.125l-1.254,1.613h54.643l-4.031,6.091h-55.36l-1.611,2.15h-21.41Zm9.406-13.527,1.165-1.612H331.093l4.032-6.092h29.919l1.074-1.612h23.291l-1.254,1.612h53.3l-4.12,6.092H383.407l-1.254,1.612H359.669Zm8.958-12.989,1.612-2.329H340.231l4.031-6.091H374.45l0.806-1.075h24.455l-0.9,1.075h51.777l-4.121,6.091h-52.4l-1.792,2.329H368.627Zm9.137-13.168,1.343-1.881H348.741l3.941-6.091h45.326l5.106-8.062h-0.9l2.509-3.941h4.21l-2.777,3.941h-0.717l-5.732,8.062h59.3l-4.031,6-50.97.089-1.433,1.881H377.764Z"/>
  <path id="Telcel-2" data-name="Telcel" class="cls-7" d="M296.591,830.442h22.5l-0.3-.351h2.272l0.244,0.351H328.7l-1.217,1.812h-4.706l0.081,0.108-0.784,1.109-1.19-1.217-25.478.027,1.19-1.839h0Zm21.124-1.46-0.731-.758-18.932.027,1.217-1.866H315.2l-0.325-.351h2.976l0.27,0.351h13.253l-1.244,1.839H319.581l0.595,0.758h-2.461Zm-3.922-4.057-0.785-.811-12.2.026,1.218-1.866h8.681l0.271-.378h6l-0.3.378h17.445l-1.244,1.84H316.335l0.622,0.811h-3.164Zm-2.056-4.138,0.487-.676h-8.763l1.217-1.84H313.5l0.352-.513H320.2l-0.406.513,16.985-.027-1.217,1.839-17.174.028-0.541.676h-6.113Zm2.867-4.138,0.46-.649h-8.871l1.217-1.84h8.925l0.352-.486h6.68l-0.379.486h16.5L338.27,816H321.555l-0.487.649H314.6Zm2.84-4.085,0.352-.486h-8.98l1.217-1.84h9.034l0.324-.486h7.032l-0.378.486h16.092l-1.244,1.84H324.611l-0.378.486h-6.789Zm2.7-3.921,0.486-.7h-9.06l1.217-1.839h9.115l0.243-.324h7.384l-0.271.324H344.9l-1.244,1.839H327.83l-0.541.7h-7.14Zm2.758-3.976,0.406-.568h-9.169l1.19-1.839H329.02l1.541-2.434h-0.27l0.757-1.19h1.271l-0.838,1.19h-0.216l-1.731,2.434h17.905l-1.218,1.812-15.389.027-0.433.568h-7.492Zm26.343,28.859-7.789-.055c-3.6,0-2.326-3.921-1.3-5.3l9.629-12.955h-3.273l2.813-4H352.6l4.382-5.734h7l-4.49,5.734h5.139l-3.273,4h-5.111l-8.79,11.955c-1.461,2.407.108,2.082,4.111,2.055l-2.327,4.3h0Zm16.093-12.983h10.305c1.65-3.867,2.028-5.057-2.515-5.057a8.815,8.815,0,0,0-7.79,5.057h0Zm9.6,8.114-3.733,4.869H359.88c-8.222-.271-7.249-6.059-1.082-13.415,6.167-7.384,9.656-7.925,16.8-7.763,12.9,0.271,5.031,8.574,2.867,12.117H361.936c-2.029,3.137-2.029,4.354,1.568,4.192h11.441Zm-0.3,4.842,20.015-28.021h6.626L381.328,833.5h-6.681Zm32.429-4.409-2.948,4.462-11.251.028c-2.434,0-7.871-1.7-4.517-6.87,5.031-7.113,8.3-11.982,14.74-13.686,6.383-1.135,8.466-.568,13.6-0.568L413.621,817c-7.762-.162-11.657.649-15.119,5.193-2.353,3.11-5.652,7-.568,6.978l9.142-.081h0Zm23.666,4.49,19.906-28.1H457.6l-20.5,28.1h-6.356Zm-10.359-12.6H430.66c1.677-3.867,3.246-5.058-2.488-5.058-3.435,0-6.842,2.489-7.789,5.058h0Zm9.412,8.114-3.543,4.895-11.36-.026c-7.978-.271-7.221-6.059-1.081-13.416,6.166-7.356,9.655-7.9,16.8-7.762,14.5,0.3,5,8.6,2.975,12.117H416.948c-2.029,3.164-2.272,4.327,1.6,4.192H429.8Zm13.415,5.274h-0.92l-0.162-3.056-0.757,3.056h-0.866l0.974-3.651h1.38l0.162,2.569,1.595-2.569h1.407l-0.974,3.651h-0.892l0.919-3.029-1.866,3.029h0Zm3-.676h0.92l-0.189.676h-0.92l0.189-.676h0Zm2.624,0.676h-0.974l0.974-3.651h2.109a3.515,3.515,0,0,1,.839.081,0.978,0.978,0,0,1,.487.324,0.875,0.875,0,0,1,.189.541,1,1,0,0,1-.379.785,2.115,2.115,0,0,1-1.081.378,1.891,1.891,0,0,1,.351.325,10.16,10.16,0,0,1,.73,1.217h-1.054c-0.082-.189-0.244-0.514-0.487-0.947a1.107,1.107,0,0,0-.433-0.486,0.966,0.966,0,0,0-.487-0.082h-0.379l-0.4,1.515h0Zm0.541-2.056h0.514a4.5,4.5,0,0,0,1.054-.081,0.737,0.737,0,0,0,.379-0.216,0.467,0.467,0,0,0,.162-0.325,0.316,0.316,0,0,0-.216-0.3,1.365,1.365,0,0,0-.568-0.054h-1.055l-0.27.973h0Zm3.434,1.38H453.7l-0.189.676h-0.893l0.189-.676h0Z"/>
</svg>
