<svg id="Claro" xmlns="http://www.w3.org/2000/svg" width="147" height="53" viewBox="0 0 147 53">
  <metadata><?xpacket begin="﻿" id="W5M0MpCehiHzreSzNTczkc9d"?>
<x:xmpmeta xmlns:x="adobe:ns:meta/" x:xmptk="Adobe XMP Core 5.6-c138 79.159824, 2016/09/14-01:09:01        ">
   <rdf:RDF xmlns:rdf="http://www.w3.org/1999/02/22-rdf-syntax-ns#">
      <rdf:Description rdf:about=""/>
   </rdf:RDF>
</x:xmpmeta>
                                                                                                    
                                                                                                    
                                                                                                    
                                                                                                    
                                                                                                    
                                                                                                    
                                                                                                    
                                                                                                    
                                                                                                    
                                                                                                    
                                                                                                    
                                                                                                    
                                                                                                    
                                                                                                    
                                                                                                    
                                                                                                    
                                                                                                    
                                                                                                    
                                                                                                    
                                                                                                    
                           
<?xpacket end="w"?></metadata>
<defs>
    <style>
      .cls-1 {
        fill: #fff;
        fill-rule: evenodd;
      }
    </style>
  </defs>
  <path id="Claro-2" data-name="Claro" class="cls-1" d="M120.055,27.938a14.129,14.129,0,0,0-10.323-4.29,13.729,13.729,0,0,0-10.189,4.29,14.171,14.171,0,0,0-4.29,10.39,13.918,13.918,0,0,0,4.29,10.324,13.792,13.792,0,0,0,10.189,4.357,14.648,14.648,0,0,0,14.546-14.681,14.376,14.376,0,0,0-4.223-10.39h0Zm-4.894,15.821a7.527,7.527,0,0,1-10.792,0,7.668,7.668,0,0,1-2.279-5.43,7.482,7.482,0,0,1,2.279-5.5,6.854,6.854,0,0,1,5.363-2.212,7.132,7.132,0,0,1,5.5,2.212,7.767,7.767,0,0,1-.067,10.927h0Zm-97.2-27.284a16.477,16.477,0,0,0-12.67,5.3A17.357,17.357,0,0,0,0,34.574a17.614,17.614,0,0,0,5.3,12.871,17.148,17.148,0,0,0,12.67,5.229,17.49,17.49,0,0,0,10.926-3.687,18.2,18.2,0,0,0,6.3-9.586H27.883a12.587,12.587,0,0,1-3.955,4.626,11.233,11.233,0,0,1-5.966,1.743,10.733,10.733,0,0,1-7.843-3.285A10.42,10.42,0,0,1,6.9,34.574a10.421,10.421,0,0,1,3.218-7.91,10.894,10.894,0,0,1,13.809-1.475,12.07,12.07,0,0,1,3.955,4.625H35.19a17.947,17.947,0,0,0-6.3-9.586,16.786,16.786,0,0,0-10.926-3.754h0ZM62.2,23.58c-4.692-.067-7.977,1.207-9.854,3.687a11.009,11.009,0,0,0-2.011,6.1h6.971a4.508,4.508,0,0,1,1.006-2.547A4.176,4.176,0,0,1,62,29.479a6.214,6.214,0,0,1,3.419.67A2.507,2.507,0,0,1,66.629,32.5a2.307,2.307,0,0,1-1.609,2.145l-5.363.871a16.9,16.9,0,0,0-6.033,1.81C51.01,38.864,49.737,41.345,49.8,44.9a7.459,7.459,0,0,0,2.346,5.966,8.968,8.968,0,0,0,5.7,1.944c3.821-.067,6.838-1.005,8.983-2.882v2.882H73.8V32.295c0-3.352-1.207-5.7-3.486-6.9A16.248,16.248,0,0,0,62.2,23.58h0Zm2.95,15.753L66.5,38.6v2.816c0,2.414-.67,4.09-1.944,5.028a7.348,7.348,0,0,1-4.357,1.408,3.8,3.8,0,0,1-2.48-.8,3.449,3.449,0,0,1-1.006-2.748,3.461,3.461,0,0,1,1.676-3.151,9.232,9.232,0,0,1,3.285-.938l3.486-.872h0ZM45.714,16.475H38.743V52.808h6.971V16.475h0Zm44.377,8.111a11.066,11.066,0,0,0-4.96,3.955V24.988l-6.637-.067V52.808h6.9V39.468a9.937,9.937,0,0,1,.871-4.894,6.57,6.57,0,0,1,2.413-2.681A6.777,6.777,0,0,1,92.5,30.686l2.145,0.134-0.067-7.105-1.81.134-2.681.737h0Zm35.394,0.134L142.31,7.894,137.886,3.47,121.06,20.3l4.425,4.424h0Zm-11.8-6.7V-0.016h-6.235V18.017h6.235Zm14.881,13.675v6.234H147V31.692H128.568Z"/>
</svg>
