<svg id="Digitel_copy_3" data-name="Digitel copy 3" xmlns="http://www.w3.org/2000/svg" width="205" height="165" viewBox="0 0 205 165">
  <metadata><?xpacket begin="﻿" id="W5M0MpCehiHzreSzNTczkc9d"?>
<x:xmpmeta xmlns:x="adobe:ns:meta/" x:xmptk="Adobe XMP Core 5.6-c138 79.159824, 2016/09/14-01:09:01        ">
   <rdf:RDF xmlns:rdf="http://www.w3.org/1999/02/22-rdf-syntax-ns#">
      <rdf:Description rdf:about=""/>
   </rdf:RDF>
</x:xmpmeta>
                                                                                                    
                                                                                                    
                                                                                                    
                                                                                                    
                                                                                                    
                                                                                                    
                                                                                                    
                                                                                                    
                                                                                                    
                                                                                                    
                                                                                                    
                                                                                                    
                                                                                                    
                                                                                                    
                                                                                                    
                                                                                                    
                                                                                                    
                                                                                                    
                                                                                                    
                                                                                                    
                           
<?xpacket end="w"?></metadata>
<defs>
    <style>
      .cls-1 {
        fill: #5d1289;
      }

      .cls-2 {
        fill: #7627a4;
        fill-rule: evenodd;
      }
    </style>
  </defs>
  <rect id="Rectangle_12_copy_3" data-name="Rectangle 12 copy 3" class="cls-1" width="205" height="165"/>
  <path id="Digitel_copy" data-name="Digitel copy" class="cls-2" d="M117.385,33.7a28.081,28.081,0,0,1,15.694,18.441,36.756,36.756,0,0,1,.37,14.591,28.025,28.025,0,0,1-23.684,22.216,66.08,66.08,0,0,1-8.1.392c-3.05,4.536-4.978,8.567-1.42,12.572,6.962,7.838,18.286,5.315,20.572,19.422,1.333,8.221-2.581,16.527-9.063,21.4a17.254,17.254,0,0,1-2.9,1.767,20.084,20.084,0,0,1-12.219,1c-10.08-2.395-9.443-12.985-7.412-12.668,5.529,0.861,12.148,1.414,16.469-2.988,2.757-2.81,3.02-6.869-.54-10.012s-9.05-4.254-13.56-6.98c-9.791-5.916-9.823-17.037-4.493-25.853A28.01,28.01,0,0,1,70.271,64.918a40.556,40.556,0,0,1,.153-10.376A28.011,28.011,0,0,1,95.4,31.41a82.8,82.8,0,0,1,8.488-.235,17.463,17.463,0,0,1,16.246-11.162h3.643a5.2,5.2,0,1,1-.279,10.395h-2.256a3.912,3.912,0,0,0-3.854,3.292h0ZM92.364,45.253a15.125,15.125,0,0,0-7.915,11.282,30.778,30.778,0,0,0-.074,6.862A15.273,15.273,0,0,0,91.8,74.934c4.823,2.717,15.8,2.555,20.331.044A15.172,15.172,0,0,0,119.5,64.37a27.867,27.867,0,0,0-.18-9.122,14.984,14.984,0,0,0-7.746-10.035c-4.242-2.09-14.978-2.082-19.209.04h0Z"/>
</svg>
