<svg id="Digitel" xmlns="http://www.w3.org/2000/svg" width="175" height="58" viewBox="0 0 175 58">
  <metadata><?xpacket begin="﻿" id="W5M0MpCehiHzreSzNTczkc9d"?>
<x:xmpmeta xmlns:x="adobe:ns:meta/" x:xmptk="Adobe XMP Core 5.6-c138 79.159824, 2016/09/14-01:09:01        ">
   <rdf:RDF xmlns:rdf="http://www.w3.org/1999/02/22-rdf-syntax-ns#">
      <rdf:Description rdf:about=""/>
   </rdf:RDF>
</x:xmpmeta>
                                                                                                    
                                                                                                    
                                                                                                    
                                                                                                    
                                                                                                    
                                                                                                    
                                                                                                    
                                                                                                    
                                                                                                    
                                                                                                    
                                                                                                    
                                                                                                    
                                                                                                    
                                                                                                    
                                                                                                    
                                                                                                    
                                                                                                    
                                                                                                    
                                                                                                    
                                                                                                    
                           
<?xpacket end="w"?></metadata>
<defs>
    <style>
      .cls-1 {
        fill: #fff;
        fill-rule: evenodd;
      }
    </style>
  </defs>
  <path id="Digitel-2" data-name="Digitel" class="cls-1" d="M13.076,3.77c6.511,0.287,12.691,3.757,14.737,9.464a16.871,16.871,0,0,1-.187,10.48c-2.215,5.433-8.221,8.977-14.551,8.977-3.042-.014-6.084,0-9.126,0A3.558,3.558,0,0,1,.293,29.028V6.555c0-.7.066-0.82,0.5-1.032,3.046-1.481,8.872-1.9,12.28-1.753h0ZM7.514,27.355h5.125c3.283,0,7.174-1.965,8.477-5.641a14.168,14.168,0,0,0,.087-6.7c-1.218-3.906-5.541-5.685-8.854-5.853l-4.93-.006a0.365,0.365,0,0,0-.444.37V26.812a0.461,0.461,0,0,0,.539.542h0ZM36.7,3.77a3.5,3.5,0,0,1,3.5,3.483V30.526a2.175,2.175,0,0,1-2.172,2.164H35.684a2.175,2.175,0,0,1-2.172-2.164V4.667c0-.992,2.427-0.9,3.186-0.9h0Zm45.908,0a3.5,3.5,0,0,1,3.5,3.483V30.526a2.175,2.175,0,0,1-2.172,2.164H81.592a2.175,2.175,0,0,1-2.172-2.164V4.667c0-.992,2.427-0.9,3.186-0.9h0Zm33.376,2.567c0,1.549-1.573,2.817-3.5,2.817h-4.674c-0.526,0-.79.128-0.79,0.69V30.526a2.175,2.175,0,0,1-2.173,2.164h-2.338a2.175,2.175,0,0,1-2.172-2.164V9.83c0-.518-0.13-0.678-0.648-0.678H93.34A2,2,0,0,1,91.167,7.4V5.519A2,2,0,0,1,93.34,3.77h21.741c1,0,.9,1.955.9,2.567h0Zm26.6-2.567a0.85,0.85,0,0,1,.787.873c0.244,2.6-1.616,4.51-4.976,4.51H128.055a0.6,0.6,0,0,0-.648.574v5.543a0.486,0.486,0,0,0,.558.5H137.9a2.211,2.211,0,0,1,2.209,2.2V18.78a2.211,2.211,0,0,1-2.209,2.2h-9.732c-0.567,0-.758.144-0.758,0.7v4.991a0.549,0.549,0,0,0,.668.632h14.511a0.85,0.85,0,0,1,.787.873c0.244,2.6-1.616,4.51-4.976,4.51h-13.88a3.562,3.562,0,0,1-3.792-3.841V7.337c0-2.152,1.111-3.567,3.186-3.567h18.675Zm8.593,0a3.5,3.5,0,0,1,3.5,3.483V26.71a0.512,0.512,0,0,0,.62.6h11.186a0.849,0.849,0,0,1,.786.873c0.244,2.6-1.616,4.51-4.976,4.51H150.165a2.174,2.174,0,0,1-2.172-2.164V4.667c0-.992,2.427-0.9,3.186-0.9h0Zm19.607,0a3.483,3.483,0,1,1-3.5,3.483,3.49,3.49,0,0,1,3.5-3.483h0Zm0,0.871a2.612,2.612,0,1,1-2.623,2.612,2.617,2.617,0,0,1,2.623-2.612h0ZM169.33,8.908h0.864v-1.3h0.263a0.558,0.558,0,0,1,.623.528,3.87,3.87,0,0,0,.269.768h0.892a8.958,8.958,0,0,1-.314-0.93,0.852,0.852,0,0,0-.515-0.615V7.348a0.9,0.9,0,0,0,.681-0.807,0.785,0.785,0,0,0-.355-0.685,2.233,2.233,0,0,0-1.247-.258,8.994,8.994,0,0,0-1.161.068V8.908h0Zm0.864-2.735a2.677,2.677,0,0,1,.394-0.024c0.4,0,.641.155,0.641,0.456a0.565,0.565,0,0,1-.692.47h-0.343v-0.9h0ZM66.81,6.3a12.929,12.929,0,0,1,7.234,8.488,16.892,16.892,0,0,1,.171,6.715A12.911,12.911,0,0,1,63.3,31.729a30.549,30.549,0,0,1-3.733.18C58.158,34,57.269,35.852,58.91,37.7c3.209,3.608,8.429,2.446,9.483,8.938a10.466,10.466,0,0,1-4.178,9.847,7.959,7.959,0,0,1-1.336.813,9.273,9.273,0,0,1-5.632.459c-4.647-1.1-4.353-5.976-3.417-5.831,2.549,0.4,5.6.651,7.592-1.375a2.988,2.988,0,0,0-.249-4.608c-1.647-1.451-4.172-1.958-6.251-3.212-4.513-2.723-4.528-7.841-2.071-11.9a12.894,12.894,0,0,1-7.759-10.159,18.631,18.631,0,0,1,.071-4.775A12.9,12.9,0,0,1,56.673,5.247a38.164,38.164,0,0,1,3.913-.108A8.05,8.05,0,0,1,68.075,0h1.68a2.4,2.4,0,1,1-.129,4.784h-1.04A1.8,1.8,0,0,0,66.81,6.3h0ZM55.275,11.618a6.962,6.962,0,0,0-3.648,5.192,14.141,14.141,0,0,0-.034,3.158,7.028,7.028,0,0,0,3.424,5.31c2.223,1.25,7.284,1.176,9.372.02a6.983,6.983,0,0,0,3.4-4.882,12.806,12.806,0,0,0-.083-4.2A6.9,6.9,0,0,0,64.13,11.6c-1.956-.962-6.9-0.958-8.855.018h0Z"/>
</svg>
