<svg id="Directv" xmlns="http://www.w3.org/2000/svg" width="175" height="33" viewBox="0 0 175 33">
  <metadata><?xpacket begin="﻿" id="W5M0MpCehiHzreSzNTczkc9d"?>
<x:xmpmeta xmlns:x="adobe:ns:meta/" x:xmptk="Adobe XMP Core 5.6-c138 79.159824, 2016/09/14-01:09:01        ">
   <rdf:RDF xmlns:rdf="http://www.w3.org/1999/02/22-rdf-syntax-ns#">
      <rdf:Description rdf:about=""/>
   </rdf:RDF>
</x:xmpmeta>
                                                                                                    
                                                                                                    
                                                                                                    
                                                                                                    
                                                                                                    
                                                                                                    
                                                                                                    
                                                                                                    
                                                                                                    
                                                                                                    
                                                                                                    
                                                                                                    
                                                                                                    
                                                                                                    
                                                                                                    
                                                                                                    
                                                                                                    
                                                                                                    
                                                                                                    
                                                                                                    
                           
<?xpacket end="w"?></metadata>
<defs>
    <style>
      .cls-1 {
        fill: #fff;
        fill-rule: evenodd;
      }
    </style>
  </defs>
  <path class="cls-1" d="M39.234,30.362H31.851V1.717h7.383V30.362ZM62.113,19.039L62.12,18.9a9.04,9.04,0,0,0,5.439-8.147c0-5.009-4.348-9.07-9.713-9.073L57.84,1.672l-6.027.045H44.43V30.362h7.383V6.86h4.352a4.194,4.194,0,0,1,4.216,4.173h0a4.194,4.194,0,0,1-4.216,4.173H52.724l8.295,15.157H68.4ZM90.05,7.461V1.717H72.071V30.362H90.05V24.618h-10.6V18.5h7.892V13.325H79.454V7.461h10.6Zm53.383-5.789H120.159V7.431h7.93V30.362h7.383V7.431h7.961V1.672Zm3.646,0,11.059,28.69H164l11-28.69h-7.382l-6.579,19.2-6.608-19.2h-7.352ZM28.068,16.5A16.579,16.579,0,0,0,11.876.007H11.863C11.709,0,11.554,0,11.4,0V0.007L0.908,0A0.9,0.9,0,0,0,.1,1.312l1.03,1.975a8.467,8.467,0,0,0,7.554,4.53L11.4,7.8a8.7,8.7,0,1,1,0,17.391h0l-2.714-.013a8.467,8.467,0,0,0-7.554,4.53L0.1,31.689A0.9,0.9,0,0,0,.908,33L11.4,32.994V33q0.222,0,.443-0.006h0.034A16.579,16.579,0,0,0,28.068,16.5Zm64.33-.483A14.414,14.414,0,0,1,106.476,1.678h0.011c0.134,0,.269-0.006.4-0.006V1.677l9.12,0a0.782,0.782,0,0,1,.7,1.14l-0.895,1.717a7.363,7.363,0,0,1-6.568,3.939l-2.359-.011a7.56,7.56,0,1,0,0,15.12h0l2.359-.011a7.363,7.363,0,0,1,6.568,3.939l0.895,1.717a0.781,0.781,0,0,1-.7,1.14l-9.12,0v0c-0.129,0-.258,0-0.385-0.005h-0.03A14.414,14.414,0,0,1,92.4,16.017ZM17.1,16.5a5.424,5.424,0,1,1-5.423-5.368A5.4,5.4,0,0,1,17.1,16.5Z"/>
</svg>
