<svg id="Directv" xmlns="http://www.w3.org/2000/svg" width="205" height="165" viewBox="0 0 205 165">
  <metadata><?xpacket begin="﻿" id="W5M0MpCehiHzreSzNTczkc9d"?>
<x:xmpmeta xmlns:x="adobe:ns:meta/" x:xmptk="Adobe XMP Core 5.6-c138 79.159824, 2016/09/14-01:09:01        ">
   <rdf:RDF xmlns:rdf="http://www.w3.org/1999/02/22-rdf-syntax-ns#">
      <rdf:Description rdf:about=""/>
   </rdf:RDF>
</x:xmpmeta>
                                                                                                    
                                                                                                    
                                                                                                    
                                                                                                    
                                                                                                    
                                                                                                    
                                                                                                    
                                                                                                    
                                                                                                    
                                                                                                    
                                                                                                    
                                                                                                    
                                                                                                    
                                                                                                    
                                                                                                    
                                                                                                    
                                                                                                    
                                                                                                    
                                                                                                    
                                                                                                    
                           
<?xpacket end="w"?></metadata>
<defs>
    <style>
      .cls-1 {
        fill: #00a1e3;
      }

      .cls-2 {
        fill: #0ebcf3;
        fill-rule: evenodd;
      }
    </style>
  </defs>
  <rect id="Rectangle_12_copy_2" data-name="Rectangle 12 copy 2" class="cls-1" width="205" height="165"/>
  <path id="Shape_19_copy" data-name="Shape 19 copy" class="cls-2" d="M149.988,84a56.192,56.192,0,0,0-54.8-55.975v0H95.148Q94.364,28,93.576,28v0.022L58.074,28a3.05,3.05,0,0,0-2.732,4.449l3.486,6.7A28.644,28.644,0,0,0,84.392,54.531l9.184-.043a29.513,29.513,0,1,1,0,59.025v0l-9.184-.043a28.643,28.643,0,0,0-25.564,15.376l-3.486,6.7A3.05,3.05,0,0,0,58.074,140l35.5-.019V140q0.752,0,1.5-.019H95.19v0A56.192,56.192,0,0,0,149.988,84Zm-37.124,0A18.354,18.354,0,1,1,94.511,65.78,18.287,18.287,0,0,1,112.864,84Z"/>
</svg>
