<svg id="Globallink" xmlns="http://www.w3.org/2000/svg" width="175" height="34" viewBox="0 0 175 34">
  <metadata><?xpacket begin="﻿" id="W5M0MpCehiHzreSzNTczkc9d"?>
<x:xmpmeta xmlns:x="adobe:ns:meta/" x:xmptk="Adobe XMP Core 5.6-c138 79.159824, 2016/09/14-01:09:01        ">
   <rdf:RDF xmlns:rdf="http://www.w3.org/1999/02/22-rdf-syntax-ns#">
      <rdf:Description rdf:about=""/>
   </rdf:RDF>
</x:xmpmeta>
                                                                                                    
                                                                                                    
                                                                                                    
                                                                                                    
                                                                                                    
                                                                                                    
                                                                                                    
                                                                                                    
                                                                                                    
                                                                                                    
                                                                                                    
                                                                                                    
                                                                                                    
                                                                                                    
                                                                                                    
                                                                                                    
                                                                                                    
                                                                                                    
                                                                                                    
                                                                                                    
                           
<?xpacket end="w"?></metadata>
<defs>
    <style>
      .cls-1 {
        fill: #fff;
        fill-rule: evenodd;
      }
    </style>
  </defs>
  <path class="cls-1" d="M131.385,6.092h-1.1V29h11.245V27.893H131.385V6.092ZM143.819,28.91h1.1V12.745h-1.1V28.91Zm0.732-22.54a1.109,1.109,0,1,0,1.1,1.109A1.1,1.1,0,0,0,144.551,6.369Zm12.8,6.129c-3-1.081-5.639.785-6.379,1.383-0.414.335-.894,0.764-1.3,1.141V12.651h-1.1V28.91h1.1V16.537c0.373-.357,1.3-1.23,1.989-1.79,0.446-.361,2.8-2.115,5.324-1.2C159.126,14.316,159,17.764,159,17.8V28.91h1.1V17.836C160.1,17.518,160.205,13.528,157.352,12.5ZM173.71,28.91H175l-6.058-9.9,5.215-6.361-1.431.008L164.3,22.938V6h-1.1V28.91h1.1V24.675l3.905-4.762ZM40.051,18.887C40.6,25.676,45.308,28.91,50.2,28.91a11.153,11.153,0,0,0,7.634-2.818L57.7,16.069h-6.72l0.046,4.018h2.56l-0.046,3.834c-2.606,1.247-8.548,1.016-8.548-6.466s6.217-7.067,6.217-7.067h6.628V6H51.3C43.343,6,39.5,12.1,40.051,18.887Zm24.685,4.249C64.691,21.242,64.782,6,64.782,6H59.891V23.275s0,2.956.914,4.111,3.383,1.8,5.943.878V24.891H65.559S64.782,25.03,64.736,23.136Zm58.043,0C122.734,21.242,122.825,6,122.825,6h-4.891V23.275s0,2.956.914,4.111,3.383,1.8,5.943.878V24.891H123.6S122.825,25.03,122.779,23.136ZM94.4,11.313a6.559,6.559,0,0,0-4.663,1.8L89.65,6H84.941V28.263h3.7l0.5-1.8c0.32,0.924,3.337,3.279,6.72,1.8s4.891-4.757,4.572-9.607S97.192,11.45,94.4,11.313ZM94.952,23.09a3.1,3.1,0,0,1-2.7,1.851,4.3,4.3,0,0,1-2.534-1.3v-6.79a4.008,4.008,0,0,1,2.992-1.584,2.922,2.922,0,0,1,2.7,2.924C95.5,19.487,95.638,21.658,94.952,23.09Zm17.28-11.224c-3.566-1.478-8.731.323-10.149,1.709l1.738,3.187s5.805-3.741,7.085.693c0,0-9.371.37-9.325,6.236s6.445,6.189,9.782,3.049l0.366,1.709h3.931l0.092-10.808S115.8,13.344,112.232,11.866ZM110.906,23.69a4.567,4.567,0,0,1-2.88,1.386,1.615,1.615,0,0,1-1.828-1.57c-0.046-.6.457-2.494,4.708-2.818v3ZM75.067,11.313c-4.41,0-7.984,3.939-7.984,8.8s3.575,8.8,7.984,8.8,7.984-3.939,7.984-8.8S79.477,11.313,75.067,11.313Zm2.986,8.861h0a6.424,6.424,0,0,1-.729,3.414,2.944,2.944,0,0,1-2.316,1.353,2.706,2.706,0,0,1-2.255-1.2,6.906,6.906,0,0,1-.791-3.568h0c0-.023,0-0.045,0-0.068s0-.045,0-0.068h0a6.906,6.906,0,0,1,.791-3.568,2.706,2.706,0,0,1,2.255-1.2,2.943,2.943,0,0,1,2.316,1.353,6.424,6.424,0,0,1,.729,3.414h0c0,0.023,0,.045,0,0.068S78.054,20.151,78.054,20.174Z"/>
  <path id="Shape_12_copy" data-name="Shape 12 copy" class="cls-1" d="M27.327,0H0V19.869a8.742,8.742,0,0,0,2.359,5.988L16.656,11.5h-6.35A0.954,0.954,0,0,1,9.641,9.87L13.6,5.937a1.018,1.018,0,0,1,.717-0.3H25.869a1.047,1.047,0,0,1,1.044,1.051V18.225a1.033,1.033,0,0,1-.31.739l-3.958,3.867a0.945,0.945,0,0,1-1.6-.679l-0.033-6.4L8.148,28.59c0.175,0.011.352,0.018,0.53,0.018H29.192L36,34V8.736A8.707,8.707,0,0,0,27.327,0Z"/>
</svg>
