<svg id="Globallink" xmlns="http://www.w3.org/2000/svg" width="205" height="165" viewBox="0 0 205 165">
  <metadata><?xpacket begin="﻿" id="W5M0MpCehiHzreSzNTczkc9d"?>
<x:xmpmeta xmlns:x="adobe:ns:meta/" x:xmptk="Adobe XMP Core 5.6-c138 79.159824, 2016/09/14-01:09:01        ">
   <rdf:RDF xmlns:rdf="http://www.w3.org/1999/02/22-rdf-syntax-ns#">
      <rdf:Description rdf:about=""/>
   </rdf:RDF>
</x:xmpmeta>
                                                                                                    
                                                                                                    
                                                                                                    
                                                                                                    
                                                                                                    
                                                                                                    
                                                                                                    
                                                                                                    
                                                                                                    
                                                                                                    
                                                                                                    
                                                                                                    
                                                                                                    
                                                                                                    
                                                                                                    
                                                                                                    
                                                                                                    
                                                                                                    
                                                                                                    
                                                                                                    
                           
<?xpacket end="w"?></metadata>
<defs>
    <style>
      .cls-1 {
        fill: #332f2e;
      }

      .cls-2 {
        fill: #3f3b3a;
        fill-rule: evenodd;
      }
    </style>
  </defs>
  <rect id="Rectangle_12_copy_2" data-name="Rectangle 12 copy 2" class="cls-1" width="205" height="165"/>
  <path class="cls-2" d="M132.813,31.99h-88.8V95.7a27.822,27.822,0,0,0,7.666,19.2l46.45-46.018H77.492a3.053,3.053,0,0,1-2.157-5.233L88.214,51.034a3.33,3.33,0,0,1,2.33-.949h37.531a3.381,3.381,0,0,1,3.391,3.371V90.428a3.29,3.29,0,0,1-1.009,2.369l-12.863,12.4a3.077,3.077,0,0,1-5.214-2.178L112.273,82.49,70.481,123.657c0.57,0.034,1.143.057,1.722,0.057h66.671L161,141V60.007A28.1,28.1,0,0,0,132.813,31.99Z"/>
</svg>
