<svg xmlns="http://www.w3.org/2000/svg" width="123" height="52" viewBox="0 0 123 52">
  <metadata><?xpacket begin="﻿" id="W5M0MpCehiHzreSzNTczkc9d"?>
<x:xmpmeta xmlns:x="adobe:ns:meta/" x:xmptk="Adobe XMP Core 5.6-c138 79.159824, 2016/09/14-01:09:01        ">
   <rdf:RDF xmlns:rdf="http://www.w3.org/1999/02/22-rdf-syntax-ns#">
      <rdf:Description rdf:about=""/>
   </rdf:RDF>
</x:xmpmeta>
                                                                                                    
                                                                                                    
                                                                                                    
                                                                                                    
                                                                                                    
                                                                                                    
                                                                                                    
                                                                                                    
                                                                                                    
                                                                                                    
                                                                                                    
                                                                                                    
                                                                                                    
                                                                                                    
                                                                                                    
                                                                                                    
                                                                                                    
                                                                                                    
                                                                                                    
                                                                                                    
                           
<?xpacket end="w"?></metadata>
<defs>
    <style>
      .cls-1 {
        fill: #fff;
        fill-rule: evenodd;
      }
    </style>
  </defs>
  <path class="cls-1" d="M0.1,13.936H8.829V49.93H0.1V13.936h0ZM4.462,0.008A4.408,4.408,0,0,1,8.927,4.355,4.408,4.408,0,0,1,4.462,8.7,4.407,4.407,0,0,1,0,4.355,4.407,4.407,0,0,1,4.462.008h0Zm8.93,13.928h8.732V24.248S26.49,13.43,33.734,13.126s10.022,8.8,10.022,10.718a2.655,2.655,0,0,1-.143.759l0.143,0.133V49.93H35.024V24.046s-5.359-10.717-12.9,13.144V49.93H13.392V13.936h0Zm38.5-9,8.732-4.044V14.34h8.632v7.481H60.624V42.107c2.77,4.093,8.632,1.251,8.632,1.251v7.38s-1.191.708-9.426,0.708-7.938-12.457-7.938-12.457V21.821H46.236V14.34h5.657v-9.4h0Zm50.8,9h8.732V20.7c3.48-6.267,11.312-7.066,11.312-7.066v8.9c-6.563-1.072-9.8,5.687-11.312,10.923V49.93H102.7V13.936h0Zm-16.62-.1c5.3,0,10.006,3.007,12.944,7.648a15.6,15.6,0,0,1-.417,8.554S94.136,38.124,79.451,36.3c0,0-1.785,14.358,17.862,6.27v8.8s-7.944,1.168-11.993.333h0c-8.553-.465-15.366-8.758-15.366-18.923,0-10.463,7.219-18.944,16.124-18.944h0Zm-6.823,16.2c0.3-2.528,1.39-9.2,6.946-9.3s9.03,10.112-6.946,9.3h0Zm40.531,14.991a3.181,3.181,0,1,1-3.223,3.181,3.2,3.2,0,0,1,3.223-3.181h0Zm0,0.8a2.378,2.378,0,1,1-2.409,2.378,2.393,2.393,0,0,1,2.409-2.378h0Zm-1.057,3.661V46.6h1.244a2.145,2.145,0,0,1,.682.079,0.667,0.667,0,0,1,.341.276,0.827,0.827,0,0,1,.127.455,0.768,0.768,0,0,1-.193.538,0.935,0.935,0,0,1-.579.266,1.4,1.4,0,0,1,.317.243,3.3,3.3,0,0,1,.336.469l0.358,0.564h-0.708l-0.427-.629a4.4,4.4,0,0,0-.311-0.425,0.467,0.467,0,0,0-.178-0.12,1,1,0,0,0-.3-0.032h-0.119v1.206h-0.592Zm0.592-1.668h0.436a2.339,2.339,0,0,0,.533-0.035,0.318,0.318,0,0,0,.165-0.123,0.378,0.378,0,0,0,.06-0.217,0.347,0.347,0,0,0-.079-0.235,0.37,0.37,0,0,0-.223-0.113c-0.048-.006-0.191-0.009-0.431-0.009h-0.461v0.733h0Z"/>
</svg>
