<svg id="Digitel_copy_3" data-name="Digitel copy 3" xmlns="http://www.w3.org/2000/svg" width="205" height="165" viewBox="0 0 205 165">
  <metadata><?xpacket begin="﻿" id="W5M0MpCehiHzreSzNTczkc9d"?>
<x:xmpmeta xmlns:x="adobe:ns:meta/" x:xmptk="Adobe XMP Core 5.6-c138 79.159824, 2016/09/14-01:09:01        ">
   <rdf:RDF xmlns:rdf="http://www.w3.org/1999/02/22-rdf-syntax-ns#">
      <rdf:Description rdf:about=""/>
   </rdf:RDF>
</x:xmpmeta>
                                                                                                    
                                                                                                    
                                                                                                    
                                                                                                    
                                                                                                    
                                                                                                    
                                                                                                    
                                                                                                    
                                                                                                    
                                                                                                    
                                                                                                    
                                                                                                    
                                                                                                    
                                                                                                    
                                                                                                    
                                                                                                    
                                                                                                    
                                                                                                    
                                                                                                    
                                                                                                    
                           
<?xpacket end="w"?></metadata>
<defs>
    <style>
      .cls-1 {
        fill: #042e8c;
      }

      .cls-2 {
        fill: #1e4aac;
        fill-rule: evenodd;
      }
    </style>
  </defs>
  <rect id="Rectangle_12_copy_3" data-name="Rectangle 12 copy 3" class="cls-1" width="205" height="165"/>
  <path class="cls-2" d="M62.486,81.12l5.335-.842a1.092,1.092,0,0,1,1.255.986l0.476,4.528a1.238,1.238,0,0,1-1.01,1.344l-5.335.842a1.093,1.093,0,0,1-1.256-.987l-0.475-4.528a1.238,1.238,0,0,1,1.011-1.344h0Zm71.787,4.691-5.324.915a1.09,1.09,0,0,1-1.268-.969l-0.535-4.52a1.239,1.239,0,0,1,.993-1.358l5.324-.915a1.092,1.092,0,0,1,1.268.97l0.535,4.52a1.238,1.238,0,0,1-.993,1.358h0Zm62.135-14.53-2.32.033a0.472,0.472,0,0,1-.476-0.5l0.063-1.956a0.527,0.527,0,0,1,.508-0.509l2.319-.033a0.472,0.472,0,0,1,.476.5l-0.062,1.956a0.527,0.527,0,0,1-.508.509h0ZM152.5,82.386l-4.822.767a0.985,0.985,0,0,1-1.135-.889q-0.219-2.047-.436-4.094a1.118,1.118,0,0,1,.912-1.216l4.822-.767a0.988,0.988,0,0,1,1.137.89q0.218,2.047.435,4.093a1.119,1.119,0,0,1-.913,1.217h0Zm8.781-2.222-4.321.62a0.882,0.882,0,0,1-1-.811q-0.169-1.832-.336-3.666a1,1,0,0,1,.831-1.075l4.323-.621a0.884,0.884,0,0,1,1,.812q0.167,1.832.334,3.665a1,1,0,0,1-.831,1.076h0Zm8.783-2.221-3.822.473a0.777,0.777,0,0,1-.871-0.732l-0.237-3.239a0.881,0.881,0,0,1,.75-0.933l3.822-.474a0.78,0.78,0,0,1,.872.732q0.119,1.619.236,3.239a0.879,0.879,0,0,1-.75.933h0Zm8.782-2.219-3.321.327a0.674,0.674,0,0,1-.739-0.653q-0.069-1.406-.137-2.811a0.762,0.762,0,0,1,.669-0.792l3.321-.327a0.677,0.677,0,0,1,.74.653q0.068,1.406.136,2.811a0.763,0.763,0,0,1-.669.792h0Zm8.781-2.221q-1.412.088-2.82,0.179a0.572,0.572,0,0,1-.608-0.574q-0.02-1.192-.037-2.383a0.644,0.644,0,0,1,.588-0.651l2.821-.179a0.573,0.573,0,0,1,.607.574q0.02,1.191.037,2.383a0.645,0.645,0,0,1-.588.651h0Zm-43.906,11.1-5.324.915a1.092,1.092,0,0,1-1.269-.969l-0.535-4.52a1.24,1.24,0,0,1,.993-1.358l5.324-.915a1.092,1.092,0,0,1,1.269.969l0.534,4.521a1.238,1.238,0,0,1-.992,1.358h0ZM66.305,94.07h2.32a0.47,0.47,0,0,1,.469.5l-0.088,1.956a0.527,0.527,0,0,1-.514.5h-2.32a0.472,0.472,0,0,1-.469-0.5l0.089-1.955a0.527,0.527,0,0,1,.514-0.5h0Zm8.81-2.1,2.822-.141a0.572,0.572,0,0,1,.6.582q0,1.193.006,2.384a0.643,0.643,0,0,1-.6.643l-2.823.141a0.573,0.573,0,0,1-.6-0.582q0-1.192-.005-2.384a0.644,0.644,0,0,1,.6-0.643h0Zm8.809-2.1,3.324-.281a0.676,0.676,0,0,1,.731.663q0.051,1.407.1,2.813a0.762,0.762,0,0,1-.68.783l-3.325.281a0.677,0.677,0,0,1-.731-0.663q-0.049-1.406-.1-2.813a0.762,0.762,0,0,1,.68-0.783h0Zm8.81-2.1,3.826-.421a0.778,0.778,0,0,1,.862.743q0.1,1.622.194,3.242a0.881,0.881,0,0,1-.763.923l-3.828.421a0.78,0.78,0,0,1-.862-0.744q-0.1-1.62-.194-3.242a0.879,0.879,0,0,1,.763-0.923h0Zm8.81-2.1,4.33-.562a0.883,0.883,0,0,1,.993.825q0.146,1.835.288,3.67a1,1,0,0,1-.845,1.064l-4.331.562a0.883,0.883,0,0,1-.992-0.825q-0.144-1.835-.287-3.67a1,1,0,0,1,.844-1.064h0Zm8.81-2.1,4.832-.7a0.986,0.986,0,0,1,1.123.905q0.192,2.051.383,4.1a1.119,1.119,0,0,1-.928,1.2l-4.833.7a0.988,0.988,0,0,1-1.124-.905l-0.381-4.1a1.117,1.117,0,0,1,.928-1.2h0Zm8.808-2.1,5.335-.842a1.092,1.092,0,0,1,1.255.987l0.476,4.527a1.237,1.237,0,0,1-1.01,1.344l-5.336.842a1.092,1.092,0,0,1-1.255-.987l-0.475-4.528a1.237,1.237,0,0,1,1.01-1.344h0Zm-41.567,4-5.324.915A1.091,1.091,0,0,1,71,85.412l-0.535-4.52a1.239,1.239,0,0,1,.993-1.358l5.324-.915a1.092,1.092,0,0,1,1.269.969l0.535,4.52a1.239,1.239,0,0,1-.993,1.358h0Zm62.135-14.53-2.32.033a0.472,0.472,0,0,1-.476-0.5L137,68.518a0.527,0.527,0,0,1,.508-0.509l2.32-.033a0.472,0.472,0,0,1,.475.5l-0.063,1.956a0.526,0.526,0,0,1-.507.509h0Zm-43.909,11.1L91,82.808a0.986,0.986,0,0,1-1.136-.89q-0.219-2.047-.436-4.094a1.119,1.119,0,0,1,.912-1.216l4.823-.767a0.988,0.988,0,0,1,1.137.89q0.217,2.047.435,4.093a1.119,1.119,0,0,1-.913,1.217h0ZM104.6,79.82l-4.321.62a0.882,0.882,0,0,1-1-.811q-0.169-1.832-.336-3.666a1,1,0,0,1,.831-1.075l4.324-.621a0.884,0.884,0,0,1,1,.812q0.165,1.832.334,3.665a1,1,0,0,1-.831,1.075h0Zm8.783-2.221-3.822.473a0.777,0.777,0,0,1-.871-0.732L108.456,74.1a0.881,0.881,0,0,1,.75-0.933l3.822-.473a0.78,0.78,0,0,1,.872.732q0.118,1.62.236,3.239a0.879,0.879,0,0,1-.75.933h0Zm8.782-2.219-3.321.327a0.674,0.674,0,0,1-.739-0.653q-0.069-1.406-.137-2.811a0.761,0.761,0,0,1,.669-0.792l3.321-.327a0.677,0.677,0,0,1,.74.653q0.067,1.406.136,2.811a0.763,0.763,0,0,1-.669.792h0Zm8.781-2.221q-1.411.088-2.82,0.179a0.572,0.572,0,0,1-.608-0.574q-0.02-1.192-.037-2.383a0.644,0.644,0,0,1,.588-0.651l2.821-.179a0.573,0.573,0,0,1,.607.574q0.018,1.191.037,2.383a0.645,0.645,0,0,1-.588.651h0Zm-43.907,11.1-5.324.915a1.091,1.091,0,0,1-1.268-.969l-0.535-4.52a1.239,1.239,0,0,1,.993-1.358l5.324-.915a1.092,1.092,0,0,1,1.268.969l0.535,4.52a1.238,1.238,0,0,1-.993,1.358h0ZM9.628,93.726h2.32a0.47,0.47,0,0,1,.469.5l-0.088,1.955a0.527,0.527,0,0,1-.514.5H9.494a0.472,0.472,0,0,1-.469-0.5l0.089-1.955a0.527,0.527,0,0,1,.514-0.5h0Zm8.81-2.1,2.822-.141a0.572,0.572,0,0,1,.6.582q0,1.192.006,2.384a0.643,0.643,0,0,1-.6.643l-2.823.141a0.573,0.573,0,0,1-.6-0.582q0-1.192-.005-2.384a0.644,0.644,0,0,1,.6-0.643h0Zm8.809-2.1,3.324-.281a0.676,0.676,0,0,1,.731.663q0.051,1.408.1,2.813a0.762,0.762,0,0,1-.68.783l-3.325.281a0.677,0.677,0,0,1-.731-0.663q-0.049-1.406-.1-2.813a0.762,0.762,0,0,1,.68-0.783h0Zm8.81-2.1L39.885,87a0.778,0.778,0,0,1,.862.743q0.1,1.622.194,3.242a0.881,0.881,0,0,1-.763.923l-3.828.421a0.78,0.78,0,0,1-.862-0.744q-0.1-1.62-.194-3.242a0.88,0.88,0,0,1,.763-0.923h0Zm8.81-2.1,4.33-.562a0.883,0.883,0,0,1,.993.825q0.145,1.835.288,3.67a1,1,0,0,1-.845,1.064l-4.331.561a0.884,0.884,0,0,1-.993-0.825q-0.143-1.835-.287-3.67a1,1,0,0,1,.845-1.064h0Zm8.809-2.1,4.832-.7a0.987,0.987,0,0,1,1.124.905q0.192,2.051.382,4.1a1.119,1.119,0,0,1-.928,1.2l-4.833.7a0.988,0.988,0,0,1-1.125-.905l-0.381-4.1a1.119,1.119,0,0,1,.928-1.2h0Z"/>
</svg>
