<?xml version="1.0" encoding="utf-8"?>
<!-- Generator: Adobe Illustrator 21.1.0, SVG Export Plug-In . SVG Version: 6.00 Build 0)  -->
<svg version="1.1" id="Layer_1" xmlns="http://www.w3.org/2000/svg" xmlns:xlink="http://www.w3.org/1999/xlink" x="0px" y="0px"
	 viewBox="0 0 378 48" style="enable-background:new 0 0 378 48;" xml:space="preserve">
<style type="text/css">
	.st0{fill-rule:evenodd;clip-rule:evenodd;fill:#FFFFFF;}
	.st1{fill:#FFFFFF;}
</style>
<g>
	<path class="st0" d="M152.9,12l-9.7,26.7h-6.4l9.6-26.7c0.2-0.5,0.5-0.8,0.9-0.8h5.1C152.8,11.3,153.1,11.6,152.9,12z M133.7,38.8
		h-6.4l9.6-26.7c0.2-0.5,0.5-0.8,0.9-0.8h5.1c0.5,0,0.7,0.3,0.5,0.8L133.7,38.8z M124,38.4c-0.1,0.2-0.2,0.3-0.3,0.4H118
		c-0.1-0.1-0.2-0.2-0.1-0.4l0.4-1.2h0c-0.7,0.7-1.6,1.2-2.7,1.6h-5.5c-1.5-0.7-2.3-2.3-1.9-4.4c0.9-4.9,4.7-7.5,10.6-7.5h3
		c0.2,0,0.3-0.1,0.4-0.2l0.2-0.7c0.6-1.5,0.1-2.1-2.9-2.1c-1.7,0-3.4,0.5-4.5,1.1c-0.3,0.1-0.4,0.1-0.5-0.2l-0.8-3.6
		c0-0.2,0.1-0.4,0.3-0.6c2.1-1.2,5.1-1.9,8.1-1.9c5.9,0,8.3,1.8,6.3,7.3L124,38.4z M120.3,30.8h-2.3c-2,0-3.1,0.8-3.4,2.3
		c-0.2,0.9,0.4,1.5,1.7,1.5c2,0,3.2-0.7,3.7-2.2l0.4-1.3C120.6,30.9,120.5,30.8,120.3,30.8z M150,33.2c1.6,0,2.8,1.2,2.8,2.8
		c0,1.6-1.2,2.8-2.8,2.8s-2.8-1.2-2.8-2.8C147.2,34.4,148.4,33.2,150,33.2z M150,38.2c1.2,0,2.2-1,2.2-2.2c0-1.3-0.9-2.2-2.2-2.2
		s-2.2,1-2.2,2.2C147.8,37.3,148.8,38.2,150,38.2z M149,34.4h1.2c0.7,0,1.1,0.3,1.1,1c0,0.4-0.2,0.7-0.6,0.9l0.6,1.2
		c0,0.1,0,0.1-0.1,0.1h-0.5c-0.1,0-0.1,0-0.1-0.1l-0.6-1.1h-0.4c0,0-0.1,0-0.1,0.1v1c0,0.1,0,0.1-0.1,0.1H149c-0.1,0-0.1,0-0.1-0.1
		v-2.9C148.9,34.4,148.9,34.4,149,34.4z M149.6,35.7C149.6,35.7,149.6,35.7,149.6,35.7l0.6,0.1c0.3,0,0.5-0.1,0.5-0.4
		c0-0.2-0.2-0.4-0.5-0.4h-0.6c0,0-0.1,0-0.1,0.1V35.7z"/>
	<path class="st1" d="M51.7,38.3c-0.1,0.2,0,0.4,0.3,0.4h3.6c0.2,0,0.4-0.2,0.5-0.4l3.6-9.9c0-0.2,0.2-0.2,0.3-0.2h4.4
		c5.8,0,10.8-3.5,12.1-10.2c0.8-4.1-1.5-6.7-6-6.7h-8.7c-0.2,0-0.4,0.2-0.5,0.4L51.7,38.3z M61.5,24.1c-0.2,0-0.2-0.1-0.2-0.2l3-8.3
		c0.1-0.2,0.2-0.2,0.3-0.2h4.1c2.4,0,3.5,1.4,3.1,3.4c-0.6,3.3-3.3,5.4-6.3,5.4H61.5z"/>
	<path class="st1" d="M85.9,38.7c0.2,0,0.4-0.2,0.5-0.4l4.6-12.8c1.7-4.8,0.2-6.7-5.3-6.7c-2.7,0-5.4,0.8-7.2,1.9
		c-0.2,0.1-0.3,0.3-0.3,0.5l0.5,2.5c0,0.2,0.2,0.2,0.5,0.1c1.1-0.7,2.7-1.4,4.8-1.4c3.2,0,3.7,1,2.9,3.3l-0.4,1.1
		c-0.1,0.2-0.2,0.2-0.4,0.2h-3.8c-5.4,0-9,2.4-9.9,7c-0.6,3.1,1.3,5,4.3,5c2.7,0,4.7-1,6.1-2.3h0l-0.5,1.5c-0.1,0.2,0,0.4,0.2,0.4
		H85.9z M79.3,35.7c-1.9,0-2.6-0.8-2.4-2.1c0.4-2.1,1.8-3.2,5.1-3.2h3.1c0.2,0,0.2,0.1,0.2,0.2l-0.6,1.7
		C83.8,34.5,81.9,35.7,79.3,35.7z"/>
	<path class="st1" d="M89.1,46c3,0,5.1-1.4,8.3-6L112,19.7c0.2-0.2,0-0.4-0.2-0.4h-3.7c-0.2,0-0.4,0.1-0.6,0.4l-8.8,12.9h-0.1
		l0.5-12.9c0-0.3-0.1-0.4-0.3-0.4h-3.6c-0.2,0-0.4,0.2-0.4,0.4l0.1,18.4l-1.2,1.7c-1.3,1.8-2.2,2.5-3.7,2.5h-0.7
		c-0.2,0-0.5,0.2-0.6,0.4l-1.1,3c-0.1,0.2,0,0.4,0.2,0.4H89.1z"/>
	<path class="st0" d="M19.2,23.6L10.8,30l6.5-1.1c-1.8,5-3.4,9.7-4.7,13.2c-1.4,3.8-4.6,6-8.6,6C1.9,48,0,48,0,48L15,5.4
		c1-3,4.2-5.4,7.7-5.4h4.7C27.5,0,23.4,11.7,19.2,23.6z"/>
	<path class="st1" d="M25.4,30.7c4.6,0,9.3-1.2,13.1-3.9c4-2.7,6.8-6.9,8.1-11.6c0.6-2.1,0.8-4.4,0.3-6.6c-0.2-0.8-0.5-1.5-0.7-2.2
		c-0.6-1.2-1.4-2.4-2.5-3.3c-1.2-1.2-2.7-1.9-4.2-2.5c-1.6-0.5-3.4-0.7-5.1-0.6c-4.4,0-3.7,0-3.7,0L21.6,26l-10.7,3.8l-0.4,1
		C10.5,30.7,23,30.7,25.4,30.7z"/>
	<path class="st1" d="M219,34.6c0,0.1,0,0.2,0.2,0.2h1c0.1,0,0.2-0.1,0.2-0.2l0.2-1.4c0-0.1,0-0.2-0.2-0.2h-1
		c-0.1,0-0.2,0.1-0.2,0.2L219,34.6z"/>
	<path class="st1" d="M223.5,34.6c0,0.1,0,0.2,0.2,0.2h1c0.1,0,0.2-0.1,0.2-0.2l0.2-1.4c0-0.1,0-0.2-0.2-0.2h-1
		c-0.1,0-0.2,0.1-0.2,0.2L223.5,34.6z"/>
	<path class="st1" d="M228,34.6c0,0.1,0,0.2,0.2,0.2h1c0.1,0,0.2-0.1,0.2-0.2l0.2-1.4c0-0.1,0-0.2-0.2-0.2h-1
		c-0.1,0-0.2,0.1-0.2,0.2L228,34.6z"/>
	<path class="st1" d="M232.4,38.8c1.3,0,2.1-0.5,3.4-2.9l6-11.2c0.1-0.1,0-0.2-0.1-0.2h-0.8c-0.1,0-0.2,0.1-0.3,0.2l-4.5,8.4h0
		l-1.5-8.4c0-0.2-0.1-0.2-0.2-0.2h-0.7c-0.1,0-0.2,0.1-0.2,0.2l1.9,10l-0.6,1.1c-0.9,1.6-1.4,2-2.3,2h-0.4c-0.1,0-0.2,0.1-0.3,0.2
		l-0.1,0.6c0,0.1,0,0.2,0.2,0.2H232.4z"/>
	<path class="st1" d="M247.9,38.8c0.1,0,0.2-0.1,0.2-0.2l0.9-5.3h0c0.3,1,1.2,1.8,2.7,1.8c1.7,0,3-0.8,3.8-2.4c0.5-1,1.1-3.3,1.1-5
		c0-2.1-1-3.4-3-3.4c-1.6,0-2.6,0.7-3.3,1.7h0l0.2-1.3c0-0.1,0-0.2-0.2-0.2h-0.7c-0.1,0-0.2,0.1-0.2,0.2l-2.4,13.9
		c0,0.1,0,0.2,0.2,0.2H247.9z M251.8,34c-1.5,0-2.3-1-2.3-2.4c0-1.2,0.5-3.6,0.8-4.3c0.7-1.4,1.8-2,3-2c1.6,0,2.3,1,2.3,2.5
		c0,1.2-0.4,3.2-0.9,4.3C254,33.3,253.1,34,251.8,34z"/>
	<path class="st1" d="M265.4,34.8c0.1,0,0.2-0.1,0.2-0.2l1.2-7c0.4-2.5-0.5-3.4-3-3.4c-1.5,0-2.6,0.4-3.4,1
		c-0.1,0.1-0.1,0.2-0.1,0.3l0.3,0.5c0.1,0.1,0.2,0.2,0.3,0c0.6-0.5,1.5-0.8,2.6-0.8c2,0,2.4,0.7,2.1,2.4l-0.2,1.1
		c0,0.1-0.1,0.1-0.2,0.1H263c-2.8,0-4.3,1.2-4.3,3.6c0,1.6,1.1,2.6,2.8,2.6c1.6,0,2.8-0.7,3.4-1.5h0l-0.2,1.1c0,0.1,0,0.2,0.2,0.2
		H265.4z M261.9,34.1c-1.5,0-2.1-0.7-2.1-1.7c0-1.5,0.9-2.5,3.3-2.5h2.4c0.1,0,0.1,0,0.1,0.1l-0.3,1.6
		C264.9,33.1,263.6,34.1,261.9,34.1z"/>
	<path class="st1" d="M271.8,39c2.4,0,4-1.2,4.6-4.4l1.7-10c0-0.1,0-0.2-0.2-0.2h-0.6c-0.1,0-0.2,0.1-0.3,0.2l-0.2,1.3h0
		c-0.3-1-1.1-1.8-2.6-1.8c-1.7,0-2.9,0.8-3.7,2.5c-0.7,1.4-1,3.6-1,4.9c0,2,1,3.3,3,3.3c1.5,0,2.5-0.6,3.2-1.7h0l-0.2,1.4
		c-0.4,2.3-1.6,3.3-3.4,3.3c-1.1,0-1.8-0.5-2.3-1.2c-0.1-0.1-0.2-0.1-0.3-0.1l-0.5,0.4c-0.1,0.1-0.2,0.2-0.1,0.3
		C269.4,38.4,270.5,39,271.8,39z M272.7,33.9c-1.6,0-2.2-1-2.2-2.4c0-1.3,0.3-3.1,0.9-4.3c0.6-1.2,1.5-1.9,2.8-1.9
		c1.5,0,2.2,1,2.2,2.4c0,1-0.4,3.4-0.9,4.3C274.9,33.3,273.8,33.9,272.7,33.9z"/>
	<path class="st1" d="M286.9,34.8c0.1,0,0.2-0.1,0.2-0.2l1.2-7c0.4-2.5-0.5-3.4-3-3.4c-1.5,0-2.6,0.4-3.4,1
		c-0.1,0.1-0.1,0.2-0.1,0.3l0.3,0.5c0.1,0.1,0.2,0.2,0.3,0c0.6-0.5,1.5-0.8,2.6-0.8c2,0,2.4,0.7,2.1,2.4l-0.2,1.1
		c0,0.1-0.1,0.1-0.2,0.1h-2.5c-2.8,0-4.3,1.2-4.3,3.6c0,1.6,1.1,2.6,2.8,2.6c1.6,0,2.8-0.7,3.4-1.5h0l-0.2,1.1c0,0.1,0,0.2,0.2,0.2
		H286.9z M283.3,34.1c-1.5,0-2.1-0.7-2.1-1.7c0-1.5,0.9-2.5,3.3-2.5h2.4c0.1,0,0.1,0,0.1,0.1l-0.3,1.6
		C286.4,33.1,285.1,34.1,283.3,34.1z"/>
	<path class="st1" d="M299.9,35c0.1,0,0.2-0.1,0.2-0.2l0.4-2.1c0-0.1,0-0.2-0.2-0.2h-0.5c-0.7,0-0.9-0.3-0.8-1.1l0.9-4.8
		c0-0.1,0.1-0.1,0.1-0.1h1.3c0.1,0,0.2-0.1,0.3-0.2l0.3-1.7c0-0.1,0-0.2-0.2-0.2h-1.3c-0.1,0-0.1,0-0.1-0.1l0.5-2.8
		c0-0.1,0-0.2-0.2-0.2h-2.4c-0.1,0-0.2,0.1-0.3,0.2l-0.5,2.8c0,0.1-0.1,0.1-0.2,0.1h-0.6c-0.1,0-0.2,0.1-0.2,0.2l-0.3,1.7
		c0,0.1,0,0.2,0.2,0.2h0.6c0.1,0,0.1,0,0.1,0.1l-0.9,4.9c-0.4,2.4,0.2,3.5,2.6,3.5H299.9z"/>
	<path class="st1" d="M305,34.8c0.1,0,0.2-0.1,0.2-0.2l1-5.6c0.3-1.5,0.9-2.4,2-2.4c0.5,0,0.9,0.2,1.3,0.5c0.1,0.1,0.2,0.1,0.3,0
		l1.5-2.1c0.1-0.1,0.1-0.2,0-0.3c-0.3-0.4-1-0.6-1.7-0.6c-1.2,0-2.2,0.5-2.8,1.4h0l0.2-0.9c0-0.1,0-0.2-0.2-0.2h-2.5
		c-0.1,0-0.2,0.1-0.2,0.2l-1.8,10.1c0,0.1,0.1,0.2,0.2,0.2H305z"/>
	<path class="st1" d="M318.9,34.8c0.1,0,0.2-0.1,0.2-0.2l1.2-6.8c0.5-2.8-0.7-3.8-3.8-3.8c-1.5,0-3,0.4-3.9,1
		c-0.1,0.1-0.2,0.2-0.1,0.3l0.6,1.6c0,0.1,0.1,0.2,0.3,0.1c0.5-0.4,1.3-0.7,2.4-0.7c1.7,0,2,0.5,1.8,1.5l-0.1,0.5
		c0,0.1-0.1,0.1-0.2,0.1h-1.8c-3.1,0-4.8,1.4-4.8,3.9c0,1.7,1.3,2.7,2.8,2.7c1.4,0,2.4-0.5,3-1.2h0l-0.1,0.7c0,0.1,0.1,0.2,0.2,0.2
		H318.9z M314.8,32.9c-0.9,0-1.3-0.4-1.3-1c0-1,0.6-1.5,2-1.5h1.5c0.1,0,0.1,0,0.1,0.1l-0.1,0.8C316.9,32.4,316.1,32.9,314.8,32.9z"
		/>
	<path class="st1" d="M330.5,34.8c0.1,0,0.2-0.1,0.2-0.2l1.2-6.7c0.4-2.2-0.5-3.9-2.7-3.9c-1.3,0-2.3,0.5-2.9,1.2h0l0.2-0.8
		c0-0.1,0-0.2-0.2-0.2h-2.5c-0.1,0-0.2,0.1-0.2,0.2l-1.8,10.1c0,0.1,0.1,0.2,0.2,0.2h2.5c0.1,0,0.2-0.1,0.2-0.2l1.1-6.1
		c0.2-1.2,1-2,2-2c1,0,1.4,0.8,1.2,2l-1.1,6.1c0,0.1,0.1,0.2,0.2,0.2H330.5z"/>
	<path class="st1" d="M341.2,38.8c0.1,0,0.2-0.1,0.2-0.2l2.5-14.1c0-0.1-0.1-0.2-0.2-0.2h-2.5c-0.1,0-0.2,0.1-0.2,0.2l-0.2,0.8h0
		c-0.3-0.7-1.1-1.3-2.5-1.3c-1.7,0-3,0.7-3.8,2.4c-0.7,1.4-1.1,3.8-1.1,5.2c0,2.1,1,3.5,3,3.5c1.3,0,2.3-0.5,2.9-1.3h0l-0.8,4.7
		c0,0.1,0,0.2,0.2,0.2H341.2z M337.8,32.6c-1,0-1.4-0.6-1.4-1.6c0-0.8,0.3-2.6,0.7-3.3c0.4-0.8,1-1.2,1.8-1.2c1,0,1.4,0.6,1.4,1.6
		c0,0.8-0.3,2.6-0.7,3.3C339.2,32.2,338.6,32.6,337.8,32.6z"/>
	<path class="st1" d="M346.7,24.3c-0.1,0-0.2,0.1-0.2,0.2l-1.2,6.7c-0.4,2.3,0.5,3.9,2.7,3.9c1.3,0,2.2-0.5,2.8-1.2h0l-0.1,0.8
		c0,0.1,0,0.2,0.2,0.2h2.5c0.1,0,0.2-0.1,0.2-0.2l1.8-10.1c0-0.1-0.1-0.2-0.2-0.2h-2.5c-0.1,0-0.2,0.1-0.2,0.2l-1.1,6.1
		c-0.2,1.2-0.9,2-1.9,2c-1,0-1.4-0.8-1.2-2l1.1-6.1c0-0.1-0.1-0.2-0.2-0.2H346.7z"/>
	<path class="st1" d="M361.1,22.5c0.1,0,0.2-0.1,0.2-0.2l0.4-2.1c0-0.1,0-0.2-0.2-0.2H359c-0.1,0-0.2,0.1-0.2,0.2l-0.4,2.1
		c0,0.1,0,0.2,0.2,0.2H361.1z M358.9,34.8c0.1,0,0.2-0.1,0.2-0.2l1.8-10.1c0-0.1,0-0.2-0.2-0.2h-2.5c-0.1,0-0.2,0.1-0.2,0.2
		l-1.8,10.1c0,0.1,0.1,0.2,0.2,0.2H358.9z"/>
	<path class="st1" d="M365.9,35c0.1,0,0.2-0.1,0.3-0.2l0.3-2.1c0-0.1,0-0.2-0.2-0.2h-0.4c-0.6,0-0.8-0.3-0.7-1l2-11.3
		c0-0.1-0.1-0.2-0.2-0.2h-2.5c-0.1,0-0.2,0.1-0.2,0.2l-2,11.5c-0.4,2.2,0.2,3.3,2.5,3.3H365.9z"/>
	<path class="st1" d="M372.2,35.1c2.2,0,3.9-0.8,4.8-2.8c0.6-1.2,0.9-3.2,0.9-4.4c0-2.4-1.5-3.8-3.9-3.8c-2.2,0-3.9,0.8-4.8,2.8
		c-0.6,1.2-0.9,3.2-0.9,4.4C368.3,33.7,369.8,35.1,372.2,35.1z M372.6,32.6c-1,0-1.4-0.6-1.4-1.6c0-0.7,0.3-2.5,0.7-3.3
		c0.4-0.8,1-1.2,1.8-1.2c1,0,1.4,0.6,1.4,1.6c0,0.7-0.3,2.5-0.7,3.3C374,32.2,373.4,32.6,372.6,32.6z"/>
</g>
</svg>
