<svg id="Movistar" xmlns="http://www.w3.org/2000/svg" width="205" height="165" viewBox="0 0 205 165">
  <metadata><?xpacket begin="﻿" id="W5M0MpCehiHzreSzNTczkc9d"?>
<x:xmpmeta xmlns:x="adobe:ns:meta/" x:xmptk="Adobe XMP Core 5.6-c138 79.159824, 2016/09/14-01:09:01        ">
   <rdf:RDF xmlns:rdf="http://www.w3.org/1999/02/22-rdf-syntax-ns#">
      <rdf:Description rdf:about=""/>
   </rdf:RDF>
</x:xmpmeta>
                                                                                                    
                                                                                                    
                                                                                                    
                                                                                                    
                                                                                                    
                                                                                                    
                                                                                                    
                                                                                                    
                                                                                                    
                                                                                                    
                                                                                                    
                                                                                                    
                                                                                                    
                                                                                                    
                                                                                                    
                                                                                                    
                                                                                                    
                                                                                                    
                                                                                                    
                                                                                                    
                           
<?xpacket end="w"?></metadata>
<defs>
    <style>
      .cls-1 {
        fill: #00abe1;
      }

      .cls-2 {
        fill: #13c3fa;
        fill-rule: evenodd;
      }
    </style>
  </defs>
  <rect id="Rectangle_12_copy" data-name="Rectangle 12 copy" class="cls-1" width="205" height="165"/>
  <path id="Movistar_copy" data-name="Movistar copy" class="cls-2" d="M148.624,22.513c4.9-.764,10.34-0.873,14.7,1.9,6.291,3.741,9.884,10.519,12.365,17.168,6.976,19.172,7.641,40.14,4.713,60.177-0.655,5.13-2.62,10.925-7.651,13.257-2.977,1-6.788.735-8.852-1.905-3.334-4.029-2.282-9.586-2-14.379a122.711,122.711,0,0,0,1.151-22.884c-0.03-3.483-1.2-7.254-4.188-9.308-2.52-1.905-6.162-1.538-8.663.208-4.237,2.749-7.016,7.175-9.289,11.581-5.576,11.482-8.663,23.936-12.821,35.953-2.084,5.587-5.448,10.906-10.439,14.31-5.984,4.217-13.586,5.329-20.75,5.071-9.15-.437-17.386-6.183-22.189-13.784-5.984-9.675-11.313-19.748-17.158-29.5-1.856-2.838-4.357-6.47-8.227-6.053-4.069.377-5.607,4.932-5.478,8.445,0.288,12.037,6.113,23,8.187,34.722,0.724,3.613-.308,8.148-3.949,9.785a17.387,17.387,0,0,1-6.758.01c-3.235-1.231-4.912-4.575-6.361-7.482a145.119,145.119,0,0,1-9.814-37.948c0.228-6.659-.4-13.407,1.012-19.976,1.925-10.718,4.872-22.06,12.821-29.979,6.847-6.937,18.636-9,26.942-3.533,8.058,5.587,13.04,14.26,18.329,22.278,3.88,6.172,7.5,13.436,14.627,16.4a12.916,12.916,0,0,0,14.826-3.1c2.59-2.669,3.87-6.232,5.24-9.616,2.907-7.284,5.805-14.558,8.99-21.723C131.556,33.429,138.691,24.9,148.624,22.513Z"/>
</svg>
