<svg id="Movilnet" xmlns="http://www.w3.org/2000/svg" width="175" height="33" viewBox="0 0 175 33">
  <metadata><?xpacket begin="﻿" id="W5M0MpCehiHzreSzNTczkc9d"?>
<x:xmpmeta xmlns:x="adobe:ns:meta/" x:xmptk="Adobe XMP Core 5.6-c138 79.159824, 2016/09/14-01:09:01        ">
   <rdf:RDF xmlns:rdf="http://www.w3.org/1999/02/22-rdf-syntax-ns#">
      <rdf:Description rdf:about=""/>
   </rdf:RDF>
</x:xmpmeta>
                                                                                                    
                                                                                                    
                                                                                                    
                                                                                                    
                                                                                                    
                                                                                                    
                                                                                                    
                                                                                                    
                                                                                                    
                                                                                                    
                                                                                                    
                                                                                                    
                                                                                                    
                                                                                                    
                                                                                                    
                                                                                                    
                                                                                                    
                                                                                                    
                                                                                                    
                                                                                                    
                           
<?xpacket end="w"?></metadata>
<defs>
    <style>
      .cls-1 {
        fill: #fff;
        fill-rule: evenodd;
      }
    </style>
  </defs>
  <path id="Movilnet-2" data-name="Movilnet" class="cls-1" d="M90.131,9.676L86.352,32.9h7.176L97.308,9.676H90.131ZM147.76,9.817a15.463,15.463,0,0,0-7.8,3.428c-3.762,3.557-5.649,9.1-3.446,13.9,2.6,4.561,7.15,5.861,11.248,5.748a17.32,17.32,0,0,0,7.189-1.718l0.765-5A17.764,17.764,0,0,1,147.76,27.8c-2.989-.175-5.413-1.517-5.084-5.107h15.756a53.076,53.076,0,0,0,.669-5.448C158.832,11.439,153.371,9.042,147.76,9.817Zm4.345,8.174-0.023.527H143.4l0.123-.484a5.58,5.58,0,0,1,4.233-3.857C150.021,13.684,152.282,14.707,152.1,17.991ZM21.524,9.873C17.118,6.79,8.418,9.06,3.678,11.362L0.009,32.9H7.144L9.98,15.961c1.49-1.166,4.356-1.65,5.964-.451,0.86,0.864.743,1.881,0.684,2.966L14.259,32.9h7.223l2.751-16.959,0-.018c1.49-1.168,4.356-1.651,5.964-.453,0.912,0.767.791,2.262,0.684,2.965L28.535,32.863h7.2L38.271,17.7C40.313,6.714,28.181,7.647,21.524,9.873Zm59.578-.2c-2.366,5.131-4.812,10.229-7.178,15.361-0.742-5.12-1.5-10.237-2.179-15.361H64.182C65.571,17.425,67.1,25.165,68.6,32.9h7.854c3.978-7.756,8.012-15.485,12.019-23.226H81.1ZM171.19,27.858c-3.265,0-2.574-3.206-2.261-5.678l1.3-8.84h3.418l0.8-5.391h-3.42L172.1,0.835l-7.309,1.784L161.48,24.985c-1.659,9.1,6.957,8.922,12.709,7.618l0.8-5.463A15.921,15.921,0,0,1,171.19,27.858ZM113.156,11.294l-3.671,21.54h7.136l2.836-16.94c1.491-1.166,4.358-1.65,5.966-.451,1.111,1.119.685,2.946,0.534,4.381l-2.2,13.01h7.205l2.532-15.167C135.273,6.71,119.953,8,113.156,11.294ZM94.469,0.251a3.494,3.494,0,0,0-3.614,3.361,3.625,3.625,0,0,0,7.23,0A3.494,3.494,0,0,0,94.469.251Zm9.849,0.39-5.274,32.2h7.225l5.225-32.2h-7.176ZM52.955,9.688A13.7,13.7,0,0,0,39.575,21.3C38.791,27.707,43.509,32.9,50.113,32.9A13.7,13.7,0,0,0,63.492,21.3C64.277,14.886,59.559,9.688,52.955,9.688ZM56.769,21.3c-0.744,3.816-3.691,6.91-6.582,6.91S45.554,25.112,46.3,21.3s3.691-6.91,6.582-6.91S57.514,17.48,56.769,21.3Z"/>
</svg>
