<svg id="Movistar" xmlns="http://www.w3.org/2000/svg" width="175" height="34" viewBox="0 0 175 34">
  <metadata><?xpacket begin="﻿" id="W5M0MpCehiHzreSzNTczkc9d"?>
<x:xmpmeta xmlns:x="adobe:ns:meta/" x:xmptk="Adobe XMP Core 5.6-c138 79.159824, 2016/09/14-01:09:01        ">
   <rdf:RDF xmlns:rdf="http://www.w3.org/1999/02/22-rdf-syntax-ns#">
      <rdf:Description rdf:about=""/>
   </rdf:RDF>
</x:xmpmeta>
                                                                                                    
                                                                                                    
                                                                                                    
                                                                                                    
                                                                                                    
                                                                                                    
                                                                                                    
                                                                                                    
                                                                                                    
                                                                                                    
                                                                                                    
                                                                                                    
                                                                                                    
                                                                                                    
                                                                                                    
                                                                                                    
                                                                                                    
                                                                                                    
                                                                                                    
                                                                                                    
                           
<?xpacket end="w"?></metadata>
<defs>
    <style>
      .cls-1 {
        fill: #fff;
        fill-rule: evenodd;
      }
    </style>
  </defs>
  <path id="Movistar-2" data-name="Movistar" class="cls-1" d="M36.143,0.131a6.164,6.164,0,0,1,4.3.558,9.422,9.422,0,0,1,3.62,5.05,36.658,36.658,0,0,1,1.38,17.7c-0.192,1.509-.767,3.214-2.24,3.9a2.33,2.33,0,0,1-2.591-.56c-0.976-1.185-.668-2.82-0.587-4.23a36.239,36.239,0,0,0,.337-6.731,3.3,3.3,0,0,0-1.226-2.738,2.2,2.2,0,0,0-2.536.061,8.546,8.546,0,0,0-2.719,3.407c-1.633,3.377-2.536,7.041-3.753,10.576a8.66,8.66,0,0,1-3.056,4.209A9.836,9.836,0,0,1,21,32.826a8.4,8.4,0,0,1-6.5-4.055c-1.752-2.846-3.312-5.809-5.022-8.679-0.543-.835-1.275-1.9-2.408-1.781-1.191.111-1.641,1.451-1.6,2.484,0.084,3.541,1.789,6.767,2.4,10.214a2.549,2.549,0,0,1-1.156,2.878,5.072,5.072,0,0,1-1.978,0,3.994,3.994,0,0,1-1.862-2.2A42.858,42.858,0,0,1,0,20.528a33.367,33.367,0,0,1,.3-5.876C0.858,11.5,1.721,8.162,4.048,5.833a6.43,6.43,0,0,1,7.887-1.039c2.359,1.644,3.817,4.195,5.365,6.553,1.136,1.816,2.2,3.953,4.282,4.825a3.767,3.767,0,0,0,4.34-.911,8.407,8.407,0,0,0,1.534-2.829c0.851-2.143,1.7-4.282,2.632-6.39C31.147,3.342,33.236.832,36.143,0.131Zm104.3,6.8a28.988,28.988,0,0,1,3.265,0c0.082,1.1-.066,2.2.1,3.3a29.8,29.8,0,0,1,3.344.018,12.1,12.1,0,0,1-.073,2.916c-1.11-.021-2.216-0.015-3.323.006-0.052,2.347-.012,4.7-0.026,7.047a3.959,3.959,0,0,0,.752,2.893c0.75,0.721,1.877.61,2.835,0.7a9.572,9.572,0,0,1-.038,3.036c-1.821.02-3.825-.015-5.313-1.223a5.792,5.792,0,0,1-1.76-4.5c-0.026-4.379.018-8.76-.017-13.139C140.264,7.657,140.012,7.044,140.444,6.93ZM58.165,11.472c1.647-1.486,3.994-1.67,6.106-1.591a7.627,7.627,0,0,1,4.8,1.55c1.519-1.585,3.875-1.591,5.908-1.55a6.641,6.641,0,0,1,5.092,2.008A6.175,6.175,0,0,1,81.2,15.845c0.012,2.91,0,5.821.006,8.734a7.383,7.383,0,0,1-.157,2.262c-1.081-.047-2.161.05-3.236-0.055L77.7,26.623c-0.116-3.792.1-7.6-.122-11.385a2.322,2.322,0,0,0-2.24-2.192c-1.3-.082-2.809-0.239-3.869.686-0.79.654-.7,1.772-0.746,2.7-0.035,3.013-.02,6.028-0.012,9.041a2.061,2.061,0,0,1-.227,1.337,22.05,22.05,0,0,1-3.314-.049c0-3.845.09-7.689-.093-11.531a2.447,2.447,0,0,0-2.487-2.2,5.88,5.88,0,0,0-3.274.423,2.112,2.112,0,0,0-1.043,1.789c-0.25,3.859-.014,7.73-0.16,11.592-1.113,0-2.225-.009-3.335.009a6.9,6.9,0,0,1-.139-1.637c0.038-3.22-.029-6.44.032-9.657a5.376,5.376,0,0,1,1.5-4.072h0Zm30.347-1.258a12.39,12.39,0,0,1,7.794.557c2.26,1.165,2.829,3.938,2.922,6.267,0.035,2.557.189,5.354-1.205,7.616-1.3,2.04-3.936,2.51-6.167,2.458-2.138.058-4.569-.248-6.068-1.947-1.621-2.032-1.606-4.811-1.609-7.283,0.064-2.023.244-4.235,1.508-5.9a5.325,5.325,0,0,1,2.826-1.766m1.455,2.9a2.644,2.644,0,0,0-1.949,2.1,19.883,19.883,0,0,0-.012,6.507,2.634,2.634,0,0,0,1.551,2.017,7.44,7.44,0,0,0,4.061.088,2.546,2.546,0,0,0,1.8-2.006,19.335,19.335,0,0,0,0-6.682,2.689,2.689,0,0,0-2.132-2.064A11.369,11.369,0,0,0,89.967,13.113ZM127.686,10.7c2.379-1.194,5.174-.873,7.713-0.49,0.328,0.128.984,0.011,1.048,0.487,0.041,0.8.032,1.611,0.015,2.417l-0.407.166a17.035,17.035,0,0,0-5.595-.353,1.717,1.717,0,0,0-1.652,1.436,1.5,1.5,0,0,0,1.057,1.544c2.045,0.943,4.363,1.381,6.17,2.794,1.513,1.159,1.664,3.334,1.182,5.044-0.764,2.172-3.126,3.2-5.269,3.319a14.144,14.144,0,0,1-6.086-.756,7.212,7.212,0,0,1-.1-2.913c2.313,0.561,4.8,1.174,7.135.412a1.644,1.644,0,0,0,.6-2.82c-2.074-1.279-4.656-1.527-6.632-2.995a4.576,4.576,0,0,1,.825-7.292h0Zm23.619,0.178a0.645,0.645,0,0,1,.7-0.686,20.655,20.655,0,0,1,7.228,0,5.353,5.353,0,0,1,3.669,2.814c0.83,1.8.514,3.83,0.575,5.748-0.041,1.892.212,3.906-.625,5.672-0.807,1.693-2.765,2.4-4.5,2.621-2.165.134-4.486,0.16-6.435-.931-3.207-1.8-3.082-7.292.2-8.959,2.417-1.282,5.249-.864,7.846-0.566,0.07-1.226-.125-2.756-1.394-3.307-2.333-.908-4.849-0.149-7.254-0.169-0.006-.747-0.035-1.495-0.009-2.239m2.35,12.325c0.971,1.057,2.536.978,3.847,0.931a2.444,2.444,0,0,0,2.265-1.293,14.24,14.24,0,0,0,.2-3.278,11.55,11.55,0,0,0-5.1-.207A2.4,2.4,0,0,0,153.655,23.207Zm14.179-11.624c1.839-1.862,4.68-1.816,7.1-1.643a21.388,21.388,0,0,1-.017,2.963c-1.339.231-2.9-.268-4.055,0.625a2.794,2.794,0,0,0-.814,2.3c-0.066,3.643,0,7.289-.034,10.932-1.136.149-2.281,0.026-3.419,0.09-0.279-2.966-.044-5.967-0.122-8.947C166.53,15.763,166.193,13.253,167.834,11.583Zm-66.675-1.349a16.906,16.906,0,0,1,3.684.091A34.833,34.833,0,0,0,108.4,23.333a6.032,6.032,0,0,0,.758-1.474A34.336,34.336,0,0,0,112,10.319a16.535,16.535,0,0,1,3.663-.076C115.5,15.988,113.1,21.368,110.53,26.4c-0.18.543-.816,0.406-1.246,0.435a25.987,25.987,0,0,1-2.7-.061l-0.291-.362c-2.69-4.992-4.982-10.418-5.136-16.178h0Zm17.415,0.015a26.951,26.951,0,0,1,3.5-.012c0.05,5.485.082,10.982-.011,16.464a18.876,18.876,0,0,1-3.411.137C118.588,21.313,118.5,15.778,118.574,10.249Z"/>
</svg>
