<svg id="línea" xmlns="http://www.w3.org/2000/svg" width="66" height="66" viewBox="0 0 66 66">
  <metadata><?xpacket begin="﻿" id="W5M0MpCehiHzreSzNTczkc9d"?>
<x:xmpmeta xmlns:x="adobe:ns:meta/" x:xmptk="Adobe XMP Core 5.6-c138 79.159824, 2016/09/14-01:09:01        ">
   <rdf:RDF xmlns:rdf="http://www.w3.org/1999/02/22-rdf-syntax-ns#">
      <rdf:Description rdf:about=""/>
   </rdf:RDF>
</x:xmpmeta>
                                                                                                    
                                                                                                    
                                                                                                    
                                                                                                    
                                                                                                    
                                                                                                    
                                                                                                    
                                                                                                    
                                                                                                    
                                                                                                    
                                                                                                    
                                                                                                    
                                                                                                    
                                                                                                    
                                                                                                    
                                                                                                    
                                                                                                    
                                                                                                    
                                                                                                    
                                                                                                    
                           
<?xpacket end="w"?></metadata>
<defs>
    <style>
      .cls-1 {
        fill: #1d0068;
        fill-rule: evenodd;
      }
    </style>
  </defs>
  <path class="cls-1" d="M60.441,0H5.565A5.564,5.564,0,0,0,.008,5.555V60.441A5.564,5.564,0,0,0,5.565,66H60.441A5.564,5.564,0,0,0,66,60.441V5.555A5.564,5.564,0,0,0,60.441,0Zm1.852,60.444a1.854,1.854,0,0,1-1.852,1.852H5.565a1.854,1.854,0,0,1-1.852-1.852V5.555A1.854,1.854,0,0,1,5.565,3.7H60.441a1.854,1.854,0,0,1,1.852,1.853V60.441Z"/>
  <path id="Shape_1378_copy" data-name="Shape 1378 copy" class="cls-1" d="M13.226,44.354A1.544,1.544,0,0,0,10.5,45.8l5.245,9.866a1.544,1.544,0,0,0,2.726-1.45Zm39.708-31.28A4.629,4.629,0,0,0,47,10.31L27.373,17.466a4.631,4.631,0,0,0-2.76,5.949l0.46,1.23c-1.694.727-4.994,2.573-5.682,6.13-0.586,3.028-1.279,7.285-1.552,8.989L15.5,41.058a1.545,1.545,0,0,0-.62,2.07l5.152,9.807a1.544,1.544,0,0,0,2.023.679l2.069-.973a13.414,13.414,0,0,0,10.846-6.535c3.532-5.584,6.714-10.487,7.2-11.238,0.017-.006.035-0.007,0.052-0.013l12.115-4.418A4.638,4.638,0,0,0,57.1,24.5ZM27.56,21.165a1.532,1.532,0,0,1,.871-0.8l19.624-7.156a1.543,1.543,0,0,1,1.979.922l0.438,1.2-22.515,8.21-0.447-1.2A1.536,1.536,0,0,1,27.56,21.165ZM39.64,33.094c-0.034.052-3.457,5.314-7.282,11.361a10.235,10.235,0,0,1-8.509,5.1,1.492,1.492,0,0,0-.731.145l-1.042.49L18.313,43.03l1.678-.928a1.544,1.544,0,0,0,.779-1.112c0.009-.058.919-5.835,1.653-9.629,0.343-1.77,1.96-2.92,3.166-3.547,0.441,1.287,1.139,3.318,2.045,5.919,1.623,4.657,3.258,5.653,4.36,5.653h0.046a1.544,1.544,0,0,0,1.287-.753c1.522-2.554,4.125-6.845,4.627-7.486a1.891,1.891,0,0,1,1.167-.7,0.916,0.916,0,0,1,.734.292C40.613,31.425,39.639,33.094,39.64,33.094Zm13.637-5.557L43.23,31.2a3.879,3.879,0,0,0-1.309-2.753,3.991,3.991,0,0,0-3.068-1.075,4.971,4.971,0,0,0-3.331,1.871c-0.506.647-2.154,3.334-3.413,5.419l-3.072-8.228,22.492-8.2,2.67,7.325A1.546,1.546,0,0,1,53.277,27.537Z"/>
</svg>
