<svg id="línea" xmlns="http://www.w3.org/2000/svg" width="66" height="66" viewBox="0 0 66 66">
  <metadata><?xpacket begin="﻿" id="W5M0MpCehiHzreSzNTczkc9d"?>
<x:xmpmeta xmlns:x="adobe:ns:meta/" x:xmptk="Adobe XMP Core 5.6-c138 79.159824, 2016/09/14-01:09:01        ">
   <rdf:RDF xmlns:rdf="http://www.w3.org/1999/02/22-rdf-syntax-ns#">
      <rdf:Description rdf:about=""/>
   </rdf:RDF>
</x:xmpmeta>
                                                                                                    
                                                                                                    
                                                                                                    
                                                                                                    
                                                                                                    
                                                                                                    
                                                                                                    
                                                                                                    
                                                                                                    
                                                                                                    
                                                                                                    
                                                                                                    
                                                                                                    
                                                                                                    
                                                                                                    
                                                                                                    
                                                                                                    
                                                                                                    
                                                                                                    
                                                                                                    
                           
<?xpacket end="w"?></metadata>
<defs>
    <style>
      .cls-1 {
        fill: #1d0068;
        fill-rule: evenodd;
      }
    </style>
  </defs>
  <path class="cls-1" d="M60.43-.012H5.554A5.564,5.564,0,0,0,0,5.546V60.432A5.564,5.564,0,0,0,5.554,65.99H60.43a5.564,5.564,0,0,0,5.557-5.558V5.546A5.564,5.564,0,0,0,60.43-.012Zm1.852,60.444a1.854,1.854,0,0,1-1.852,1.853H5.554A1.854,1.854,0,0,1,3.7,60.432V5.546A1.854,1.854,0,0,1,5.554,3.694H60.43a1.855,1.855,0,0,1,1.852,1.853V60.432Z"/>
  <path id="Shape_1376_copy" data-name="Shape 1376 copy" class="cls-1" d="M46.007,36.5a7.116,7.116,0,0,0-1.843.249,17.85,17.85,0,0,0-7.759-5.4,11.037,11.037,0,1,0-11.91,0A17.925,17.925,0,0,0,12.554,48.23v5.436A1.544,1.544,0,0,0,14.1,55.209H46.8a1.544,1.544,0,0,0,1.544-1.544V50.414A7.153,7.153,0,0,0,46.007,36.5ZM22.5,22.074a7.949,7.949,0,1,1,7.949,7.951A7.959,7.959,0,0,1,22.5,22.074ZM15.641,52.122V48.23A14.8,14.8,0,0,1,41.359,38.223a7.149,7.149,0,0,0,3.893,12.548v1.35H15.641Zm30.366-3.78a4.687,4.687,0,1,1,4.686-4.687A4.692,4.692,0,0,1,46.007,48.342Zm2.419-5.922H47.241V41.236a1.235,1.235,0,1,0-2.47,0v1.184H43.588a1.235,1.235,0,0,0,0,2.47h1.184v1.184a1.235,1.235,0,1,0,2.47,0V44.889h1.184A1.235,1.235,0,0,0,48.425,42.419Z"/>
</svg>
