<svg id="TELCEL" xmlns="http://www.w3.org/2000/svg" width="205" height="165" viewBox="0 0 205 165">
  <metadata><?xpacket begin="﻿" id="W5M0MpCehiHzreSzNTczkc9d"?>
<x:xmpmeta xmlns:x="adobe:ns:meta/" x:xmptk="Adobe XMP Core 5.6-c138 79.159824, 2016/09/14-01:09:01        ">
   <rdf:RDF xmlns:rdf="http://www.w3.org/1999/02/22-rdf-syntax-ns#">
      <rdf:Description rdf:about=""/>
   </rdf:RDF>
</x:xmpmeta>
                                                                                                    
                                                                                                    
                                                                                                    
                                                                                                    
                                                                                                    
                                                                                                    
                                                                                                    
                                                                                                    
                                                                                                    
                                                                                                    
                                                                                                    
                                                                                                    
                                                                                                    
                                                                                                    
                                                                                                    
                                                                                                    
                                                                                                    
                                                                                                    
                                                                                                    
                                                                                                    
                           
<?xpacket end="w"?></metadata>
<defs>
    <style>
      .cls-1 {
        fill: #012493;
      }

      .cls-2 {
        fill: #0831b5;
        fill-rule: evenodd;
      }
    </style>
  </defs>
  <rect id="Rectangle_12_copy_2" data-name="Rectangle 12 copy 2" class="cls-1" width="205" height="165"/>
  <path id="Telcel_copy" data-name="Telcel copy" class="cls-2" d="M18.94,130.005H93.321l-0.984-1.161h7.51l0.805,1.161h24.406l-4.024,5.983H105.479l0.268,0.356-2.593,3.661-3.933-4.017-84.214.089,3.934-6.072h0Zm69.821-4.821-2.414-2.5-62.579.089,4.023-6.161H80.447l-1.073-1.161h9.834l0.894,1.161h43.806l-4.112,6.072H94.93l1.967,2.5H88.761ZM75.8,111.79l-2.592-2.678-40.319.089,4.023-6.16h28.7l0.895-1.25H86.347l-0.983,1.25h57.663l-4.113,6.071H84.2l2.056,2.678H75.8ZM69,98.13l1.61-2.232H41.648l4.023-6.072H74.815l1.162-1.7H96.986l-1.341,1.7,56.143-.089-4.023,6.071L91,95.9,89.208,98.13H69ZM78.48,84.47L80,82.327H50.677L54.7,76.255H84.2l1.162-1.607h22.081l-1.251,1.607h54.534L156.7,82.327H101.455L99.847,84.47H78.48Zm9.387-13.483L89.03,69.38H59.349l4.023-6.072H93.231L94.3,61.7h23.245L116.3,63.308h53.192l-4.112,6.072H111.558l-1.252,1.607H87.868Zm8.94-12.946,1.609-2.322H68.468l4.022-6.071h30.128l0.805-1.071h24.406l-0.895,1.071h51.674L174.5,55.718H122.2l-1.788,2.322h-23.6Zm9.119-13.126,1.34-1.875H76.961l3.933-6.072H126.13l5.095-8.036h-0.893l2.5-3.929h4.2l-2.772,3.929H133.55l-5.721,8.036h59.182l-4.023,5.982-50.869.089-1.43,1.875H105.926Z"/>
</svg>
