<svg id="TELCEL" xmlns="http://www.w3.org/2000/svg" width="175" height="38" viewBox="0 0 175 38">
  <metadata><?xpacket begin="﻿" id="W5M0MpCehiHzreSzNTczkc9d"?>
<x:xmpmeta xmlns:x="adobe:ns:meta/" x:xmptk="Adobe XMP Core 5.6-c138 79.159824, 2016/09/14-01:09:01        ">
   <rdf:RDF xmlns:rdf="http://www.w3.org/1999/02/22-rdf-syntax-ns#">
      <rdf:Description rdf:about=""/>
   </rdf:RDF>
</x:xmpmeta>
                                                                                                    
                                                                                                    
                                                                                                    
                                                                                                    
                                                                                                    
                                                                                                    
                                                                                                    
                                                                                                    
                                                                                                    
                                                                                                    
                                                                                                    
                                                                                                    
                                                                                                    
                                                                                                    
                                                                                                    
                                                                                                    
                                                                                                    
                                                                                                    
                                                                                                    
                                                                                                    
                           
<?xpacket end="w"?></metadata>
<defs>
    <style>
      .cls-1 {
        fill: #fff;
        fill-rule: evenodd;
      }
    </style>
  </defs>
  <path id="Telcel-2" data-name="Telcel" class="cls-1" d="M1.278,33.838H25.559l-0.321-.374h2.451l0.263,0.374h7.967l-1.313,1.928H29.528l0.088,0.115-0.846,1.18-1.284-1.3L-0.006,35.8l1.284-1.957h0Zm22.792-1.554-0.788-.806-20.428.029,1.313-1.986H21.356l-0.35-.374h3.21l0.292,0.374h14.3l-1.342,1.957H26.084l0.642,0.806H24.071Zm-4.232-4.317L18.993,27.1l-13.162.029,1.313-1.986h9.368l0.292-.4h6.478l-0.321.4H41.785L40.442,27.1H22.582l0.671,0.863H19.839Zm-2.218-4.4,0.526-.719H8.691L10,20.886h9.514L19.9,20.34h6.858l-0.438.546,18.327-.028-1.313,1.957L24.8,22.844l-0.584.72h-6.6Zm3.094-4.4,0.5-.691H11.638l1.313-1.957h9.631l0.379-.518H30.17l-0.409.518h17.8L46.25,18.469H28.214l-0.525.691H20.715Zm3.064-4.346,0.379-.518H14.469l1.313-1.957H25.53l0.35-.518h7.588l-0.409.518H50.423L49.08,14.3H31.512l-0.409.518H23.779ZM26.7,10.64l0.525-.748H17.446l1.313-1.957h9.835l0.263-.345h7.967l-0.292.345H53.4L52.057,9.892H34.985L34.4,10.64H26.7Zm2.977-4.231,0.438-.6H20.218L21.5,3.848H36.269l1.663-2.59H37.641L38.458-.009h1.372l-0.9,1.266H38.691l-1.868,2.59H56.143L54.83,5.776l-16.605.029-0.467.6H29.674ZM58.1,37.119l-8.4-.057c-3.881,0-2.51-4.173-1.4-5.641L58.682,17.634H55.151l3.035-4.26h3.531l4.728-6.1H74l-4.844,6.1H74.7l-3.531,4.26H65.657L56.172,30.356c-1.576,2.561.117,2.216,4.436,2.187L58.1,37.119h0ZM75.462,23.3H86.581c1.781-4.116,2.189-5.382-2.714-5.382-3.706,0-7.354,2.619-8.4,5.382h0Zm10.36,8.634-4.028,5.181H69.567c-8.872-.288-7.821-6.447-1.167-14.275,6.654-7.857,10.418-8.433,18.123-8.26,13.921,0.288,5.428,9.124,3.093,12.894H71.785c-2.189,3.338-2.189,4.634,1.693,4.461H85.822ZM85.5,37.09L107.1,7.273h7.15L92.709,37.09H85.5Zm34.99-4.692-3.181,4.749-12.14.029c-2.626,0-8.492-1.813-4.873-7.31,5.428-7.569,8.959-12.75,15.905-14.563,6.887-1.209,9.134-.6,14.679-0.6l-3.327,4.836c-8.376-.173-12.578.691-16.314,5.526-2.539,3.31-6.1,7.454-.612,7.425l9.863-.086h0Zm25.536,4.778,21.478-29.9h7.5l-22.121,29.9h-6.858ZM134.849,23.765h11.09c1.809-4.116,3.5-5.382-2.685-5.382-3.706,0-7.383,2.648-8.405,5.382h0ZM145.005,32.4l-3.823,5.209-12.257-.029c-8.609-.288-7.791-6.447-1.167-14.276,6.654-7.828,10.418-8.4,18.123-8.26,15.642,0.317,5.4,9.153,3.21,12.894H131.143c-2.189,3.367-2.451,4.6,1.722,4.461h12.14Zm14.475,5.612h-0.992l-0.175-3.252L157.5,38.011h-0.933l1.05-3.886H159.1l0.175,2.734L161,34.126h1.517l-1.05,3.886H160.5l0.993-3.224-2.014,3.224h0Zm3.239-.72h0.993l-0.2.72h-0.992l0.2-.72h0Zm2.831,0.72H164.5l1.05-3.886h2.276a3.838,3.838,0,0,1,.905.086,1.051,1.051,0,0,1,.525.346,0.918,0.918,0,0,1,.205.576,1.058,1.058,0,0,1-.409.835,2.3,2.3,0,0,1-1.167.4,2.089,2.089,0,0,1,.379.345,10.949,10.949,0,0,1,.788,1.3h-1.138c-0.088-.2-0.263-0.547-0.525-1.008a1.192,1.192,0,0,0-.467-0.518A1.069,1.069,0,0,0,166.4,36.4h-0.409l-0.438,1.612h0Zm0.584-2.188h0.554a4.915,4.915,0,0,0,1.138-.086,0.806,0.806,0,0,0,.409-0.23,0.494,0.494,0,0,0,.175-0.345,0.337,0.337,0,0,0-.233-0.317,1.5,1.5,0,0,0-.613-0.058h-1.138l-0.292,1.036h0Zm3.706,1.468H170.8l-0.2.72h-0.963l0.2-.72h0Z"/>
</svg>
