<svg id="línea" xmlns="http://www.w3.org/2000/svg" width="66" height="66" viewBox="0 0 66 66">
  <metadata><?xpacket begin="﻿" id="W5M0MpCehiHzreSzNTczkc9d"?>
<x:xmpmeta xmlns:x="adobe:ns:meta/" x:xmptk="Adobe XMP Core 5.6-c138 79.159824, 2016/09/14-01:09:01        ">
   <rdf:RDF xmlns:rdf="http://www.w3.org/1999/02/22-rdf-syntax-ns#">
      <rdf:Description rdf:about=""/>
   </rdf:RDF>
</x:xmpmeta>
                                                                                                    
                                                                                                    
                                                                                                    
                                                                                                    
                                                                                                    
                                                                                                    
                                                                                                    
                                                                                                    
                                                                                                    
                                                                                                    
                                                                                                    
                                                                                                    
                                                                                                    
                                                                                                    
                                                                                                    
                                                                                                    
                                                                                                    
                                                                                                    
                                                                                                    
                                                                                                    
                           
<?xpacket end="w"?></metadata>
<defs>
    <style>
      .cls-1 {
        fill: #1d0068;
        fill-rule: evenodd;
      }
    </style>
  </defs>
  <path class="cls-1" d="M60.447-.015H5.568A5.564,5.564,0,0,0,.011,5.544V60.432A5.564,5.564,0,0,0,5.568,65.99H60.447A5.564,5.564,0,0,0,66,60.432V5.544A5.564,5.564,0,0,0,60.447-.015ZM62.3,60.432a1.855,1.855,0,0,1-1.852,1.853H5.568a1.855,1.855,0,0,1-1.852-1.853V5.544A1.855,1.855,0,0,1,5.568,3.691H60.447A1.855,1.855,0,0,1,62.3,5.544V60.432ZM11.992,22.654V43.306"/>
  <path id="Shape_1389_copy" data-name="Shape 1389 copy" class="cls-1" d="M23.59,15.444a1.558,1.558,0,0,0,.764-0.2,18.677,18.677,0,0,1,17.541-.328H39.628a1.526,1.526,0,1,0,0,3.052h5.7a1.538,1.538,0,0,0,1.549-1.526V10.832a1.55,1.55,0,0,0-3.1,0v1.612a21.819,21.819,0,0,0-20.952.147,1.514,1.514,0,0,0-.582,2.081A1.554,1.554,0,0,0,23.59,15.444Zm29.838,5.639H13.452A1.538,1.538,0,0,0,11.9,22.61V43.349a1.538,1.538,0,0,0,1.55,1.526H53.428a1.538,1.538,0,0,0,1.55-1.526V22.61A1.538,1.538,0,0,0,53.428,21.084ZM51.879,41.823H15V24.136H51.879V41.823Zm-17.867-3.65a5.265,5.265,0,1,0-5.345-5.264A5.311,5.311,0,0,0,34.012,38.173Zm0-7.476a2.212,2.212,0,1,1-2.246,2.212A2.231,2.231,0,0,1,34.012,30.7Zm10.265,4.6a2.385,2.385,0,1,0-2.421-2.384A2.406,2.406,0,0,0,44.277,35.294Zm-20.492,0a2.385,2.385,0,1,0-2.421-2.384A2.405,2.405,0,0,0,23.785,35.294ZM44.559,50.368a18.675,18.675,0,0,1-17.54.328h2.265a1.526,1.526,0,1,0,0-3.052h-5.7a1.538,1.538,0,0,0-1.549,1.526v5.611a1.55,1.55,0,0,0,3.1,0V53.168a21.816,21.816,0,0,0,20.952-.146,1.514,1.514,0,0,0,.583-2.081A1.562,1.562,0,0,0,44.559,50.368Z"/>
</svg>
